<svg width="17" height="16" viewBox="0 0 17 16" fill="none" xmlns="http://www.w3.org/2000/svg">
<path d="M6.80525 12.2419L6.80522 12.2419C6.73051 12.325 6.61894 12.3756 6.49814 12.375C6.37739 12.3744 6.26641 12.3227 6.19262 12.239C6.1926 12.239 6.19258 12.2389 6.19257 12.2389L3.10928 8.73893L3.10928 8.73893C2.97345 8.58475 2.98933 8.35521 3.15188 8.21964C3.32242 8.07743 3.5816 8.09884 3.72453 8.26109L6.13206 10.994L6.50339 11.4155L6.87902 10.9978L13.3896 3.75816L13.3897 3.75815C13.5345 3.59711 13.7939 3.5785 13.9628 3.72223C14.1236 3.85912 14.1374 4.08875 13.9997 4.24187L6.80525 12.2419Z" fill="#5A6072" stroke="#5A6072"/>
</svg>
