<svg xmlns="http://www.w3.org/2000/svg" width="378" height="389" fill="none"><g clip-path="url(#a)"><rect width="376" height="227" x="1" y="1" fill="#E4ECFB" rx="12"/><path fill="#C2DAF0" d="M25.82 95.42c0-6.628 5.372-12 12-12h153.436c6.627 0 12 5.372 12 12v131.709H25.82V95.419ZM218.329 215.14c0-6.628 5.373-12 12-12h109.853c6.627 0 12 5.372 12 12v131.709H218.329V215.14Z"/><rect width="133.853" height="106.638" x="218.329" y="83.42" fill="#8FC1ED" stroke="#1C6BB0" stroke-dasharray="8 8" stroke-linecap="round" stroke-width="1.5" opacity=".7" rx="8"/><rect width="133.861" height="106.642" fill="#EEF6FC" stroke="#8FC1ED" stroke-width="1.5" rx="12" transform="rotate(-15.001 453.73 -424.132) skewX(-.002)"/><path fill="#8FC1ED" d="M144.397 123.453c-.432-1.613.063-3.146 1.105-3.426l33.504-8.978c1.042-.279 2.237.802 2.67 2.415l.795 2.969c.432 1.613-.062 3.147-1.105 3.427l-33.503 8.977c-1.043.28-2.238-.801-2.67-2.414l-.796-2.97ZM148.713 139.564c-.432-1.613.063-3.147 1.105-3.427l16.988-4.552c1.043-.279 2.238.802 2.67 2.415l.783 2.92c.432 1.613-.063 3.147-1.105 3.427l-16.988 4.552c-1.043.279-2.238-.802-2.67-2.415l-.783-2.92ZM153.017 155.626c-.432-1.613.063-3.147 1.105-3.426l28.313-7.587c1.042-.279 2.238.802 2.67 2.415l.783 2.92c.432 1.613-.063 3.147-1.106 3.427l-28.312 7.586c-1.043.28-2.238-.801-2.67-2.414l-.783-2.921ZM157.321 171.689c-.432-1.613.062-3.147 1.105-3.426l15.1-4.047c1.042-.279 2.238.802 2.67 2.415l.783 2.921c.432 1.613-.063 3.147-1.105 3.426l-15.101 4.046c-1.042.28-2.238-.802-2.67-2.415l-.782-2.92ZM256.972 122.538a32.825 32.825 0 0 0-11.598-17.459 32.33 32.33 0 0 0-19.717-6.783 32.08 32.08 0 0 0-19.687 6.696 32.436 32.436 0 0 0-11.521 17.408 32.872 32.872 0 0 0 1.407 20.924 32.736 32.736 0 0 0 13.753 15.794 32.232 32.232 0 0 0 20.415 4.135 32.103 32.103 0 0 0 18.64-9.232l-13.761-13.867a12.85 12.85 0 0 1-15.622 2.039 13.1 13.1 0 0 1-5.502-6.318 13.147 13.147 0 0 1-.562-8.369 12.968 12.968 0 0 1 4.608-6.963 12.829 12.829 0 0 1 7.875-2.679c2.85.006 5.622.96 7.887 2.713a13.131 13.131 0 0 1 4.639 6.984l18.746-5.023Z" opacity=".5"/><path fill="#8FC1ED" d="M251.895 150.219a32.691 32.691 0 0 0 6.115-21.504l-19.369 1.317a13.072 13.072 0 0 1-2.446 8.601l15.7 11.586Z" opacity=".5"/><path fill="#fff" d="M201.844 212.884c.405.972.016 4.655-2.133 5.509-2.148.854-4.893 0-4.893 0l-4.981-9.962-8.608 8.609v-38.881l26.37 26.372h-9.825c.482.924 3.555 7.117 4.07 8.353Z"/><path fill="#1C6BB0" fill-rule="evenodd" d="M183.538 183.737v27.725l6.931-6.931 5.776 11.552s1.562.499 2.31 0c.748-.498 1.492-1.503 1.155-2.31-1.588-3.813-5.775-11.552-5.775-11.552h8.086l-18.483-18.484Z" clip-rule="evenodd"/></g><rect width="376" height="227" x="1" y="1" stroke="#C2DAF0" stroke-width="1.5" rx="12"/><rect width="159.939" height="118.5" x="109.031" y="269.75" fill="#CBE2F7" stroke="#509EE3" stroke-width="1.5" rx="7.25"/><rect width="122.471" height="72.558" x="127.764" y="285.744" fill="#EEF6FD" stroke="#509EE3" stroke-width="1.5" rx="4"/><path fill="#509EE3" d="M194.567 317.209h2.784c0 4.938-2.918 8.373-8.351 8.373-5.432 0-8.35-3.435-8.35-8.373h2.784c0 2.791 1.391 5.582 5.566 5.582 4.176 0 5.567-2.791 5.567-5.582Z"/><ellipse cx="166.036" cy="303.954" fill="#509EE3" rx="4.871" ry="4.884"/><ellipse cx="210.572" cy="303.954" fill="#509EE3" rx="4.871" ry="4.884"/><path fill="#CBE2F7" stroke="#509EE3" stroke-width="1.5" d="M234.176 372.256a4.823 4.823 0 0 1-4.816 4.831 4.824 4.824 0 0 1-4.817-4.831 4.825 4.825 0 0 1 4.817-4.832c2.658 0 4.816 2.162 4.816 4.832ZM249.485 372.256a4.824 4.824 0 0 1-4.817 4.831 4.823 4.823 0 0 1-4.816-4.831c0-2.67 2.158-4.832 4.816-4.832a4.825 4.825 0 0 1 4.817 4.832Z"/><defs><clipPath id="a"><rect width="376" height="227" x="1" y="1" fill="#fff" rx="12"/></clipPath></defs></svg>
