<svg width="377" height="148" viewBox="0 0 377 148" fill="none" xmlns="http://www.w3.org/2000/svg">
<g clip-path="url(#clip0_1029_19493)">
<path d="M0.0141602 8C0.0141602 3.58173 3.59588 0 8.01416 0H368.014C372.432 0 376.014 3.58172 376.014 8V148H0.0141602V8Z" fill="#EDF6FC"/>
<mask id="mask0_1029_19493" style="mask-type:alpha" maskUnits="userSpaceOnUse" x="0" y="0" width="377" height="148">
<rect x="0.0141602" width="376" height="148" fill="url(#paint0_radial_1029_19493)"/>
</mask>
<g mask="url(#mask0_1029_19493)">
<path d="M457.35 5.11859L-81.9833 5.11864" stroke="#509EE3"/>
<path d="M457.35 39.6361L-81.9833 39.6362" stroke="#509EE3"/>
<path d="M457.35 74.1533L-81.9833 74.1533" stroke="#509EE3"/>
<path d="M457.35 108.671L-81.9833 108.671" stroke="#509EE3"/>
<path d="M457.35 143.188L-81.9833 143.188" stroke="#509EE3"/>
<path d="M187.678 -224L187.678 38.5434" stroke="#509EE3"/>
<path d="M187.678 109.522L187.678 372.065" stroke="#509EE3"/>
<path d="M187.679 144.813C188.596 144.813 189.297 144.112 189.297 143.195C189.297 142.278 188.596 141.577 187.679 141.577C186.762 141.577 186.061 142.278 186.061 143.195C186.061 144.112 186.762 144.813 187.679 144.813Z" fill="white" stroke="#509EE3"/>
<path d="M187.679 6.74284C188.596 6.74284 189.297 6.0417 189.297 5.12484C189.297 4.20797 188.596 3.50684 187.679 3.50684C186.762 3.50684 186.061 4.20797 186.061 5.12484C186.061 6.0417 186.762 6.74284 187.679 6.74284Z" fill="white" stroke="#509EE3"/>
<path d="M222.194 -60.6733L222.194 208.993" stroke="#509EE3"/>
<path d="M222.195 144.813C223.112 144.813 223.813 144.112 223.813 143.195C223.813 142.278 223.112 141.577 222.195 141.577C221.278 141.577 220.577 142.278 220.577 143.195C220.577 144.112 221.278 144.813 222.195 144.813Z" fill="white" stroke="#509EE3"/>
<path d="M222.195 6.74284C223.112 6.74284 223.813 6.0417 223.813 5.12484C223.813 4.20797 223.112 3.50684 222.195 3.50684C221.278 3.50684 220.577 4.20797 220.577 5.12484C220.577 6.0417 221.278 6.74284 222.195 6.74284Z" fill="white" stroke="#509EE3"/>
<path d="M256.709 -60.6733L256.709 208.993" stroke="#509EE3"/>
<path d="M256.71 41.2604C257.627 41.2604 258.328 40.5593 258.328 39.6424C258.328 38.7255 257.627 38.0244 256.71 38.0244C255.793 38.0244 255.092 38.7255 255.092 39.6424C255.092 40.5593 255.793 41.2604 256.71 41.2604Z" fill="white" stroke="#509EE3"/>
<path d="M256.71 75.778C257.627 75.778 258.328 75.0769 258.328 74.16C258.328 73.2431 257.627 72.542 256.71 72.542C255.793 72.542 255.092 73.2431 255.092 74.16C255.092 75.0769 255.793 75.778 256.71 75.778Z" fill="white" stroke="#509EE3"/>
<path d="M256.71 110.295C257.627 110.295 258.328 109.594 258.328 108.677C258.328 107.76 257.627 107.059 256.71 107.059C255.793 107.059 255.092 107.76 255.092 108.677C255.092 109.594 255.793 110.295 256.71 110.295Z" fill="white" stroke="#509EE3"/>
<path d="M256.71 144.813C257.627 144.813 258.328 144.112 258.328 143.195C258.328 142.278 257.627 141.577 256.71 141.577C255.793 141.577 255.092 142.278 255.092 143.195C255.092 144.112 255.793 144.813 256.71 144.813Z" fill="white" stroke="#509EE3"/>
<path d="M256.71 6.74284C257.627 6.74284 258.328 6.0417 258.328 5.12484C258.328 4.20797 257.627 3.50684 256.71 3.50684C255.793 3.50684 255.092 4.20797 255.092 5.12484C255.092 6.0417 255.793 6.74284 256.71 6.74284Z" fill="white" stroke="#509EE3"/>
<path d="M291.225 -60.6733L291.225 208.993" stroke="#509EE3"/>
<path d="M291.234 41.2604C292.151 41.2604 292.852 40.5593 292.852 39.6424C292.852 38.7255 292.151 38.0244 291.234 38.0244C290.317 38.0244 289.616 38.7255 289.616 39.6424C289.616 40.5593 290.317 41.2604 291.234 41.2604Z" fill="white" stroke="#509EE3"/>
<path d="M291.234 75.778C292.151 75.778 292.852 75.0769 292.852 74.16C292.852 73.2431 292.151 72.542 291.234 72.542C290.317 72.542 289.616 73.2431 289.616 74.16C289.616 75.0769 290.317 75.778 291.234 75.778Z" fill="white" stroke="#509EE3"/>
<path d="M291.234 110.295C292.151 110.295 292.852 109.594 292.852 108.677C292.852 107.76 292.151 107.059 291.234 107.059C290.317 107.059 289.616 107.76 289.616 108.677C289.616 109.594 290.317 110.295 291.234 110.295Z" fill="white" stroke="#509EE3"/>
<path d="M291.234 144.813C292.151 144.813 292.852 144.112 292.852 143.195C292.852 142.278 292.151 141.577 291.234 141.577C290.317 141.577 289.616 142.278 289.616 143.195C289.616 144.112 290.317 144.813 291.234 144.813Z" fill="white" stroke="#509EE3"/>
<path d="M291.234 6.74284C292.151 6.74284 292.852 6.0417 292.852 5.12484C292.852 4.20797 292.151 3.50684 291.234 3.50684C290.317 3.50684 289.616 4.20797 289.616 5.12484C289.616 6.0417 290.317 6.74284 291.234 6.74284Z" fill="white" stroke="#509EE3"/>
<path d="M325.749 -60.6733L325.749 208.993" stroke="#509EE3"/>
<path d="M325.749 41.2604C326.666 41.2604 327.367 40.5593 327.367 39.6424C327.367 38.7255 326.666 38.0244 325.749 38.0244C324.832 38.0244 324.131 38.7255 324.131 39.6424C324.131 40.5593 324.832 41.2604 325.749 41.2604Z" fill="white" stroke="#509EE3"/>
<path d="M325.749 75.778C326.666 75.778 327.367 75.0769 327.367 74.16C327.367 73.2431 326.666 72.542 325.749 72.542C324.832 72.542 324.131 73.2431 324.131 74.16C324.131 75.0769 324.832 75.778 325.749 75.778Z" fill="white" stroke="#509EE3"/>
<path d="M325.749 110.295C326.666 110.295 327.367 109.594 327.367 108.677C327.367 107.76 326.666 107.059 325.749 107.059C324.832 107.059 324.131 107.76 324.131 108.677C324.131 109.594 324.832 110.295 325.749 110.295Z" fill="white" stroke="#509EE3"/>
<path d="M325.749 144.813C326.666 144.813 327.367 144.112 327.367 143.195C327.367 142.278 326.666 141.577 325.749 141.577C324.832 141.577 324.131 142.278 324.131 143.195C324.131 144.112 324.832 144.813 325.749 144.813Z" fill="white" stroke="#509EE3"/>
<path d="M325.749 6.74284C326.666 6.74284 327.367 6.0417 327.367 5.12484C327.367 4.20797 326.666 3.50684 325.749 3.50684C324.832 3.50684 324.131 4.20797 324.131 5.12484C324.131 6.0417 324.832 6.74284 325.749 6.74284Z" fill="white" stroke="#509EE3"/>
<path d="M360.264 -60.6733L360.264 208.993" stroke="#509EE3"/>
<path d="M360.265 41.2604C361.182 41.2604 361.883 40.5593 361.883 39.6424C361.883 38.7255 361.182 38.0244 360.265 38.0244C359.348 38.0244 358.647 38.7255 358.647 39.6424C358.647 40.5593 359.348 41.2604 360.265 41.2604Z" fill="white" stroke="#509EE3"/>
<path d="M360.265 75.778C361.182 75.778 361.883 75.0769 361.883 74.16C361.883 73.2431 361.182 72.542 360.265 72.542C359.348 72.542 358.647 73.2431 358.647 74.16C358.647 75.0769 359.348 75.778 360.265 75.778Z" fill="white" stroke="#509EE3"/>
<path d="M360.265 110.295C361.182 110.295 361.883 109.594 361.883 108.677C361.883 107.76 361.182 107.059 360.265 107.059C359.348 107.059 358.647 107.76 358.647 108.677C358.647 109.594 359.348 110.295 360.265 110.295Z" fill="white" stroke="#509EE3"/>
<path d="M360.265 144.813C361.182 144.813 361.883 144.112 361.883 143.195C361.883 142.278 361.182 141.577 360.265 141.577C359.348 141.577 358.647 142.278 358.647 143.195C358.647 144.112 359.348 144.813 360.265 144.813Z" fill="white" stroke="#509EE3"/>
<path d="M360.265 6.74284C361.182 6.74284 361.883 6.0417 361.883 5.12484C361.883 4.20797 361.182 3.50684 360.265 3.50684C359.348 3.50684 358.647 4.20797 358.647 5.12484C358.647 6.0417 359.348 6.74284 360.265 6.74284Z" fill="white" stroke="#509EE3"/>
<path d="M153.163 -60.6733L153.163 208.993" stroke="#509EE3"/>
<path d="M153.163 144.813C154.08 144.813 154.781 144.112 154.781 143.195C154.781 142.278 154.08 141.577 153.163 141.577C152.247 141.577 151.545 142.278 151.545 143.195C151.545 144.112 152.247 144.813 153.163 144.813Z" fill="white" stroke="#509EE3"/>
<path d="M153.163 6.74284C154.08 6.74284 154.781 6.0417 154.781 5.12484C154.781 4.20797 154.08 3.50684 153.163 3.50684C152.247 3.50684 151.545 4.20797 151.545 5.12484C151.545 6.0417 152.247 6.74284 153.163 6.74284Z" fill="white" stroke="#509EE3"/>
<path d="M118.639 -60.6733L118.639 208.993" stroke="#509EE3"/>
<path d="M118.648 41.2604C119.565 41.2604 120.266 40.5593 120.266 39.6424C120.266 38.7255 119.565 38.0244 118.648 38.0244C117.731 38.0244 117.03 38.7255 117.03 39.6424C117.03 40.5593 117.731 41.2604 118.648 41.2604Z" fill="white" stroke="#509EE3"/>
<path d="M118.648 75.778C119.565 75.778 120.266 75.0769 120.266 74.16C120.266 73.2431 119.565 72.542 118.648 72.542C117.731 72.542 117.03 73.2431 117.03 74.16C117.03 75.0769 117.731 75.778 118.648 75.778Z" fill="white" stroke="#509EE3"/>
<path d="M118.648 110.295C119.565 110.295 120.266 109.594 120.266 108.677C120.266 107.76 119.565 107.059 118.648 107.059C117.731 107.059 117.03 107.76 117.03 108.677C117.03 109.594 117.731 110.295 118.648 110.295Z" fill="white" stroke="#509EE3"/>
<path d="M118.648 144.813C119.565 144.813 120.266 144.112 120.266 143.195C120.266 142.278 119.565 141.577 118.648 141.577C117.731 141.577 117.03 142.278 117.03 143.195C117.03 144.112 117.731 144.813 118.648 144.813Z" fill="white" stroke="#509EE3"/>
<path d="M118.648 6.74284C119.565 6.74284 120.266 6.0417 120.266 5.12484C120.266 4.20797 119.565 3.50684 118.648 3.50684C117.731 3.50684 117.03 4.20797 117.03 5.12484C117.03 6.0417 117.731 6.74284 118.648 6.74284Z" fill="white" stroke="#509EE3"/>
<path d="M84.1235 -60.6733L84.1235 208.993" stroke="#509EE3"/>
<path d="M84.1243 41.2604C85.0412 41.2604 85.7423 40.5593 85.7423 39.6424C85.7423 38.7255 85.0412 38.0244 84.1243 38.0244C83.2075 38.0244 82.5063 38.7255 82.5063 39.6424C82.5063 40.5593 83.2075 41.2604 84.1243 41.2604Z" fill="white" stroke="#509EE3"/>
<path d="M84.1243 75.778C85.0412 75.778 85.7423 75.0769 85.7423 74.16C85.7423 73.2431 85.0412 72.542 84.1243 72.542C83.2075 72.542 82.5063 73.2431 82.5063 74.16C82.5063 75.0769 83.2075 75.778 84.1243 75.778Z" fill="white" stroke="#509EE3"/>
<path d="M84.1243 110.295C85.0412 110.295 85.7423 109.594 85.7423 108.677C85.7423 107.76 85.0412 107.059 84.1243 107.059C83.2075 107.059 82.5063 107.76 82.5063 108.677C82.5063 109.594 83.2075 110.295 84.1243 110.295Z" fill="white" stroke="#509EE3"/>
<path d="M84.1243 144.813C85.0412 144.813 85.7423 144.112 85.7423 143.195C85.7423 142.278 85.0412 141.577 84.1243 141.577C83.2075 141.577 82.5063 142.278 82.5063 143.195C82.5063 144.112 83.2075 144.813 84.1243 144.813Z" fill="white" stroke="#509EE3"/>
<path d="M84.1243 6.74284C85.0412 6.74284 85.7423 6.0417 85.7423 5.12484C85.7423 4.20797 85.0412 3.50684 84.1243 3.50684C83.2075 3.50684 82.5063 4.20797 82.5063 5.12484C82.5063 6.0417 83.2075 6.74284 84.1243 6.74284Z" fill="white" stroke="#509EE3"/>
<path d="M49.6079 -60.6733L49.6079 208.993" stroke="#509EE3"/>
<path d="M49.6087 41.2604C50.5256 41.2604 51.2267 40.5593 51.2267 39.6424C51.2267 38.7255 50.5256 38.0244 49.6087 38.0244C48.6919 38.0244 47.9907 38.7255 47.9907 39.6424C47.9907 40.5593 48.6919 41.2604 49.6087 41.2604Z" fill="white" stroke="#509EE3"/>
<path d="M49.6087 75.778C50.5256 75.778 51.2267 75.0769 51.2267 74.16C51.2267 73.2431 50.5256 72.542 49.6087 72.542C48.6919 72.542 47.9907 73.2431 47.9907 74.16C47.9907 75.0769 48.6919 75.778 49.6087 75.778Z" fill="white" stroke="#509EE3"/>
<path d="M49.6087 110.295C50.5256 110.295 51.2267 109.594 51.2267 108.677C51.2267 107.76 50.5256 107.059 49.6087 107.059C48.6919 107.059 47.9907 107.76 47.9907 108.677C47.9907 109.594 48.6919 110.295 49.6087 110.295Z" fill="white" stroke="#509EE3"/>
<path d="M49.6087 144.813C50.5256 144.813 51.2267 144.112 51.2267 143.195C51.2267 142.278 50.5256 141.577 49.6087 141.577C48.6919 141.577 47.9907 142.278 47.9907 143.195C47.9907 144.112 48.6919 144.813 49.6087 144.813Z" fill="white" stroke="#509EE3"/>
<path d="M49.6087 6.74284C50.5256 6.74284 51.2267 6.0417 51.2267 5.12484C51.2267 4.20797 50.5256 3.50684 49.6087 3.50684C48.6919 3.50684 47.9907 4.20797 47.9907 5.12484C47.9907 6.0417 48.6919 6.74284 49.6087 6.74284Z" fill="white" stroke="#509EE3"/>
<path d="M15.0923 -60.6733L15.0923 208.993" stroke="#509EE3"/>
<path d="M15.0931 41.2604C16.01 41.2604 16.7111 40.5593 16.7111 39.6424C16.7111 38.7255 16.01 38.0244 15.0931 38.0244C14.1762 38.0244 13.4751 38.7255 13.4751 39.6424C13.4751 40.5593 14.1762 41.2604 15.0931 41.2604Z" fill="white" stroke="#509EE3"/>
<path d="M15.0931 75.778C16.01 75.778 16.7111 75.0769 16.7111 74.16C16.7111 73.2431 16.01 72.542 15.0931 72.542C14.1762 72.542 13.4751 73.2431 13.4751 74.16C13.4751 75.0769 14.1762 75.778 15.0931 75.778Z" fill="white" stroke="#509EE3"/>
<path d="M15.0931 110.295C16.01 110.295 16.7111 109.594 16.7111 108.677C16.7111 107.76 16.01 107.059 15.0931 107.059C14.1762 107.059 13.4751 107.76 13.4751 108.677C13.4751 109.594 14.1762 110.295 15.0931 110.295Z" fill="white" stroke="#509EE3"/>
<path d="M15.0931 144.813C16.01 144.813 16.7111 144.112 16.7111 143.195C16.7111 142.278 16.01 141.577 15.0931 141.577C14.1762 141.577 13.4751 142.278 13.4751 143.195C13.4751 144.112 14.1762 144.813 15.0931 144.813Z" fill="white" stroke="#509EE3"/>
<path d="M15.0931 6.74284C16.01 6.74284 16.7111 6.0417 16.7111 5.12484C16.7111 4.20797 16.01 3.50684 15.0931 3.50684C14.1762 3.50684 13.4751 4.20797 13.4751 5.12484C13.4751 6.0417 14.1762 6.74284 15.0931 6.74284Z" fill="white" stroke="#509EE3"/>
<path d="M221.124 74.1597L154.246 74.1597" stroke="#12436E"/>
<path d="M187.679 41.2604C188.596 41.2604 189.297 40.5593 189.297 39.6424C189.297 38.7255 188.596 38.0244 187.679 38.0244C186.762 38.0244 186.061 38.7255 186.061 39.6424C186.061 40.5593 186.762 41.2604 187.679 41.2604Z" fill="white" stroke="#12436E"/>
<path d="M187.679 110.295C188.596 110.295 189.297 109.594 189.297 108.677C189.297 107.76 188.596 107.059 187.679 107.059C186.762 107.059 186.061 107.76 186.061 108.677C186.061 109.594 186.762 110.295 187.679 110.295Z" fill="white" stroke="#12436E"/>
<path d="M222.195 41.2604C223.112 41.2604 223.813 40.5593 223.813 39.6424C223.813 38.7255 223.112 38.0244 222.195 38.0244C221.278 38.0244 220.577 38.7255 220.577 39.6424C220.577 40.5593 221.278 41.2604 222.195 41.2604Z" fill="white" stroke="#12436E"/>
<path d="M222.195 75.778C223.112 75.778 223.813 75.0769 223.813 74.16C223.813 73.2431 223.112 72.542 222.195 72.542C221.278 72.542 220.577 73.2431 220.577 74.16C220.577 75.0769 221.278 75.778 222.195 75.778Z" fill="white" stroke="#12436E"/>
<path d="M222.195 110.295C223.112 110.295 223.813 109.594 223.813 108.677C223.813 107.76 223.112 107.059 222.195 107.059C221.278 107.059 220.577 107.76 220.577 108.677C220.577 109.594 221.278 110.295 222.195 110.295Z" fill="white" stroke="#12436E"/>
<path d="M153.163 41.2604C154.08 41.2604 154.781 40.5593 154.781 39.6424C154.781 38.7255 154.08 38.0244 153.163 38.0244C152.247 38.0244 151.545 38.7255 151.545 39.6424C151.545 40.5593 152.247 41.2604 153.163 41.2604Z" fill="white" stroke="#12436E"/>
<path d="M153.163 75.778C154.08 75.778 154.781 75.0769 154.781 74.16C154.781 73.2431 154.08 72.542 153.163 72.542C152.247 72.542 151.545 73.2431 151.545 74.16C151.545 75.0769 152.247 75.778 153.163 75.778Z" fill="white" stroke="#12436E"/>
<path d="M153.163 110.295C154.08 110.295 154.781 109.594 154.781 108.677C154.781 107.76 154.08 107.059 153.163 107.059C152.247 107.059 151.545 107.76 151.545 108.677C151.545 109.594 152.247 110.295 153.163 110.295Z" fill="white" stroke="#12436E"/>
</g>
</g>
<defs>
<radialGradient id="paint0_radial_1029_19493" cx="0" cy="0" r="1" gradientUnits="userSpaceOnUse" gradientTransform="translate(188.014 73.5771) rotate(90) scale(74.4229 189.074)">
<stop offset="0.541667" stop-color="#EDF6FC"/>
<stop offset="1" stop-color="#EDF6FC" stop-opacity="0"/>
</radialGradient>
<clipPath id="clip0_1029_19493">
<path d="M0.0141602 8C0.0141602 3.58173 3.59588 0 8.01416 0H368.014C372.432 0 376.014 3.58172 376.014 8V148H0.0141602V8Z" fill="white"/>
</clipPath>
</defs>
</svg>
