<svg width="264" height="176" viewBox="0 0 264 176" fill="none" xmlns="http://www.w3.org/2000/svg">
<mask id="mask0_1029_17172" style="mask-type:alpha" maskUnits="userSpaceOnUse" x="0" y="0" width="264" height="176">
<rect width="264" height="176" fill="url(#paint0_radial_1029_17172)"/>
</mask>
<g mask="url(#mask0_1029_17172)">
<path d="M180 197L180 -30.64" stroke="#C2DAF0"/>
<path d="M156 153.64L156 -73.9999" stroke="#C2DAF0"/>
<path d="M132 153.64L132 -45.0932" stroke="#C2DAF0"/>
<path d="M108 153.64L108 16.3335" stroke="#C2DAF0"/>
<path d="M84 153.64L84 -48.7065" stroke="#C2DAF0"/>
<path d="M60 153.64L60 -73.9999" stroke="#C2DAF0"/>
<path d="M36 153.64L36 -19.7999" stroke="#C2DAF0"/>
<path d="M12 153.64L12 -73.9999" stroke="#C2DAF0"/>
<path d="M204 153.64L204 12.7201" stroke="#C2DAF0"/>
<path d="M228 153.64L228 -73.9999" stroke="#C2DAF0"/>
<path d="M252 193.387L252 -34.2533" stroke="#C2DAF0"/>
<path d="M180 -9L180 54" stroke="#1C6BB0"/>
<path d="M156 -9L156 35" stroke="#1C6BB0"/>
<path d="M132 -14L132 49" stroke="#1C6BB0"/>
<path d="M108 -9L108 38" stroke="#1C6BB0"/>
<path d="M84 -9L84 52" stroke="#1C6BB0"/>
<path d="M60 -20L60 43" stroke="#1C6BB0"/>
<path d="M36 -9L36 54" stroke="#1C6BB0"/>
<path d="M12 -9L12 54" stroke="#1C6BB0"/>
<path d="M204 -9L204 30" stroke="#1C6BB0"/>
<path d="M228 -9L228 54" stroke="#1C6BB0"/>
<path d="M252 -20L252 43" stroke="#1C6BB0"/>
<path d="M180 197L180 134" stroke="#1C6BB0"/>
<path d="M156 185L156 122" stroke="#1C6BB0"/>
<path d="M132 185L132 130" stroke="#1C6BB0"/>
<path d="M108 185L108 147" stroke="#1C6BB0"/>
<path d="M84 185L84 129" stroke="#1C6BB0"/>
<path d="M60 185L60 122" stroke="#1C6BB0"/>
<path d="M36 185L36 137" stroke="#1C6BB0"/>
<path d="M12 185L12 122" stroke="#1C6BB0"/>
<path d="M204 185L204 146" stroke="#1C6BB0"/>
<path d="M228 185L228 122" stroke="#1C6BB0"/>
<path d="M252 196L252 133" stroke="#1C6BB0"/>
</g>
<defs>
<radialGradient id="paint0_radial_1029_17172" cx="0" cy="0" r="1" gradientUnits="userSpaceOnUse" gradientTransform="translate(132 87.4971) rotate(90) scale(88.5029 132.754)">
<stop offset="0.427083" stop-color="#EDF6FC"/>
<stop offset="1" stop-color="#EDF6FC" stop-opacity="0"/>
</radialGradient>
</defs>
</svg>
