<svg width="1442" height="721" viewBox="0 0 1442 721" fill="none" xmlns="http://www.w3.org/2000/svg">
<path d="M1441.15 83.5954L0.847815 83.5955" stroke="#C2DAF0"/>
<path d="M1441.15 175.777L0.847815 175.777" stroke="#C2DAF0"/>
<path d="M1441.15 267.957L0.847815 267.957" stroke="#C2DAF0"/>
<path d="M1441.15 360.135L0.847815 360.135" stroke="#C2DAF0"/>
<path d="M1441.15 452.317L0.847815 452.317" stroke="#C2DAF0"/>
<path d="M1441.15 544.497L0.847815 544.497" stroke="#C2DAF0"/>
<path d="M1441.15 636.675L0.847815 636.675" stroke="#C2DAF0"/>
<path d="M721 0L721 720" stroke="#C2DAF0"/>
<path d="M720.989 548.831C723.437 548.831 725.31 546.959 725.31 544.511C725.31 542.062 723.437 540.19 720.989 540.19C718.54 540.19 716.668 542.062 716.668 544.511C716.668 546.959 718.54 548.831 720.989 548.831Z" fill="#FAFBFE" stroke="#C2DAF0"/>
<path d="M720.989 641.008C723.437 641.008 725.31 639.136 725.31 636.687C725.31 634.239 723.437 632.366 720.989 632.366C718.54 632.366 716.668 634.239 716.668 636.687C716.668 639.136 718.54 641.008 720.989 641.008Z" fill="#FAFBFE" stroke="#C2DAF0"/>
<path d="M720.989 180.113C723.437 180.113 725.31 178.241 725.31 175.792C725.31 173.344 723.437 171.471 720.989 171.471C718.54 171.471 716.668 173.344 716.668 175.792C716.668 178.241 718.54 180.113 720.989 180.113Z" fill="#FAFBFE" stroke="#C2DAF0"/>
<path d="M720.989 87.9349C723.437 87.9349 725.31 86.0625 725.31 83.6139C725.31 81.1654 723.437 79.293 720.989 79.293C718.54 79.293 716.668 81.1654 716.668 83.6139C716.668 86.0625 718.54 87.9349 720.989 87.9349Z" fill="#FAFBFE" stroke="#C2DAF0"/>
<path d="M813.161 0.075592L813.161 720.228" stroke="#C2DAF0"/>
<path d="M813.163 548.831C815.612 548.831 817.484 546.959 817.484 544.511C817.484 542.062 815.612 540.19 813.163 540.19C810.715 540.19 808.843 542.062 808.843 544.511C808.843 546.959 810.715 548.831 813.163 548.831Z" fill="#FAFBFE" stroke="#C2DAF0"/>
<path d="M813.163 641.008C815.612 641.008 817.484 639.136 817.484 636.687C817.484 634.239 815.612 632.366 813.163 632.366C810.715 632.366 808.843 634.239 808.843 636.687C808.843 639.136 810.715 641.008 813.163 641.008Z" fill="#FAFBFE" stroke="#C2DAF0"/>
<path d="M813.163 180.113C815.612 180.113 817.484 178.241 817.484 175.792C817.484 173.344 815.612 171.471 813.163 171.471C810.715 171.471 808.843 173.344 808.843 175.792C808.843 178.241 810.715 180.113 813.163 180.113Z" fill="#FAFBFE" stroke="#C2DAF0"/>
<path d="M813.163 87.9349C815.612 87.9349 817.484 86.0625 817.484 83.6139C817.484 81.1654 815.612 79.293 813.163 79.293C810.715 79.293 808.843 81.1654 808.843 83.6139C808.843 86.0625 810.715 87.9349 813.163 87.9349Z" fill="#FAFBFE" stroke="#C2DAF0"/>
<path d="M905.336 0.075592L905.336 720.228" stroke="#C2DAF0"/>
<path d="M905.338 272.29C907.787 272.29 909.659 270.417 909.659 267.969C909.659 265.52 907.787 263.648 905.338 263.648C902.89 263.648 901.017 265.52 901.017 267.969C901.017 270.417 902.89 272.29 905.338 272.29Z" fill="#FAFBFE" stroke="#C2DAF0"/>
<path d="M905.338 364.473C907.787 364.473 909.659 362.601 909.659 360.152C909.659 357.704 907.787 355.831 905.338 355.831C902.89 355.831 901.017 357.704 901.017 360.152C901.017 362.601 902.89 364.473 905.338 364.473Z" fill="#FAFBFE" stroke="#C2DAF0"/>
<path d="M905.338 456.65C907.787 456.65 909.659 454.777 909.659 452.329C909.659 449.88 907.787 448.008 905.338 448.008C902.89 448.008 901.017 449.88 901.017 452.329C901.017 454.777 902.89 456.65 905.338 456.65Z" fill="#FAFBFE" stroke="#C2DAF0"/>
<path d="M905.338 548.831C907.787 548.831 909.659 546.959 909.659 544.511C909.659 542.062 907.787 540.19 905.338 540.19C902.89 540.19 901.017 542.062 901.017 544.511C901.017 546.959 902.89 548.831 905.338 548.831Z" fill="#FAFBFE" stroke="#C2DAF0"/>
<path d="M905.338 641.008C907.787 641.008 909.659 639.136 909.659 636.687C909.659 634.239 907.787 632.366 905.338 632.366C902.89 632.366 901.017 634.239 901.017 636.687C901.017 639.136 902.89 641.008 905.338 641.008Z" fill="#FAFBFE" stroke="#C2DAF0"/>
<path d="M905.338 180.113C907.787 180.113 909.659 178.241 909.659 175.792C909.659 173.344 907.787 171.471 905.338 171.471C902.89 171.471 901.017 173.344 901.017 175.792C901.017 178.241 902.89 180.113 905.338 180.113Z" fill="#FAFBFE" stroke="#C2DAF0"/>
<path d="M905.338 87.9349C907.787 87.9349 909.659 86.0625 909.659 83.6139C909.659 81.1654 907.787 79.293 905.338 79.293C902.89 79.293 901.017 81.1654 901.017 83.6139C901.017 86.0625 902.89 87.9349 905.338 87.9349Z" fill="#FAFBFE" stroke="#C2DAF0"/>
<path d="M997.511 0.075592L997.511 720.228" stroke="#C2DAF0"/>
<path d="M997.534 272.29C999.983 272.29 1001.85 270.417 1001.85 267.969C1001.85 265.52 999.983 263.648 997.534 263.648C995.086 263.648 993.213 265.52 993.213 267.969C993.213 270.417 995.086 272.29 997.534 272.29Z" fill="#FAFBFE" stroke="#C2DAF0"/>
<path d="M997.534 364.473C999.983 364.473 1001.85 362.601 1001.85 360.152C1001.85 357.704 999.983 355.831 997.534 355.831C995.086 355.831 993.213 357.704 993.213 360.152C993.213 362.601 995.086 364.473 997.534 364.473Z" fill="#FAFBFE" stroke="#C2DAF0"/>
<path d="M997.534 456.65C999.983 456.65 1001.85 454.777 1001.85 452.329C1001.85 449.88 999.983 448.008 997.534 448.008C995.086 448.008 993.213 449.88 993.213 452.329C993.213 454.777 995.086 456.65 997.534 456.65Z" fill="#FAFBFE" stroke="#C2DAF0"/>
<path d="M997.534 548.831C999.983 548.831 1001.85 546.959 1001.85 544.511C1001.85 542.062 999.983 540.19 997.534 540.19C995.086 540.19 993.213 542.062 993.213 544.511C993.213 546.959 995.086 548.831 997.534 548.831Z" fill="#FAFBFE" stroke="#C2DAF0"/>
<path d="M997.534 641.008C999.983 641.008 1001.85 639.136 1001.85 636.687C1001.85 634.239 999.983 632.366 997.534 632.366C995.086 632.366 993.213 634.239 993.213 636.687C993.213 639.136 995.086 641.008 997.534 641.008Z" fill="#FAFBFE" stroke="#C2DAF0"/>
<path d="M997.534 180.113C999.983 180.113 1001.85 178.241 1001.85 175.792C1001.85 173.344 999.983 171.471 997.534 171.471C995.086 171.471 993.213 173.344 993.213 175.792C993.213 178.241 995.086 180.113 997.534 180.113Z" fill="#FAFBFE" stroke="#C2DAF0"/>
<path d="M997.534 87.9349C999.983 87.9349 1001.85 86.0625 1001.85 83.6139C1001.85 81.1654 999.983 79.293 997.534 79.293C995.086 79.293 993.213 81.1654 993.213 83.6139C993.213 86.0625 995.086 87.9349 997.534 87.9349Z" fill="#FAFBFE" stroke="#C2DAF0"/>
<path d="M1089.71 0.075592L1089.71 720.228" stroke="#C2DAF0"/>
<path d="M1089.71 272.29C1092.16 272.29 1094.03 270.417 1094.03 267.969C1094.03 265.52 1092.16 263.648 1089.71 263.648C1087.26 263.648 1085.39 265.52 1085.39 267.969C1085.39 270.417 1087.26 272.29 1089.71 272.29Z" fill="#FAFBFE" stroke="#C2DAF0"/>
<path d="M1089.71 364.473C1092.16 364.473 1094.03 362.601 1094.03 360.152C1094.03 357.704 1092.16 355.831 1089.71 355.831C1087.26 355.831 1085.39 357.704 1085.39 360.152C1085.39 362.601 1087.26 364.473 1089.71 364.473Z" fill="#FAFBFE" stroke="#C2DAF0"/>
<path d="M1089.71 456.65C1092.16 456.65 1094.03 454.777 1094.03 452.329C1094.03 449.88 1092.16 448.008 1089.71 448.008C1087.26 448.008 1085.39 449.88 1085.39 452.329C1085.39 454.777 1087.26 456.65 1089.71 456.65Z" fill="#FAFBFE" stroke="#C2DAF0"/>
<path d="M1089.71 548.831C1092.16 548.831 1094.03 546.959 1094.03 544.511C1094.03 542.062 1092.16 540.19 1089.71 540.19C1087.26 540.19 1085.39 542.062 1085.39 544.511C1085.39 546.959 1087.26 548.831 1089.71 548.831Z" fill="#FAFBFE" stroke="#C2DAF0"/>
<path d="M1089.71 641.008C1092.16 641.008 1094.03 639.136 1094.03 636.687C1094.03 634.239 1092.16 632.366 1089.71 632.366C1087.26 632.366 1085.39 634.239 1085.39 636.687C1085.39 639.136 1087.26 641.008 1089.71 641.008Z" fill="#FAFBFE" stroke="#C2DAF0"/>
<path d="M1089.71 180.113C1092.16 180.113 1094.03 178.241 1094.03 175.792C1094.03 173.344 1092.16 171.471 1089.71 171.471C1087.26 171.471 1085.39 173.344 1085.39 175.792C1085.39 178.241 1087.26 180.113 1089.71 180.113Z" fill="#FAFBFE" stroke="#C2DAF0"/>
<path d="M1089.71 87.9349C1092.16 87.9349 1094.03 86.0625 1094.03 83.6139C1094.03 81.1654 1092.16 79.293 1089.71 79.293C1087.26 79.293 1085.39 81.1654 1085.39 83.6139C1085.39 86.0625 1087.26 87.9349 1089.71 87.9349Z" fill="#FAFBFE" stroke="#C2DAF0"/>
<path d="M1181.88 0.075592L1181.88 720.228" stroke="#C2DAF0"/>
<path d="M1181.88 272.29C1184.33 272.29 1186.21 270.417 1186.21 267.969C1186.21 265.52 1184.33 263.648 1181.88 263.648C1179.44 263.648 1177.56 265.52 1177.56 267.969C1177.56 270.417 1179.44 272.29 1181.88 272.29Z" fill="#FAFBFE" stroke="#C2DAF0"/>
<path d="M1181.88 364.473C1184.33 364.473 1186.21 362.601 1186.21 360.152C1186.21 357.704 1184.33 355.831 1181.88 355.831C1179.44 355.831 1177.56 357.704 1177.56 360.152C1177.56 362.601 1179.44 364.473 1181.88 364.473Z" fill="#FAFBFE" stroke="#C2DAF0"/>
<path d="M1181.88 456.65C1184.33 456.65 1186.21 454.777 1186.21 452.329C1186.21 449.88 1184.33 448.008 1181.88 448.008C1179.44 448.008 1177.56 449.88 1177.56 452.329C1177.56 454.777 1179.44 456.65 1181.88 456.65Z" fill="#FAFBFE" stroke="#C2DAF0"/>
<path d="M1181.88 548.831C1184.33 548.831 1186.21 546.959 1186.21 544.511C1186.21 542.062 1184.33 540.19 1181.88 540.19C1179.44 540.19 1177.56 542.062 1177.56 544.511C1177.56 546.959 1179.44 548.831 1181.88 548.831Z" fill="#FAFBFE" stroke="#C2DAF0"/>
<path d="M1181.88 641.008C1184.33 641.008 1186.21 639.136 1186.21 636.687C1186.21 634.239 1184.33 632.366 1181.88 632.366C1179.44 632.366 1177.56 634.239 1177.56 636.687C1177.56 639.136 1179.44 641.008 1181.88 641.008Z" fill="#FAFBFE" stroke="#C2DAF0"/>
<path d="M1181.88 180.113C1184.33 180.113 1186.21 178.241 1186.21 175.792C1186.21 173.344 1184.33 171.471 1181.88 171.471C1179.44 171.471 1177.56 173.344 1177.56 175.792C1177.56 178.241 1179.44 180.113 1181.88 180.113Z" fill="#FAFBFE" stroke="#C2DAF0"/>
<path d="M1181.88 87.9349C1184.33 87.9349 1186.21 86.0625 1186.21 83.6139C1186.21 81.1654 1184.33 79.293 1181.88 79.293C1179.44 79.293 1177.56 81.1654 1177.56 83.6139C1177.56 86.0625 1179.44 87.9349 1181.88 87.9349Z" fill="#FAFBFE" stroke="#C2DAF0"/>
<path d="M1274.06 0.075592L1274.06 720.228" stroke="#C2DAF0"/>
<path d="M1274.06 272.29C1276.51 272.29 1278.38 270.417 1278.38 267.969C1278.38 265.52 1276.51 263.648 1274.06 263.648C1271.61 263.648 1269.74 265.52 1269.74 267.969C1269.74 270.417 1271.61 272.29 1274.06 272.29Z" fill="#FAFBFE" stroke="#C2DAF0"/>
<path d="M1274.06 364.473C1276.51 364.473 1278.38 362.601 1278.38 360.152C1278.38 357.704 1276.51 355.831 1274.06 355.831C1271.61 355.831 1269.74 357.704 1269.74 360.152C1269.74 362.601 1271.61 364.473 1274.06 364.473Z" fill="#FAFBFE" stroke="#C2DAF0"/>
<path d="M1274.06 456.65C1276.51 456.65 1278.38 454.777 1278.38 452.329C1278.38 449.88 1276.51 448.008 1274.06 448.008C1271.61 448.008 1269.74 449.88 1269.74 452.329C1269.74 454.777 1271.61 456.65 1274.06 456.65Z" fill="#FAFBFE" stroke="#C2DAF0"/>
<path d="M1274.06 548.831C1276.51 548.831 1278.38 546.959 1278.38 544.511C1278.38 542.062 1276.51 540.19 1274.06 540.19C1271.61 540.19 1269.74 542.062 1269.74 544.511C1269.74 546.959 1271.61 548.831 1274.06 548.831Z" fill="#FAFBFE" stroke="#C2DAF0"/>
<path d="M1274.06 641.008C1276.51 641.008 1278.38 639.136 1278.38 636.687C1278.38 634.239 1276.51 632.366 1274.06 632.366C1271.61 632.366 1269.74 634.239 1269.74 636.687C1269.74 639.136 1271.61 641.008 1274.06 641.008Z" fill="#FAFBFE" stroke="#C2DAF0"/>
<path d="M1274.06 180.113C1276.51 180.113 1278.38 178.241 1278.38 175.792C1278.38 173.344 1276.51 171.471 1274.06 171.471C1271.61 171.471 1269.74 173.344 1269.74 175.792C1269.74 178.241 1271.61 180.113 1274.06 180.113Z" fill="#FAFBFE" stroke="#C2DAF0"/>
<path d="M1274.06 87.9349C1276.51 87.9349 1278.38 86.0625 1278.38 83.6139C1278.38 81.1654 1276.51 79.293 1274.06 79.293C1271.61 79.293 1269.74 81.1654 1269.74 83.6139C1269.74 86.0625 1271.61 87.9349 1274.06 87.9349Z" fill="#FAFBFE" stroke="#C2DAF0"/>
<path d="M1366.25 0.075592L1366.25 720.228" stroke="#C2DAF0"/>
<path d="M1366.25 272.29C1368.7 272.29 1370.58 270.417 1370.58 267.969C1370.58 265.52 1368.7 263.648 1366.25 263.648C1363.81 263.648 1361.93 265.52 1361.93 267.969C1361.93 270.417 1363.81 272.29 1366.25 272.29Z" fill="#FAFBFE" stroke="#C2DAF0"/>
<path d="M1366.25 364.473C1368.7 364.473 1370.58 362.601 1370.58 360.152C1370.58 357.704 1368.7 355.831 1366.25 355.831C1363.81 355.831 1361.93 357.704 1361.93 360.152C1361.93 362.601 1363.81 364.473 1366.25 364.473Z" fill="#FAFBFE" stroke="#C2DAF0"/>
<path d="M1366.25 456.65C1368.7 456.65 1370.58 454.777 1370.58 452.329C1370.58 449.88 1368.7 448.008 1366.25 448.008C1363.81 448.008 1361.93 449.88 1361.93 452.329C1361.93 454.777 1363.81 456.65 1366.25 456.65Z" fill="#FAFBFE" stroke="#C2DAF0"/>
<path d="M1366.25 548.831C1368.7 548.831 1370.58 546.959 1370.58 544.511C1370.58 542.062 1368.7 540.19 1366.25 540.19C1363.81 540.19 1361.93 542.062 1361.93 544.511C1361.93 546.959 1363.81 548.831 1366.25 548.831Z" fill="#FAFBFE" stroke="#C2DAF0"/>
<path d="M1366.25 641.008C1368.7 641.008 1370.58 639.136 1370.58 636.687C1370.58 634.239 1368.7 632.366 1366.25 632.366C1363.81 632.366 1361.93 634.239 1361.93 636.687C1361.93 639.136 1363.81 641.008 1366.25 641.008Z" fill="#FAFBFE" stroke="#C2DAF0"/>
<path d="M1366.25 180.113C1368.7 180.113 1370.58 178.241 1370.58 175.792C1370.58 173.344 1368.7 171.471 1366.25 171.471C1363.81 171.471 1361.93 173.344 1361.93 175.792C1361.93 178.241 1363.81 180.113 1366.25 180.113Z" fill="#FAFBFE" stroke="#C2DAF0"/>
<path d="M1366.25 87.9349C1368.7 87.9349 1370.58 86.0625 1370.58 83.6139C1370.58 81.1654 1368.7 79.293 1366.25 79.293C1363.81 79.293 1361.93 81.1654 1361.93 83.6139C1361.93 86.0625 1363.81 87.9349 1366.25 87.9349Z" fill="#FAFBFE" stroke="#C2DAF0"/>
<path d="M628.811 0.075592L628.812 720.228" stroke="#C2DAF0"/>
<path d="M628.814 548.831C631.262 548.831 633.134 546.959 633.134 544.511C633.134 542.062 631.262 540.19 628.814 540.19C626.365 540.19 624.493 542.062 624.493 544.511C624.493 546.959 626.365 548.831 628.814 548.831Z" fill="#FAFBFE" stroke="#C2DAF0"/>
<path d="M628.814 641.008C631.262 641.008 633.134 639.136 633.134 636.687C633.134 634.239 631.262 632.366 628.814 632.366C626.365 632.366 624.493 634.239 624.493 636.687C624.493 639.136 626.365 641.008 628.814 641.008Z" fill="#FAFBFE" stroke="#C2DAF0"/>
<path d="M628.814 180.113C631.262 180.113 633.134 178.241 633.134 175.792C633.134 173.344 631.262 171.471 628.814 171.471C626.365 171.471 624.493 173.344 624.493 175.792C624.493 178.241 626.365 180.113 628.814 180.113Z" fill="#FAFBFE" stroke="#C2DAF0"/>
<path d="M628.814 87.9349C631.262 87.9349 633.134 86.0625 633.134 83.6139C633.134 81.1654 631.262 79.293 628.814 79.293C626.365 79.293 624.493 81.1654 624.493 83.6139C624.493 86.0625 626.365 87.9349 628.814 87.9349Z" fill="#FAFBFE" stroke="#C2DAF0"/>
<path d="M536.616 0.075592L536.616 720.228" stroke="#C2DAF0"/>
<path d="M536.639 272.29C539.087 272.29 540.96 270.417 540.96 267.969C540.96 265.52 539.087 263.648 536.639 263.648C534.19 263.648 532.318 265.52 532.318 267.969C532.318 270.417 534.19 272.29 536.639 272.29Z" fill="#FAFBFE" stroke="#C2DAF0"/>
<path d="M536.639 364.473C539.087 364.473 540.96 362.601 540.96 360.152C540.96 357.704 539.087 355.831 536.639 355.831C534.19 355.831 532.318 357.704 532.318 360.152C532.318 362.601 534.19 364.473 536.639 364.473Z" fill="#FAFBFE" stroke="#C2DAF0"/>
<path d="M536.639 456.65C539.087 456.65 540.96 454.777 540.96 452.329C540.96 449.88 539.087 448.008 536.639 448.008C534.19 448.008 532.318 449.88 532.318 452.329C532.318 454.777 534.19 456.65 536.639 456.65Z" fill="#FAFBFE" stroke="#C2DAF0"/>
<path d="M536.639 548.831C539.087 548.831 540.96 546.959 540.96 544.511C540.96 542.062 539.087 540.19 536.639 540.19C534.19 540.19 532.318 542.062 532.318 544.511C532.318 546.959 534.19 548.831 536.639 548.831Z" fill="#FAFBFE" stroke="#C2DAF0"/>
<path d="M536.639 641.008C539.087 641.008 540.96 639.136 540.96 636.687C540.96 634.239 539.087 632.366 536.639 632.366C534.19 632.366 532.318 634.239 532.318 636.687C532.318 639.136 534.19 641.008 536.639 641.008Z" fill="#FAFBFE" stroke="#C2DAF0"/>
<path d="M536.639 180.113C539.087 180.113 540.96 178.241 540.96 175.792C540.96 173.344 539.087 171.471 536.639 171.471C534.19 171.471 532.318 173.344 532.318 175.792C532.318 178.241 534.19 180.113 536.639 180.113Z" fill="#FAFBFE" stroke="#C2DAF0"/>
<path d="M536.639 87.9349C539.087 87.9349 540.96 86.0625 540.96 83.6139C540.96 81.1654 539.087 79.293 536.639 79.293C534.19 79.293 532.318 81.1654 532.318 83.6139C532.318 86.0625 534.19 87.9349 536.639 87.9349Z" fill="#FAFBFE" stroke="#C2DAF0"/>
<path d="M444.441 0.075592L444.441 720.228" stroke="#C2DAF0"/>
<path d="M444.443 272.29C446.891 272.29 448.764 270.417 448.764 267.969C448.764 265.52 446.891 263.648 444.443 263.648C441.994 263.648 440.122 265.52 440.122 267.969C440.122 270.417 441.994 272.29 444.443 272.29Z" fill="#FAFBFE" stroke="#C2DAF0"/>
<path d="M444.443 364.473C446.891 364.473 448.764 362.601 448.764 360.152C448.764 357.704 446.891 355.831 444.443 355.831C441.994 355.831 440.122 357.704 440.122 360.152C440.122 362.601 441.994 364.473 444.443 364.473Z" fill="#FAFBFE" stroke="#C2DAF0"/>
<path d="M444.443 456.65C446.891 456.65 448.764 454.777 448.764 452.329C448.764 449.88 446.891 448.008 444.443 448.008C441.994 448.008 440.122 449.88 440.122 452.329C440.122 454.777 441.994 456.65 444.443 456.65Z" fill="#FAFBFE" stroke="#C2DAF0"/>
<path d="M444.443 548.831C446.891 548.831 448.764 546.959 448.764 544.511C448.764 542.062 446.891 540.19 444.443 540.19C441.994 540.19 440.122 542.062 440.122 544.511C440.122 546.959 441.994 548.831 444.443 548.831Z" fill="#FAFBFE" stroke="#C2DAF0"/>
<path d="M444.443 641.008C446.891 641.008 448.764 639.136 448.764 636.687C448.764 634.239 446.891 632.366 444.443 632.366C441.994 632.366 440.122 634.239 440.122 636.687C440.122 639.136 441.994 641.008 444.443 641.008Z" fill="#FAFBFE" stroke="#C2DAF0"/>
<path d="M444.443 180.113C446.891 180.113 448.764 178.241 448.764 175.792C448.764 173.344 446.891 171.471 444.443 171.471C441.994 171.471 440.122 173.344 440.122 175.792C440.122 178.241 441.994 180.113 444.443 180.113Z" fill="#FAFBFE" stroke="#C2DAF0"/>
<path d="M444.443 87.9349C446.891 87.9349 448.764 86.0625 448.764 83.6139C448.764 81.1654 446.891 79.293 444.443 79.293C441.994 79.293 440.122 81.1654 440.122 83.6139C440.122 86.0625 441.994 87.9349 444.443 87.9349Z" fill="#FAFBFE" stroke="#C2DAF0"/>
<path d="M352.266 0.075592L352.266 720.228" stroke="#C2DAF0"/>
<path d="M352.268 272.29C354.717 272.29 356.589 270.417 356.589 267.969C356.589 265.52 354.717 263.648 352.268 263.648C349.82 263.648 347.947 265.52 347.947 267.969C347.947 270.417 349.82 272.29 352.268 272.29Z" fill="#FAFBFE" stroke="#C2DAF0"/>
<path d="M352.268 364.473C354.717 364.473 356.589 362.601 356.589 360.152C356.589 357.704 354.717 355.831 352.268 355.831C349.82 355.831 347.947 357.704 347.947 360.152C347.947 362.601 349.82 364.473 352.268 364.473Z" fill="#FAFBFE" stroke="#C2DAF0"/>
<path d="M352.268 456.65C354.717 456.65 356.589 454.777 356.589 452.329C356.589 449.88 354.717 448.008 352.268 448.008C349.82 448.008 347.947 449.88 347.947 452.329C347.947 454.777 349.82 456.65 352.268 456.65Z" fill="#FAFBFE" stroke="#C2DAF0"/>
<path d="M352.268 548.831C354.717 548.831 356.589 546.959 356.589 544.511C356.589 542.062 354.717 540.19 352.268 540.19C349.82 540.19 347.947 542.062 347.947 544.511C347.947 546.959 349.82 548.831 352.268 548.831Z" fill="#FAFBFE" stroke="#C2DAF0"/>
<path d="M352.268 641.008C354.717 641.008 356.589 639.136 356.589 636.687C356.589 634.239 354.717 632.366 352.268 632.366C349.82 632.366 347.947 634.239 347.947 636.687C347.947 639.136 349.82 641.008 352.268 641.008Z" fill="#FAFBFE" stroke="#C2DAF0"/>
<path d="M352.268 180.113C354.717 180.113 356.589 178.241 356.589 175.792C356.589 173.344 354.717 171.471 352.268 171.471C349.82 171.471 347.947 173.344 347.947 175.792C347.947 178.241 349.82 180.113 352.268 180.113Z" fill="#FAFBFE" stroke="#C2DAF0"/>
<path d="M352.268 87.9349C354.717 87.9349 356.589 86.0625 356.589 83.6139C356.589 81.1654 354.717 79.293 352.268 79.293C349.82 79.293 347.947 81.1654 347.947 83.6139C347.947 86.0625 349.82 87.9349 352.268 87.9349Z" fill="#FAFBFE" stroke="#C2DAF0"/>
<path d="M260.091 0.075592L260.091 720.228" stroke="#C2DAF0"/>
<path d="M260.093 272.29C262.542 272.29 264.414 270.417 264.414 267.969C264.414 265.52 262.542 263.648 260.093 263.648C257.645 263.648 255.772 265.52 255.772 267.969C255.772 270.417 257.645 272.29 260.093 272.29Z" fill="#FAFBFE" stroke="#C2DAF0"/>
<path d="M260.093 364.473C262.542 364.473 264.414 362.601 264.414 360.152C264.414 357.704 262.542 355.831 260.093 355.831C257.645 355.831 255.772 357.704 255.772 360.152C255.772 362.601 257.645 364.473 260.093 364.473Z" fill="#FAFBFE" stroke="#C2DAF0"/>
<path d="M260.093 456.65C262.542 456.65 264.414 454.777 264.414 452.329C264.414 449.88 262.542 448.008 260.093 448.008C257.645 448.008 255.772 449.88 255.772 452.329C255.772 454.777 257.645 456.65 260.093 456.65Z" fill="#FAFBFE" stroke="#C2DAF0"/>
<path d="M260.093 548.831C262.542 548.831 264.414 546.959 264.414 544.511C264.414 542.062 262.542 540.19 260.093 540.19C257.645 540.19 255.772 542.062 255.772 544.511C255.772 546.959 257.645 548.831 260.093 548.831Z" fill="#FAFBFE" stroke="#C2DAF0"/>
<path d="M260.093 641.008C262.542 641.008 264.414 639.136 264.414 636.687C264.414 634.239 262.542 632.366 260.093 632.366C257.645 632.366 255.772 634.239 255.772 636.687C255.772 639.136 257.645 641.008 260.093 641.008Z" fill="#FAFBFE" stroke="#C2DAF0"/>
<path d="M260.093 180.113C262.542 180.113 264.414 178.241 264.414 175.792C264.414 173.344 262.542 171.471 260.093 171.471C257.645 171.471 255.772 173.344 255.772 175.792C255.772 178.241 257.645 180.113 260.093 180.113Z" fill="#FAFBFE" stroke="#C2DAF0"/>
<path d="M260.093 87.9349C262.542 87.9349 264.414 86.0625 264.414 83.6139C264.414 81.1654 262.542 79.293 260.093 79.293C257.645 79.293 255.772 81.1654 255.772 83.6139C255.772 86.0625 257.645 87.9349 260.093 87.9349Z" fill="#FAFBFE" stroke="#C2DAF0"/>
<path d="M167.895 0.075592L167.896 720.228" stroke="#C2DAF0"/>
<path d="M167.918 272.29C170.367 272.29 172.239 270.417 172.239 267.969C172.239 265.52 170.367 263.648 167.918 263.648C165.47 263.648 163.598 265.52 163.598 267.969C163.598 270.417 165.47 272.29 167.918 272.29Z" fill="#FAFBFE" stroke="#C2DAF0"/>
<path d="M167.918 364.473C170.367 364.473 172.239 362.601 172.239 360.152C172.239 357.704 170.367 355.831 167.918 355.831C165.47 355.831 163.598 357.704 163.598 360.152C163.598 362.601 165.47 364.473 167.918 364.473Z" fill="#FAFBFE" stroke="#C2DAF0"/>
<path d="M167.918 456.65C170.367 456.65 172.239 454.777 172.239 452.329C172.239 449.88 170.367 448.008 167.918 448.008C165.47 448.008 163.598 449.88 163.598 452.329C163.598 454.777 165.47 456.65 167.918 456.65Z" fill="#FAFBFE" stroke="#C2DAF0"/>
<path d="M167.918 548.831C170.367 548.831 172.239 546.959 172.239 544.511C172.239 542.062 170.367 540.19 167.918 540.19C165.47 540.19 163.598 542.062 163.598 544.511C163.598 546.959 165.47 548.831 167.918 548.831Z" fill="#FAFBFE" stroke="#C2DAF0"/>
<path d="M167.918 641.008C170.367 641.008 172.239 639.136 172.239 636.687C172.239 634.239 170.367 632.366 167.918 632.366C165.47 632.366 163.598 634.239 163.598 636.687C163.598 639.136 165.47 641.008 167.918 641.008Z" fill="#FAFBFE" stroke="#C2DAF0"/>
<path d="M167.918 180.113C170.367 180.113 172.239 178.241 172.239 175.792C172.239 173.344 170.367 171.471 167.918 171.471C165.47 171.471 163.598 173.344 163.598 175.792C163.598 178.241 165.47 180.113 167.918 180.113Z" fill="#FAFBFE" stroke="#C2DAF0"/>
<path d="M167.918 87.9349C170.367 87.9349 172.239 86.0625 172.239 83.6139C172.239 81.1654 170.367 79.293 167.918 79.293C165.47 79.293 163.598 81.1654 163.598 83.6139C163.598 86.0625 165.47 87.9349 167.918 87.9349Z" fill="#FAFBFE" stroke="#C2DAF0"/>
<path d="M75.7413 0.075592L75.7413 720.228" stroke="#C2DAF0"/>
<path d="M75.7228 272.29C78.1713 272.29 80.0437 270.417 80.0437 267.969C80.0437 265.52 78.1713 263.648 75.7228 263.648C73.2743 263.648 71.4019 265.52 71.4019 267.969C71.4019 270.417 73.2743 272.29 75.7228 272.29Z" fill="#FAFBFE" stroke="#C2DAF0"/>
<path d="M75.7228 364.473C78.1713 364.473 80.0437 362.601 80.0437 360.152C80.0437 357.704 78.1713 355.831 75.7228 355.831C73.2743 355.831 71.4019 357.704 71.4019 360.152C71.4019 362.601 73.2743 364.473 75.7228 364.473Z" fill="#FAFBFE" stroke="#C2DAF0"/>
<path d="M75.7228 456.65C78.1713 456.65 80.0437 454.777 80.0437 452.329C80.0437 449.88 78.1713 448.008 75.7228 448.008C73.2743 448.008 71.4019 449.88 71.4019 452.329C71.4019 454.777 73.2743 456.65 75.7228 456.65Z" fill="#FAFBFE" stroke="#C2DAF0"/>
<path d="M75.7228 548.831C78.1713 548.831 80.0437 546.959 80.0437 544.511C80.0437 542.062 78.1713 540.19 75.7228 540.19C73.2743 540.19 71.4019 542.062 71.4019 544.511C71.4019 546.959 73.2743 548.831 75.7228 548.831Z" fill="#FAFBFE" stroke="#C2DAF0"/>
<path d="M75.7228 641.008C78.1713 641.008 80.0437 639.136 80.0437 636.687C80.0437 634.239 78.1713 632.366 75.7228 632.366C73.2743 632.366 71.4019 634.239 71.4019 636.687C71.4019 639.136 73.2743 641.008 75.7228 641.008Z" fill="#FAFBFE" stroke="#C2DAF0"/>
<path d="M75.7228 180.113C78.1713 180.113 80.0437 178.241 80.0437 175.792C80.0437 173.344 78.1713 171.471 75.7228 171.471C73.2743 171.471 71.4019 173.344 71.4019 175.792C71.4019 178.241 73.2743 180.113 75.7228 180.113Z" fill="#FAFBFE" stroke="#C2DAF0"/>
<path d="M75.7228 87.9349C78.1713 87.9349 80.0437 86.0625 80.0437 83.6139C80.0437 81.1654 78.1713 79.293 75.7228 79.293C73.2743 79.293 71.4019 81.1654 71.4019 83.6139C71.4019 86.0625 73.2743 87.9349 75.7228 87.9349Z" fill="#FAFBFE" stroke="#C2DAF0"/>
<path d="M720.87 272.226C723.318 272.226 725.191 270.353 725.191 267.905C725.191 265.456 723.318 263.584 720.87 263.584C718.421 263.584 716.549 265.456 716.549 267.905C716.549 270.353 718.421 272.226 720.87 272.226Z" fill="#FAFBFE" stroke="#C2DAF0"/>
<path d="M720.989 456.65C723.437 456.65 725.31 454.777 725.31 452.329C725.31 449.88 723.437 448.008 720.989 448.008C718.54 448.008 716.668 449.88 716.668 452.329C716.668 454.777 718.54 456.65 720.989 456.65Z" fill="#FAFBFE" stroke="#C2DAF0"/>
<path d="M813.163 272.29C815.612 272.29 817.484 270.417 817.484 267.969C817.484 265.52 815.612 263.648 813.163 263.648C810.715 263.648 808.843 265.52 808.843 267.969C808.843 270.417 810.715 272.29 813.163 272.29Z" fill="#FAFBFE" stroke="#C2DAF0"/>
<path d="M813.163 364.473C815.612 364.473 817.484 362.601 817.484 360.152C817.484 357.704 815.612 355.831 813.163 355.831C810.715 355.831 808.843 357.704 808.843 360.152C808.843 362.601 810.715 364.473 813.163 364.473Z" fill="#FAFBFE" stroke="#C2DAF0"/>
<path d="M813.163 456.65C815.612 456.65 817.484 454.777 817.484 452.329C817.484 449.88 815.612 448.008 813.163 448.008C810.715 448.008 808.843 449.88 808.843 452.329C808.843 454.777 810.715 456.65 813.163 456.65Z" fill="#FAFBFE" stroke="#C2DAF0"/>
<path d="M628.814 272.29C631.262 272.29 633.134 270.417 633.134 267.969C633.134 265.52 631.262 263.648 628.814 263.648C626.365 263.648 624.493 265.52 624.493 267.969C624.493 270.417 626.365 272.29 628.814 272.29Z" fill="#FAFBFE" stroke="#C2DAF0"/>
<path d="M628.814 364.473C631.262 364.473 633.134 362.601 633.134 360.152C633.134 357.704 631.262 355.831 628.814 355.831C626.365 355.831 624.493 357.704 624.493 360.152C624.493 362.601 626.365 364.473 628.814 364.473Z" fill="#FAFBFE" stroke="#C2DAF0"/>
<path d="M720.87 364.411C723.318 364.411 725.191 362.539 725.191 360.09C725.191 357.642 723.318 355.769 720.87 355.769C718.421 355.769 716.549 357.642 716.549 360.09C716.549 362.539 718.421 364.411 720.87 364.411Z" fill="#FAFBFE" stroke="#C2DAF0"/>
<path d="M628.814 456.65C631.262 456.65 633.134 454.777 633.134 452.329C633.134 449.88 631.262 448.008 628.814 448.008C626.365 448.008 624.493 449.88 624.493 452.329C624.493 454.777 626.365 456.65 628.814 456.65Z" fill="#FAFBFE" stroke="#C2DAF0"/>
</svg>
