<svg width="109" height="32" viewBox="0 0 109 32" fill="none" xmlns="http://www.w3.org/2000/svg">
<path d="M30.6725 20.1227V11.5289H32.9431V14.7284H35.5039V11.5289H37.7741V20.1227H35.5039V16.7116H32.9431V20.1227H30.6725ZM41.4918 20.2813C40.7702 20.2813 40.2466 20.0389 39.9211 19.5542C39.5953 19.0605 39.4328 18.4039 39.4328 17.5842V13.5122H41.7029V17.2934C41.7029 17.7165 41.7557 17.9984 41.8613 18.1394C41.9756 18.2805 42.1431 18.351 42.363 18.351C42.5741 18.351 42.7501 18.307 42.8912 18.2189C43.0319 18.1307 43.1727 17.9808 43.3134 17.7693V13.5122H45.5839V20.1227H43.7356L43.5773 19.2501H43.5245C43.2606 19.5674 42.9658 19.8186 42.6403 20.0037C42.3233 20.1888 41.9408 20.2813 41.4918 20.2813ZM49.5191 22.8463C49.0174 22.8463 48.5554 22.789 48.1328 22.6744C47.7106 22.5686 47.3717 22.3967 47.1166 22.1587C46.8703 21.9208 46.7472 21.6034 46.7472 21.2068C46.7472 20.6868 47.0551 20.2637 47.6712 19.9376V19.8846C47.5023 19.7597 47.3552 19.6079 47.2356 19.4352C47.1209 19.2501 47.0639 19.0209 47.0639 18.7477C47.0639 18.5185 47.13 18.2937 47.2619 18.0734C47.4027 17.853 47.5832 17.6636 47.8031 17.5049V17.452C47.5652 17.2934 47.3541 17.0686 47.1694 16.7777C46.9935 16.478 46.9055 16.1386 46.9055 15.7597C46.9055 15.2132 47.0375 14.7638 47.3014 14.4112C47.574 14.0497 47.9263 13.7854 48.3573 13.6179C48.7887 13.4417 49.2461 13.3534 49.7302 13.3534C50.1173 13.3534 50.4695 13.4063 50.7862 13.5122H53.2414V15.1515H52.291C52.3174 15.2309 52.3393 15.3323 52.3568 15.4556C52.3832 15.579 52.3966 15.7068 52.3966 15.839C52.3966 16.3591 52.2777 16.7822 52.0402 17.1083C51.8027 17.4255 51.4814 17.6592 51.0764 17.809C50.6718 17.9589 50.2228 18.0338 49.7302 18.0338C49.5103 18.0338 49.2637 18.0029 48.991 17.9411C48.8854 18.0381 48.8326 18.1659 48.8326 18.3245C48.8326 18.4656 48.903 18.5669 49.0438 18.6287C49.1933 18.6904 49.4311 18.7212 49.7566 18.7212H50.7467C51.5736 18.7212 52.2119 18.8579 52.6605 19.1311C53.1183 19.3955 53.347 19.8317 53.347 20.4399C53.347 20.9159 53.1886 21.3346 52.872 21.696C52.5637 22.0573 52.1239 22.3394 51.5518 22.5421C50.9797 22.7449 50.302 22.8463 49.5191 22.8463ZM49.7302 16.6852C49.9413 16.6852 50.113 16.6103 50.245 16.4604C50.3769 16.3106 50.4431 16.077 50.4431 15.7597C50.4431 15.4512 50.3769 15.2264 50.245 15.0854C50.113 14.9356 49.9413 14.8607 49.7302 14.8607C49.5191 14.8607 49.3474 14.9356 49.2155 15.0854C49.0832 15.2264 49.0174 15.4512 49.0174 15.7597C49.0174 16.077 49.0832 16.3106 49.2155 16.4604C49.3474 16.6103 49.5191 16.6852 49.7302 16.6852ZM49.8886 21.4448C50.258 21.4448 50.5662 21.3875 50.8125 21.2729C51.0588 21.1671 51.182 21.0217 51.182 20.8366C51.182 20.6604 51.1028 20.5501 50.9445 20.5061C50.7949 20.462 50.5793 20.4399 50.2978 20.4399H49.783C49.5191 20.4399 49.3164 20.4312 49.1757 20.4135C49.0438 20.4048 48.9294 20.3871 48.8326 20.3607C48.6743 20.5193 48.5951 20.678 48.5951 20.8366C48.5951 21.0481 48.7137 21.2024 48.9512 21.2994C49.1979 21.3963 49.5103 21.4448 49.8886 21.4448ZM56.7248 22.8463C56.2231 22.8463 55.7611 22.789 55.3388 22.6744C54.9163 22.5686 54.5774 22.3967 54.3223 22.1587C54.076 21.9208 53.9529 21.6034 53.9529 21.2068C53.9529 20.6868 54.2608 20.2637 54.8769 19.9376V19.8846C54.708 19.7597 54.5609 19.6079 54.4413 19.4352C54.3269 19.2501 54.2695 19.0209 54.2695 18.7477C54.2695 18.5185 54.3357 18.2937 54.4676 18.0734C54.6084 17.853 54.7889 17.6636 55.0088 17.5049V17.452C54.7713 17.2934 54.5598 17.0686 54.3751 16.7777C54.1992 16.478 54.1112 16.1386 54.1112 15.7597C54.1112 15.2132 54.2432 14.7638 54.5071 14.4112C54.7801 14.0497 55.132 13.7854 55.5633 13.6179C55.9944 13.4417 56.4518 13.3534 56.9359 13.3534C57.3233 13.3534 57.6752 13.4063 57.9919 13.5122H60.4471V15.1515H59.4968C59.5231 15.2309 59.545 15.3323 59.5629 15.4556C59.5889 15.579 59.6023 15.7068 59.6023 15.839C59.6023 16.3591 59.4834 16.7822 59.2459 17.1083C59.0084 17.4255 58.6871 17.6592 58.2825 17.809C57.8775 17.9589 57.4289 18.0338 56.9359 18.0338C56.716 18.0338 56.4697 18.0029 56.1967 17.9411C56.0911 18.0381 56.0383 18.1659 56.0383 18.3245C56.0383 18.4656 56.1087 18.5669 56.2495 18.6287C56.3993 18.6904 56.6368 18.7212 56.9623 18.7212H57.9524C58.7797 18.7212 59.4176 18.8579 59.8662 19.1311C60.324 19.3955 60.5527 19.8317 60.5527 20.4399C60.5527 20.9159 60.3943 21.3346 60.0777 21.696C59.7694 22.0573 59.3296 22.3394 58.7575 22.5421C58.1857 22.7449 57.508 22.8463 56.7248 22.8463ZM56.9359 16.6852C57.147 16.6852 57.3187 16.6103 57.4507 16.4604C57.5826 16.3106 57.6488 16.077 57.6488 15.7597C57.6488 15.4512 57.5826 15.2264 57.4507 15.0854C57.3187 14.9356 57.147 14.8607 56.9359 14.8607C56.7248 14.8607 56.5531 14.9356 56.4212 15.0854C56.2892 15.2264 56.2231 15.4512 56.2231 15.7597C56.2231 16.077 56.2892 16.3106 56.4212 16.4604C56.5531 16.6103 56.7248 16.6852 56.9359 16.6852ZM57.0943 21.4448C57.4641 21.4448 57.7719 21.3875 58.0182 21.2729C58.2649 21.1671 58.388 21.0217 58.388 20.8366C58.388 20.6604 58.3089 20.5501 58.1502 20.5061C58.001 20.462 57.785 20.4399 57.5035 20.4399H56.9887C56.7248 20.4399 56.5225 20.4312 56.3814 20.4135C56.2495 20.4048 56.1351 20.3871 56.0383 20.3607C55.88 20.5193 55.8008 20.678 55.8008 20.8366C55.8008 21.0481 55.9198 21.2024 56.1573 21.2994C56.4036 21.3963 56.716 21.4448 57.0943 21.4448ZM61.5284 20.1227V13.5122H63.7986V20.1227H61.5284ZM62.6635 12.6924C62.294 12.6924 61.9946 12.5911 61.7659 12.3884C61.5368 12.1768 61.4225 11.8991 61.4225 11.5554C61.4225 11.2117 61.5368 10.9384 61.7659 10.7357C61.9946 10.5241 62.294 10.4184 62.6635 10.4184C63.0329 10.4184 63.3324 10.5241 63.5611 10.7357C63.7898 10.9384 63.9041 11.2117 63.9041 11.5554C63.9041 11.8991 63.7898 12.1768 63.5611 12.3884C63.3324 12.5911 63.0329 12.6924 62.6635 12.6924ZM65.3309 20.1227V13.5122H67.1789L67.3372 14.3053H67.39C67.6539 14.0497 67.9533 13.8294 68.2876 13.6443C68.631 13.4504 69.0268 13.3534 69.4758 13.3534C70.2059 13.3534 70.7295 13.6003 71.0465 14.0939C71.372 14.5787 71.5349 15.2309 71.5349 16.0505V20.1227H69.2643V16.3415C69.2643 15.9184 69.2115 15.6363 69.106 15.4953C69.0004 15.3542 68.8333 15.2837 68.6042 15.2837C68.3935 15.2837 68.2172 15.3278 68.0765 15.416C67.9357 15.5041 67.7774 15.6276 67.6014 15.7862V20.1227H65.3309ZM75.4159 22.8463C74.9145 22.8463 74.4525 22.789 74.0299 22.6744C73.6077 22.5686 73.2688 22.3967 73.0137 22.1587C72.7671 21.9208 72.6443 21.6034 72.6443 21.2068C72.6443 20.6868 72.9521 20.2637 73.5679 19.9376V19.8846C73.3994 19.7597 73.2523 19.6079 73.1323 19.4352C73.0179 19.2501 72.9609 19.0209 72.9609 18.7477C72.9609 18.5185 73.0267 18.2937 73.1587 18.0734C73.2998 17.853 73.4799 17.6636 73.7002 17.5049V17.452C73.4623 17.2934 73.2512 17.0686 73.0665 16.7777C72.8906 16.478 72.8026 16.1386 72.8026 15.7597C72.8026 15.2132 72.9346 14.7638 73.1984 14.4112C73.4711 14.0497 73.8233 13.7854 74.2544 13.6179C74.6857 13.4417 75.1432 13.3534 75.6273 13.3534C76.0144 13.3534 76.3666 13.4063 76.6832 13.5122H79.1382V15.1515H78.1878C78.2142 15.2309 78.2364 15.3323 78.2539 15.4556C78.2803 15.579 78.2937 15.7068 78.2937 15.839C78.2937 16.3591 78.1748 16.7822 77.9373 17.1083C77.6998 17.4255 77.3785 17.6592 76.9735 17.809C76.5689 17.9589 76.1199 18.0338 75.6273 18.0338C75.4071 18.0338 75.1608 18.0029 74.8881 17.9411C74.7825 18.0381 74.7297 18.1659 74.7297 18.3245C74.7297 18.4656 74.8001 18.5669 74.9408 18.6287C75.0904 18.6904 75.3279 18.7212 75.6537 18.7212H76.6435C77.4707 18.7212 78.109 18.8579 78.5576 19.1311C79.0154 19.3955 79.2441 19.8317 79.2441 20.4399C79.2441 20.9159 79.0857 21.3346 78.7687 21.696C78.4608 22.0573 78.021 22.3394 77.4489 22.5421C76.8768 22.7449 76.1991 22.8463 75.4159 22.8463ZM75.6273 16.6852C75.8384 16.6852 76.0101 16.6103 76.1421 16.4604C76.274 16.3106 76.3398 16.077 76.3398 15.7597C76.3398 15.4512 76.274 15.2264 76.1421 15.0854C76.0101 14.9356 75.8384 14.8607 75.6273 14.8607C75.4159 14.8607 75.2445 14.9356 75.1126 15.0854C74.9803 15.2264 74.9145 15.4512 74.9145 15.7597C74.9145 16.077 74.9803 16.3106 75.1126 16.4604C75.2445 16.6103 75.4159 16.6852 75.6273 16.6852ZM75.7857 21.4448C76.1551 21.4448 76.4633 21.3875 76.7096 21.2729C76.9559 21.1671 77.0791 21.0217 77.0791 20.8366C77.0791 20.6604 76.9999 20.5501 76.8416 20.5061C76.692 20.462 76.4764 20.4399 76.1949 20.4399H75.6801C75.4159 20.4399 75.2135 20.4312 75.0728 20.4135C74.9408 20.4048 74.8265 20.3871 74.7297 20.3607C74.571 20.5193 74.4919 20.678 74.4919 20.8366C74.4919 21.0481 74.6108 21.2024 74.8483 21.2994C75.0946 21.3963 75.4071 21.4448 75.7857 21.4448ZM83.047 20.1227V11.5289H88.6436V13.4328H85.3171V15.0722H88.1682V16.976H85.3171V20.1227H83.047ZM91.1263 20.2813C90.7129 20.2813 90.3565 20.1888 90.057 20.0037C89.7717 19.815 89.5394 19.5554 89.3839 19.2501C89.2256 18.9416 89.1464 18.6066 89.1464 18.2453C89.1464 17.5577 89.4279 17.0202 89.9912 16.6323C90.5542 16.2356 91.4697 15.9713 92.7368 15.839C92.684 15.3807 92.3758 15.1515 91.8128 15.1515C91.5753 15.1515 91.3244 15.2 91.0605 15.2969C90.7963 15.3851 90.493 15.5217 90.1496 15.7068L89.3575 14.2261C89.8241 13.944 90.2949 13.7281 90.7699 13.5782C91.253 13.4285 91.7558 13.3527 92.2614 13.3534C93.1238 13.3534 93.7973 13.6003 94.2811 14.0939C94.7652 14.5787 95.007 15.3631 95.007 16.4472V20.1227H93.1593L93.0007 19.488H92.9479C92.684 19.726 92.4021 19.92 92.1031 20.0697C91.8128 20.2108 91.4873 20.2813 91.1263 20.2813ZM91.9183 18.5361C92.1031 18.5361 92.2572 18.4964 92.3803 18.4172C92.5035 18.3291 92.6224 18.2188 92.7368 18.0867V17.1876C92.1998 17.2669 91.8262 17.3859 91.6147 17.5445C91.4124 17.7033 91.311 17.8751 91.311 18.0602C91.311 18.3775 91.5137 18.5361 91.9183 18.5361ZM99.4706 20.2813C98.8457 20.2813 98.2824 20.1446 97.781 19.8714C97.2793 19.5982 96.8788 19.206 96.5798 18.6947C96.2891 18.1748 96.1442 17.549 96.1442 16.8174C96.1442 16.0858 96.3071 15.4644 96.6325 14.9532C96.9668 14.4331 97.4024 14.0366 97.9393 13.7633C98.4759 13.4901 99.0568 13.3534 99.6817 13.3534C100.078 13.3534 100.434 13.4152 100.751 13.5385C101.077 13.662 101.363 13.8294 101.609 14.041L100.553 15.4953C100.412 15.3719 100.284 15.2882 100.17 15.2442C100.056 15.2001 99.9354 15.1777 99.8137 15.178C99.3911 15.178 99.0614 15.3278 98.8236 15.6276C98.5861 15.9184 98.4671 16.315 98.4671 16.8174C98.4671 17.3199 98.5906 17.7208 98.8369 18.0205C99.0832 18.3113 99.3823 18.4568 99.7345 18.4568C99.9192 18.4568 100.1 18.4172 100.276 18.3378C100.456 18.2523 100.628 18.1505 100.79 18.0338L101.662 19.5145C101.336 19.8054 100.975 20.0081 100.579 20.1227C100.183 20.2284 99.8137 20.2813 99.4706 20.2813ZM105.376 20.2813C104.734 20.2813 104.153 20.1446 103.634 19.8714C103.123 19.5982 102.719 19.206 102.419 18.6947C102.12 18.1748 101.971 17.549 101.971 16.8174C101.971 16.1035 102.12 15.4909 102.419 14.9797C102.727 14.4596 103.123 14.0586 103.607 13.7765C104.091 13.4944 104.602 13.3534 105.139 13.3534C105.79 13.3534 106.327 13.499 106.749 13.7897C107.18 14.0718 107.497 14.4552 107.699 14.94C107.911 15.4247 108.016 15.9624 108.016 16.553C108.016 16.7468 108.003 16.9364 107.976 17.1215C107.959 17.2978 107.941 17.4255 107.924 17.5049H104.162C104.267 17.9016 104.456 18.1792 104.729 18.3378C105.002 18.4877 105.323 18.5626 105.693 18.5626C106.115 18.5626 106.564 18.4304 107.039 18.1659L107.779 19.5145C107.426 19.7612 107.031 19.9508 106.59 20.083C106.151 20.2151 105.746 20.2813 105.376 20.2813ZM104.135 16.0241H106.089C106.089 15.7685 106.023 15.5482 105.891 15.3631C105.768 15.1691 105.535 15.0722 105.191 15.0722C104.945 15.0722 104.725 15.1472 104.531 15.2969C104.338 15.4468 104.206 15.6892 104.135 16.0241Z" fill="black"/>
<g clip-path="url(#clip0_135_197)">
<path d="M13.0096 16.2229C14.9614 16.2146 16.5407 14.3565 16.5408 15.5754C16.5408 16.3836 16.1539 17.6977 15.117 18.4953C15.0912 18.4067 15.0517 18.3198 15.0008 18.2366C14.8476 17.986 14.5966 17.7647 14.3494 17.5989C14.1438 17.4609 13.9402 17.3618 13.7967 17.3166C13.7102 17.2894 13.6455 17.2817 13.6151 17.2971C13.3843 17.4137 13.3965 17.7354 13.0096 18.0198C12.9615 17.9844 12.9196 17.9484 12.8826 17.9123C12.697 17.731 12.636 17.5469 12.5428 17.4192C12.5055 17.3681 12.4628 17.3262 12.4051 17.2971C12.3848 17.2869 12.3495 17.287 12.3026 17.2961C11.9741 17.3601 11.0837 17.8741 10.9031 18.4963C9.86611 17.6987 9.47931 16.3837 9.47931 15.5754C9.4794 14.3567 11.0582 16.2144 13.0096 16.2229Z" fill="#0E1116"/>
<path d="M19.3038 13.8803C19.7867 13.8803 20.1782 13.4882 20.1782 13.0045C20.1782 12.5208 19.7867 12.1287 19.3038 12.1287C18.8209 12.1287 18.4294 12.5208 18.4294 13.0045C18.4294 13.4882 18.8209 13.8803 19.3038 13.8803Z" fill="black"/>
<path d="M6.70224 13.8803C7.18517 13.8803 7.57664 13.4882 7.57664 13.0045C7.57664 12.5208 7.18517 12.1287 6.70224 12.1287C6.21932 12.1287 5.82785 12.5208 5.82785 13.0045C5.82785 13.4882 6.21932 13.8803 6.70224 13.8803Z" fill="black"/>
<path d="M16.2208 12.6231C16.5673 12.7453 16.7051 13.4568 17.0551 13.2709C17.7179 12.9188 17.9696 12.0966 17.6171 11.4345C17.2647 10.7723 16.4416 10.5209 15.7788 10.873C15.116 11.2251 14.8643 12.0473 15.2168 12.7094C15.3831 13.022 15.9111 12.5138 16.2208 12.6231Z" fill="#0E1116"/>
<path d="M9.81685 12.6231C9.47038 12.7453 9.33254 13.4568 8.98257 13.2709C8.31973 12.9188 8.06811 12.0966 8.42054 11.4345C8.77298 10.7723 9.59599 10.5209 10.2588 10.873C10.9217 11.2251 11.1733 12.0473 10.8209 12.7094C10.6545 13.022 10.1265 12.5138 9.81685 12.6231Z" fill="#0E1116"/>
<path d="M12.9767 4.70985C18.8 4.70985 23.5216 9.40977 23.5216 15.2069C23.5216 16.3047 23.3475 17.3613 23.0323 18.3554C23.0543 18.3544 23.0761 18.3534 23.0977 18.3534C23.5172 18.3534 23.8963 18.513 24.1642 18.8036C24.5085 19.1767 24.6614 19.6359 24.5948 20.0946C24.5632 20.313 24.4896 20.5091 24.38 20.6903C24.611 20.8764 24.7811 21.1355 24.8634 21.4472C24.9278 21.6915 24.9942 22.2004 24.6495 22.7245C24.6714 22.7587 24.6918 22.7946 24.711 22.8309C24.9182 23.2226 24.931 23.665 24.7481 24.077C24.4707 24.7016 23.7819 25.1943 22.4434 25.7225C21.6142 26.0498 20.8549 26.259 20.8419 26.2626C19.7409 26.5468 18.7449 26.6913 17.8829 26.6913C16.4738 26.6913 15.4221 26.3082 14.7472 25.5536C14.1715 25.6509 13.58 25.704 12.9767 25.704C12.3591 25.704 11.7544 25.6485 11.1661 25.5468C10.4914 26.3055 9.4384 26.6913 8.02548 26.6913C7.16348 26.6913 6.16748 26.5468 5.06649 26.2626C5.05249 26.2587 4.29368 26.0496 3.46493 25.7225C2.12649 25.1943 1.4377 24.7016 1.16024 24.077C0.977332 23.665 0.990187 23.2226 1.19735 22.8309C1.21655 22.7946 1.23699 22.7587 1.25888 22.7245C0.914169 22.2004 0.98061 21.6915 1.04501 21.4472C1.12727 21.1355 1.29736 20.8764 1.52841 20.6903C1.41884 20.5091 1.34525 20.313 1.31357 20.0946C1.24699 19.6359 1.39997 19.1767 1.74423 18.8036C2.01215 18.513 2.39123 18.3534 2.81064 18.3534C2.84716 18.3534 2.88435 18.3545 2.92196 18.3573C2.60693 17.3626 2.43271 16.3052 2.43271 15.2069C2.43271 9.41001 7.15363 4.71025 12.9767 4.70985ZM4.79892 17.997C4.50851 17.997 4.35116 18.2554 4.44345 18.7645C4.57977 19.5157 6.99279 21.3358 6.75985 21.7304C6.7161 21.8041 6.65115 21.8338 6.57528 21.8339C6.24425 21.8339 5.69638 21.2675 5.69638 21.2675C5.66829 21.2421 3.66284 19.4308 2.81064 19.4306C2.6989 19.4306 2.60702 19.4625 2.54208 19.5331C1.97811 20.1445 2.98799 20.6188 4.40146 21.4706C5.81489 22.3221 5.90668 22.5849 5.70614 22.9071C5.69419 22.9259 5.67217 22.9345 5.64169 22.9345C5.2407 22.9337 3.33153 21.4452 2.48056 21.4452C2.28368 21.445 2.14357 21.5244 2.09189 21.7206C1.79877 22.8307 5.29062 23.0776 5.06649 23.8808C5.03399 23.9969 4.95029 24.0837 4.83798 24.0839C4.3343 24.0839 3.16181 23.1298 2.51767 23.1298C2.35848 23.1299 2.23215 23.1878 2.15536 23.3329C1.69969 24.1943 5.28406 25.1387 5.33603 25.1522C5.92984 25.3056 6.9919 25.4872 8.02548 25.4872C8.66735 25.4872 9.29864 25.4453 9.80282 25.2186C9.80166 25.2183 9.80008 25.218 9.79892 25.2177C10.0856 25.0714 10.3334 24.8729 10.5186 24.6054C10.5807 24.5157 10.6347 24.426 10.6856 24.3397C10.6881 24.3403 10.691 24.3401 10.6934 24.3407C11.2263 23.4014 11.0955 22.6471 10.172 21.7284C9.15777 20.7195 8.5645 19.2473 8.55575 19.2255C8.55575 19.2255 8.35259 18.4367 7.89267 18.4364C7.87153 18.4364 7.84941 18.4378 7.82724 18.4413C7.32119 18.5208 6.94932 19.8108 8.00888 20.6005C8.7139 21.1253 8.38813 21.539 7.97079 21.539C7.76071 21.5388 7.52731 21.4334 7.39071 21.1854C6.98283 20.4441 5.86841 18.5382 5.2911 18.1737C5.10522 18.0563 4.93693 17.997 4.79892 17.997ZM21.1095 17.997C20.9714 17.997 20.8032 18.0563 20.6173 18.1737C20.04 18.5382 18.9255 20.4441 18.5177 21.1854C18.3811 21.4334 18.1477 21.5388 17.9376 21.539C17.5202 21.539 17.1945 21.1253 17.8995 20.6005C18.9591 19.8108 18.5872 18.5208 18.0811 18.4413C18.0589 18.4378 18.0368 18.4364 18.0157 18.4364C17.5558 18.4367 17.3526 19.2255 17.3526 19.2255C17.3436 19.248 16.7503 20.7198 15.7364 21.7284C14.8097 22.6502 14.6807 23.4068 15.2198 24.3505C15.2217 24.35 15.2238 24.35 15.2257 24.3495C15.2752 24.4329 15.3298 24.5188 15.3897 24.6054C15.5785 24.8779 15.8315 25.0795 16.1251 25.2265H16.1222C16.6235 25.4466 17.2481 25.4872 17.8829 25.4872C18.9165 25.4872 19.9785 25.3056 20.5724 25.1522C20.6244 25.1387 24.2087 24.1943 23.753 23.3329C23.6761 23.1877 23.5492 23.1298 23.3897 23.1298C22.7455 23.1303 21.574 24.0839 21.0704 24.0839C20.9581 24.0837 20.8744 23.9969 20.8419 23.8808C20.6177 23.0776 24.1096 22.8307 23.8165 21.7206C23.7648 21.5243 23.6247 21.445 23.4278 21.4452C22.5768 21.4452 20.6675 22.9338 20.2667 22.9345C20.2362 22.9345 20.2142 22.9259 20.2022 22.9071C20.0017 22.5849 20.0935 22.3221 21.5069 21.4706C22.9204 20.6188 23.9303 20.1445 23.3663 19.5331C23.3014 19.4625 23.2095 19.4306 23.0977 19.4306C22.2456 19.4308 20.2401 21.242 20.212 21.2675C20.212 21.2675 19.6641 21.8339 19.3331 21.8339C19.2572 21.8338 19.1923 21.8041 19.1485 21.7304C18.9156 21.3358 21.3286 19.5157 21.4649 18.7645C21.5572 18.2554 21.3999 17.997 21.1095 17.997ZM12.9767 5.79384C7.75475 5.79423 3.52157 10.0084 3.52157 15.2069C3.52158 15.943 3.60692 16.6593 3.76767 17.3466C4.03564 17.0712 4.39727 16.9198 4.79892 16.9198C5.14964 16.9198 5.51015 17.0357 5.87118 17.2636C6.11071 17.415 6.37597 17.6831 6.64853 18.0204C6.90095 17.672 7.25406 17.4402 7.65829 17.3768C7.73549 17.3647 7.81413 17.3583 7.89169 17.3583C8.81484 17.3583 9.37113 18.1558 9.58114 18.8729C9.68563 19.1157 10.1855 20.2187 10.9376 20.9667C12.0849 22.108 12.3682 23.2841 11.7979 24.5458C12.1841 24.5941 12.5774 24.62 12.9767 24.62C13.3609 24.62 13.7402 24.5966 14.1124 24.5517C13.5388 23.2878 13.8218 22.1097 14.9708 20.9667C15.7228 20.2187 16.2227 19.1157 16.3272 18.8729C16.5372 18.1558 17.0935 17.3583 18.0167 17.3583C18.0942 17.3583 18.1728 17.3647 18.2501 17.3768C18.6543 17.4402 19.0074 17.672 19.2599 18.0204C19.5324 17.6831 19.7977 17.415 20.0372 17.2636C20.3982 17.0357 20.7587 16.9198 21.1095 16.9198C21.5294 16.9198 21.9048 17.0859 22.1759 17.3856C22.3426 16.6862 22.4327 15.9571 22.4327 15.2069C22.4327 10.0082 18.1989 5.79384 12.9767 5.79384Z" fill="black"/>
</g>
<defs>
<clipPath id="clip0_135_197">
<rect width="25.7174" height="23.8526" fill="white" transform="translate(0.118591 3.78287)"/>
</clipPath>
</defs>
</svg>
