<svg width="72" height="82" fill="none" xmlns="http://www.w3.org/2000/svg"><path fill-rule="evenodd" clip-rule="evenodd" d="M0 7.2A7.2 7.2 0 0 1 7.2 0h57.6A7.2 7.2 0 0 1 72 7.2v65.6a7.2 7.2 0 0 1-7.2 7.2H7.2A7.2 7.2 0 0 1 0 72.8V7.2zm35.5 15.379c6.019 0 11.117-.89 12.856-2.12.029 2.181.724 3.338 1.395 4.453.636 1.056 1.249 2.075 1.249 3.894v31.138h-.35c.23.274.35.559.35.85 0 2.211-6.94 4.004-15.5 4.004-8.56 0-15.5-1.793-15.5-4.004 0-.291.12-.576.35-.85H20V28.806c0-1.528.576-2.486 1.19-3.508.68-1.131 1.408-2.34 1.454-4.49.002-.072.002-.194.002-.349 1.74 1.23 6.838 2.12 12.854 2.12zm11.215-5.72c-2.239-.911-6.423-1.525-11.215-1.525s-8.976.614-11.215 1.526h1.14c-1.014.342-1.596.741-1.596 1.167 0 1.276 5.225 2.311 11.67 2.311 6.446 0 11.671-1.035 11.671-2.311 0-.426-.581-.825-1.596-1.167h1.14z" fill="#5EA4E3" filter="url(#filter0_d)"/><defs><filter id="filter0_d" x="0" y="0" width="72" height="82" filterUnits="userSpaceOnUse" color-interpolation-filters="sRGB"><feFlood flood-opacity="0" result="BackgroundImageFix"/><feColorMatrix in="SourceAlpha" values="0 0 0 0 0 0 0 0 0 0 0 0 0 0 0 0 0 0 127 0"/><feOffset dy="2"/><feColorMatrix values="0 0 0 0 1 0 0 0 0 1 0 0 0 0 1 0 0 0 0.7 0"/><feBlend in2="BackgroundImageFix" result="effect1_dropShadow"/><feBlend in="SourceGraphic" in2="effect1_dropShadow" result="shape"/></filter></defs></svg>