<svg xmlns="http://www.w3.org/2000/svg" width="93" height="32" fill="none"><path fill="#000000" d="m17.752 23.768-.66.834 1.493 2.324L18.429 28h6.332l.438-1.074-2.547-3.158h-4.9ZM21.215 9.63l-2.29 3.993 11.17 13.17L29.778 28h5.124l.927-4.284L23.875 9.627l-2.66.002Z"/><path fill="#000000" d="m22.736 6.627-1.09 1.998h2.703l4.637 5.498 2.758-2.255v-1.433l-.958-1.34.708-.734L25.962 4l-3.226 2.627ZM14.42 17.757h-1.51l-3.978 5.03V28H13.2l.754-.976 3.291-4.247h4.763l1.466-2.238-5.163-6.106-3.89 3.324Z"/><path fill="#000000" fill-rule="evenodd" d="M55.205 20.432h3.715v-5.676h-3.715v5.676Zm.13 2.27c-1.034 0-1.571-.167-2.014-.627-.664-.666-.922-1.59-.922-4.459 0-2.867.258-3.793.922-4.477.426-.444.98-.611 2.014-.611h3.455c1.035 0 1.572.167 2.014.611.665.684.923 1.59.923 4.477 0 2.887-.258 3.793-.923 4.459-.443.463-.98.628-2.014.628h-3.455ZM70.13 15.735V22.7h2.826v-7.189c0-1.492-.166-2.027-.592-2.433-.388-.387-.944-.562-1.813-.562l-2.484.007-1.425 1.282v-1.282h-2.816v10.175h2.825v-7.947h3.475v.98l.004.004ZM47.978 9.724h3.365l-4.832 6.099 5.036 6.877h-3.569l-3.83-5.402-.91-.005V22.7H40.21V9.724h3.03v5.03h.908l3.831-5.03ZM81.628 12.525v1.282l-1.424-1.282-2.12-.007c-1.016 0-1.612.175-2.073.616-.61.626-.907 1.995-.907 4.501 0 2.507.242 3.82.83 4.428.462.442 1.011.638 2.102.638h3.585l.005 1.456-4.976.01.004.596 1.285 1.421h3.89c1.035 0 1.626-.184 1.996-.57.46-.48.645-.777.645-2.526v-10.56h-2.844l.002-.003Zm.02 7.896h-3.716v-5.667h3.713v5.667h.002Z" clip-rule="evenodd"/></svg>
