<svg width="17" height="16" viewBox="0 0 17 16" fill="none" xmlns="http://www.w3.org/2000/svg">
<path d="M7.78488 7.75H8.28488V7.25V3C8.28488 2.87476 8.39314 2.75 8.55572 2.75C8.71829 2.75 8.82655 2.87476 8.82655 3V7.25V7.75H9.32655H13.6946C13.8572 7.75 13.9654 7.87476 13.9654 8C13.9654 8.12524 13.8572 8.25 13.6946 8.25H9.32655H8.82655V8.75V13C8.82655 13.1252 8.71829 13.25 8.55572 13.25C8.39315 13.25 8.28488 13.1252 8.28488 13V8.75V8.25H7.78488H3.41683C3.25425 8.25 3.146 8.12524 3.146 8C3.146 7.87476 3.25425 7.75 3.41683 7.75H7.78488Z" fill="#5A6072" stroke="#5A6072"/>
</svg>
