<svg width="16" height="14" viewBox="0 0 16 14" fill="none" xmlns="http://www.w3.org/2000/svg">
<path fill-rule="evenodd" clip-rule="evenodd" d="M11.64 1.84433C13.8573 4.06162 14.0658 7.52511 12.2622 9.9657L14.74 12.4435C15.0959 12.7994 15.0959 13.3765 14.74 13.7324C14.384 14.0883 13.807 14.0883 13.451 13.7324L10.9771 11.2585C8.53498 13.0863 5.05201 12.8852 2.82554 10.6588C0.384073 8.2173 0.378051 4.26492 2.81209 1.83088C5.24614 -0.603165 9.19852 -0.597143 11.64 1.84433ZM10.3178 3.16649C12.0269 4.87552 12.0311 7.64219 10.3272 9.34602C8.62341 11.0498 5.85674 11.0456 4.14771 9.33661C2.43868 7.62758 2.43447 4.86091 4.1383 3.15708C5.84212 1.45325 8.60879 1.45746 10.3178 3.16649Z" fill="#8D93A5"/>
</svg>
