<?xml version="1.0" encoding="UTF-8"?>
<svg width="179px" height="121px" viewBox="0 0 179 121" version="1.1" xmlns="http://www.w3.org/2000/svg" xmlns:xlink="http://www.w3.org/1999/xlink">
    <!-- Generator: Sketch 60.1 (88133) - https://sketch.com -->
    <title>sql-and-notebook</title>
    <desc>Created with Sketch.</desc>
    <g id="sql-and-notebook" stroke="none" stroke-width="1" fill="none" fill-rule="evenodd">
        <g id="sql" transform="translate(65.000000, 40.000000)" fill="#FFFFFF" fill-rule="nonzero" opacity="0.600000024">
            <path d="M1.66019418,2.87092563 L1.66019418,2.87092563 L1.66019418,78.1290744 C1.66019418,78.7615451 2.15522022,79.2765957 2.76150713,79.2765957 L111.238493,79.2765957 C111.843339,79.2765957 112.339806,78.7611095 112.339806,78.1290744 L112.339806,2.87092563 C112.339806,2.23845494 111.84478,1.72340426 111.238493,1.72340426 L2.76150713,1.72340426 C2.15666038,1.72340426 1.66019418,2.23889049 1.66019418,2.87092563 L1.66019418,2.87092563 Z M0,2.87092563 C0,1.28535719 1.24142025,0 2.76150713,0 L111.238493,0 C112.763631,0 114,1.28867117 114,2.87092563 L114,78.1290744 C114,79.7146428 112.758579,81 111.238493,81 L2.76150713,81 C1.23636886,81 0,79.7113288 0,78.1290744 L0,2.87092563 L0,2.87092563 Z" id="Shape"></path>
        </g>
        <path d="M59,82 L4,82 C2.34314575,82 1,80.6568542 1,79 L1,4 C1,2.34314575 2.34314575,1 4,1 L112,1 C113.656854,1 115,2.34314575 115,4 L115,33.5 L115,33.5" id="Path-2" stroke="#FFFFFF" stroke-width="2" opacity="0.600000024"></path>
        <g id="Group-3" transform="translate(76.000000, 52.000000)">
            <rect id="Rectangle" stroke="#FFFFFF" stroke-width="2" opacity="0.600000024" x="0" y="0" width="92" height="14" rx="2"></rect>
            <rect id="Rectangle" fill="#FFFFFF" x="5" y="5" width="23" height="4" rx="2"></rect>
        </g>
        <g id="Group-2" transform="translate(76.000000, 74.000000)">
            <rect id="Rectangle-Copy-3" stroke="#FFFFFF" stroke-width="2" opacity="0.600000024" x="0" y="0" width="92" height="14" rx="2"></rect>
            <rect id="Rectangle-Copy" fill="#FFFFFF" x="5" y="5" width="13" height="4" rx="2"></rect>
            <rect id="Rectangle-Copy-2" fill="#FFFFFF" x="23" y="5" width="22" height="4" rx="2"></rect>
        </g>
        <g id="Group" transform="translate(76.000000, 96.000000)">
            <rect id="Rectangle-Copy-4" stroke="#FFFFFF" stroke-width="2" opacity="0.600000024" x="0" y="0" width="39" height="14" rx="2"></rect>
            <rect id="Rectangle-Copy-5" fill="#FFFFFF" x="5" y="5" width="19" height="4" rx="2"></rect>
        </g>
        <polygon id="Rectangle-2" fill="#FFFFFF" fill-rule="nonzero" points="14.8 34.0114734 16.9180752 31.8933983 24.4066017 39.3819248 16.9180752 46.8704514 14.8 44.7523762 20.1704514 39.3819248"></polygon>
        <polygon id="Path" fill="#FFFFFF" fill-rule="nonzero" opacity="0.600000024" points="2 18 113.9 18 113.9 20 2 20"></polygon>
    </g>
</svg>