<svg width="1120" height="340" viewBox="0 0 1120 340" fill="none" xmlns="http://www.w3.org/2000/svg">
<path d="M663.93 138.372V88C663.93 76.9543 672.884 68 683.93 68H847.869C858.915 68 867.869 76.9543 867.869 88V100.662" stroke="#8FC1ED" stroke-width="1.5" stroke-linecap="round" stroke-dasharray="8 8"/>
<rect x="781.552" y="100.569" width="157.974" height="204.28" rx="12" fill="#EEF6FC" stroke="#C2DAF0" stroke-width="1.5"/>
<rect x="792.826" y="110.979" width="135.425" height="18.3093" rx="4" fill="#8FC1ED"/>
<path d="M725.065 244.437V269.418C725.065 278.549 719.033 287.685 706.959 294.656C682.816 308.592 643.672 308.592 619.534 294.656C607.46 287.685 601.428 278.549 601.428 269.418H601.423V244.437H725.065Z" fill="#E4ECFB" stroke="#8FC1ED" stroke-width="1.5"/>
<circle cx="50.4763" cy="50.4763" r="50.4763" transform="matrix(0.866025 -0.5 0.866025 0.5 576 244.153)" fill="#C2DAF0" stroke="#8FC1ED" stroke-width="1.5"/>
<path d="M725.065 208.719V233.7C725.065 242.831 719.033 251.968 706.959 258.938C682.816 272.875 643.672 272.875 619.534 258.938C607.46 251.968 601.428 242.831 601.428 233.7H601.423V208.719H725.065Z" fill="#E4ECFB" stroke="#8FC1ED" stroke-width="1.5"/>
<circle cx="50.4763" cy="50.4763" r="50.4763" transform="matrix(0.866025 -0.5 0.866025 0.5 576 208.436)" fill="#C2DAF0" stroke="#8FC1ED" stroke-width="1.5"/>
<path d="M725.065 173.002V197.983C725.065 207.114 719.033 216.251 706.959 223.221C682.816 237.158 643.672 237.158 619.534 223.221C607.46 216.251 601.428 207.114 601.428 197.983H601.423V173.002H725.065Z" fill="#E4ECFB" stroke="#8FC1ED" stroke-width="1.5"/>
<circle cx="50.4763" cy="50.4763" r="50.4763" transform="matrix(0.866025 -0.5 0.866025 0.5 576 172.719)" fill="#C2DAF0" stroke="#8FC1ED" stroke-width="1.5"/>
<rect x="792.826" y="137.716" width="59.0466" height="8.12045" rx="4.06022" fill="#E4ECFB"/>
<rect x="860.38" y="137.716" width="67.8708" height="8.12045" rx="4.06022" fill="#E4ECFB"/>
<rect x="792.826" y="152.702" width="46.5127" height="8.12045" rx="4.06022" fill="#E4ECFB"/>
<rect x="844.454" y="152.702" width="83.7966" height="8.12045" rx="4.06022" fill="#E4ECFB"/>
<rect x="792.826" y="167.688" width="74.8843" height="8.12045" rx="4.06022" fill="#E4ECFB"/>
<rect x="874.315" y="167.688" width="53.936" height="8.12045" rx="4.06022" fill="#E4ECFB"/>
<rect x="839.339" y="182.673" width="88.9118" height="8.12045" rx="4.06022" fill="#E4ECFB"/>
<rect x="792.826" y="182.673" width="39.854" height="8.12045" rx="4.06022" fill="#E4ECFB"/>
<rect x="792.826" y="197.659" width="99.3899" height="8.12045" rx="4.06022" fill="#E4ECFB"/>
<rect x="898.483" y="197.659" width="29.7678" height="8.12045" rx="4.06022" fill="#E4ECFB"/>
<rect x="792.826" y="212.645" width="79.4141" height="8.12045" rx="4.06022" fill="#E4ECFB"/>
<rect x="878.116" y="212.645" width="50.1353" height="8.12045" rx="4.06022" fill="#E4ECFB"/>
<rect x="792.826" y="227.63" width="99.3899" height="8.12045" rx="4.06022" fill="#E4ECFB"/>
<rect x="898.483" y="227.63" width="29.7678" height="8.12045" rx="4.06022" fill="#E4ECFB"/>
<rect x="847.564" y="242.616" width="80.6865" height="8.12045" rx="4.06022" fill="#E4ECFB"/>
<rect x="792.826" y="242.616" width="46.5127" height="8.12045" rx="4.06022" fill="#E4ECFB"/>
<rect x="792.826" y="257.602" width="85.2893" height="8.12045" rx="4.06022" fill="#E4ECFB"/>
<rect x="885.949" y="257.602" width="42.3018" height="8.12045" rx="4.06022" fill="#E4ECFB"/>
<rect x="792.826" y="272.588" width="71.5803" height="8.12045" rx="4.06022" fill="#E4ECFB"/>
<rect x="872.24" y="272.588" width="34.8108" height="8.12045" rx="4.06022" fill="#E4ECFB"/>
<rect x="910.234" y="272.588" width="18.0173" height="8.12045" rx="4.06022" fill="#E4ECFB"/>
<rect x="844.454" y="287.573" width="83.7966" height="8.12045" rx="4.06022" fill="#E4ECFB"/>
<rect x="792.826" y="287.573" width="46.5127" height="8.12045" rx="4.06022" fill="#E4ECFB"/>
<path d="M913.976 119.487L914.33 119.133L913.976 118.78L911.007 115.81C910.909 115.712 910.909 115.554 911.007 115.456C911.104 115.359 911.263 115.359 911.36 115.456L914.86 118.956C914.958 119.054 914.958 119.212 914.86 119.31L911.36 122.81L911.36 122.81C911.263 122.907 911.104 122.907 911.007 122.81C910.909 122.712 910.909 122.554 911.007 122.456C911.007 122.456 911.007 122.456 911.007 122.456L913.976 119.487Z" fill="white" stroke="white"/>
<path d="M914.934 125.133C914.934 124.995 915.046 124.883 915.184 124.883H921.184C921.322 124.883 921.434 124.995 921.434 125.133C921.434 125.271 921.322 125.383 921.184 125.383H915.184C915.046 125.383 914.934 125.271 914.934 125.133Z" fill="white" stroke="white"/>
</svg>
