<svg xmlns="http://www.w3.org/2000/svg" width="114" height="32" fill="none"><path fill="#000000" d="M103.258 13.966a3.469 3.469 0 0 0-1.673.406c-.517.274-.96.675-1.291 1.166v-1.305h-2.295v8.85h2.295v-4.331c0-1.665.77-2.658 2.06-2.658 1.137 0 1.951.773 1.951 2.065v4.925h2.278v-5.42c.001-2.312-1.359-3.698-3.325-3.698ZM80.57 23.077h-2.42v-4.924c0-1.216-.767-2.065-1.866-2.065-1.371 0-2.19.993-2.19 2.658v4.331h-2.44v-8.846h2.44v1.307a3.727 3.727 0 0 1 1.371-1.166 3.875 3.875 0 0 1 1.778-.406c1.4 0 2.456.696 2.973 1.868a4.005 4.005 0 0 1 1.497-1.38 4.176 4.176 0 0 1 2.005-.488c2.022 0 3.328 1.451 3.328 3.699v5.419h-2.42V18.16c0-1.216-.766-2.065-1.866-2.065-1.37 0-2.19.993-2.19 2.657v4.325ZM30.844 17.119l-.521-.208.498-.253a2.778 2.778 0 0 0 1.392-2.443c0-1.44-1.287-2.896-3.749-2.896h-5.948v11.765h5.96c3.907 0 4.104-2.666 4.104-3.2.001-2.049-1.719-2.757-1.736-2.765Zm-5.867-3.864h2.94c.807 0 1.676.467 1.676 1.496 0 1.004-.843 1.53-1.676 1.53h-2.94v-3.026Zm3.325 7.893h-3.325v-3.026h3.325c1.09 0 1.659.769 1.659 1.53 0 .868-.698 1.498-1.659 1.498v-.002ZM42.645 18.675c-.053-2.772-1.973-4.71-4.67-4.71-2.737 0-4.802 2.025-4.802 4.708a4.706 4.706 0 0 0 1.309 3.312c.875.9 2.13 1.393 3.495 1.393 1.365 0 2.62-.495 3.496-1.393.47-.487.826-1.07 1.042-1.707h-2.212c-.453.79-1.306 1.27-2.326 1.27-1.173 0-2.12-.819-2.381-2.084l-.064-.306h7.113v-.483Zm-6.983-1.131c.141-.494.444-.93.862-1.238a2.418 2.418 0 0 1 1.451-.47c1.104 0 1.93.64 2.217 1.708h-4.53ZM64.55 18.675c-.052-2.772-1.91-4.71-4.523-4.71-2.653 0-4.654 2.025-4.654 4.708a4.794 4.794 0 0 0 1.269 3.312c.847.9 2.063 1.393 3.386 1.393 1.324 0 2.538-.495 3.386-1.393.456-.487.8-1.07 1.01-1.707h-2.146c-.438.79-1.266 1.27-2.252 1.27-1.137 0-2.055-.819-2.307-2.084l-.062-.306h6.89l.002-.483Zm-6.765-1.131c.137-.494.43-.93.835-1.238.406-.308.9-.473 1.407-.47 1.069 0 1.868.64 2.147 1.708h-4.389ZM96.815 18.675c-.052-2.772-1.91-4.71-4.524-4.71-2.653 0-4.652 2.025-4.652 4.708a4.792 4.792 0 0 0 1.267 3.312c.849.9 2.065 1.393 3.387 1.393 1.323 0 2.539-.495 3.386-1.393.456-.487.8-1.07 1.01-1.707h-2.146c-.438.79-1.265 1.27-2.253 1.27-1.137 0-2.054-.819-2.307-2.084l-.061-.306h6.893v-.483Zm-6.765-1.131c.137-.494.43-.93.835-1.238.405-.308.9-.473 1.406-.47 1.07 0 1.869.64 2.148 1.708H90.05ZM71.062 13.975c-1.506-.093-2.786.555-3.434 1.78v-1.522H65.14v8.85h2.487v-3.842c0-2.348 1.698-3.545 3.434-2.873v-2.393Z"/><path fill="#000000" d="M55.092 21.159c-.35.152-.728.232-1.11.233-1.057 0-1.64-.637-1.64-1.794v-3.545h2.854v-1.808h-2.855v-3.808l-2.382.86v2.948h-4.045v-3.808l-2.381.859v8.619c0 2.265 1.184 3.463 3.423 3.463.874 0 1.624-.14 2.285-.428l-.578-1.79c-.35.153-.728.232-1.11.233-1.056 0-1.639-.636-1.639-1.793v-3.544h4.047v3.859c0 2.265 1.184 3.463 3.425 3.463.873 0 1.622-.14 2.283-.428l-.577-1.791ZM112.822 21.158a2.716 2.716 0 0 1-1.093.232c-1.042 0-1.614-.636-1.614-1.793v-3.545h2.81v-1.808h-2.811v-3.807l-2.347.859v8.619c0 2.265 1.167 3.463 3.374 3.463.861 0 1.6-.14 2.25-.428l-.569-1.792ZM10.38 21.587l7.522 2.673c1.232-1.558 1.95-3.542 1.95-5.755 0-5.27-4.072-9.245-9.473-9.245-5.4 0-9.472 3.975-9.472 9.245 0 2.213.718 4.194 1.95 5.755l7.522-2.673Z"/></svg>
