<svg width="73" height="32" viewBox="0 0 73 32" fill="none" xmlns="http://www.w3.org/2000/svg">
<path d="M42.7167 8.21242H36.1392V8.81346C36.4077 8.83418 36.6658 8.87563 36.9239 8.92745C37.1305 8.9689 37.3163 9.0518 37.4815 9.17615C37.8739 9.50776 37.8636 10.1399 37.8636 11.2798V18.9274C37.8636 20.4819 37.9978 22.6891 35.8088 22.658C34.8691 22.6477 33.8985 21.9741 33.599 20.7409H32.8556C33.1757 22.8031 34.2702 24.2021 36.9239 24.2021H36.9343C39.1853 24.2021 41.1988 23.1658 41.1885 19.6321V11.2798C41.1885 10.1399 41.1782 9.53885 41.5705 9.19688C41.8287 8.97926 42.0352 8.87563 42.7167 8.80309V8.21242Z" fill="#000000"/>
<path d="M50.2648 8.21242H43.6873V8.81346C44.3791 8.886 44.5857 8.98962 44.8335 9.20724C45.1433 9.47667 45.2052 9.92227 45.2155 10.6684C45.2155 10.8964 45.2155 11.1451 45.2155 11.4352V20.5855C45.2155 20.8653 45.2155 21.1243 45.2155 21.3523C45.2052 22.0984 45.1536 22.544 44.8335 22.8135C44.5857 23.0311 44.3791 23.1347 43.6873 23.2072V23.8186H53.631L54.6739 20.7616H53.9098C53.1457 22.4404 51.9686 22.6373 50.8844 22.6373C50.0067 22.6373 49.4181 22.5855 49.0051 22.316C48.6747 22.0984 48.5404 21.5285 48.5404 20.5648V11.2798C48.5404 10.1399 48.5301 9.50776 48.9225 9.17615C49.1703 8.95854 49.5833 8.886 50.2752 8.81346L50.2648 8.21242Z" fill="#000000"/>
<path d="M61.2308 8.21242H54.6533V8.81346C55.3348 8.886 55.5516 8.98962 55.7994 9.20724C56.1092 9.47667 56.1711 9.92227 56.1815 10.6684C56.1815 10.8964 56.1815 11.1451 56.1815 11.4352V20.5855C56.1815 20.8653 56.1815 21.1243 56.1815 21.3523C56.1711 22.0984 56.1195 22.544 55.7994 22.8135C55.5516 23.0311 55.3451 23.1347 54.6533 23.2072V23.8186H64.597L65.6502 20.7616H64.8655C64.1013 22.4404 62.9242 22.6373 61.84 22.6373C60.9623 22.6373 60.3737 22.5855 59.9607 22.316C59.6303 22.0984 59.496 21.5285 59.496 20.5648V11.2798C59.496 10.1399 59.4857 9.50776 59.8781 9.17615C60.1259 8.95854 60.5389 8.886 61.2308 8.81346V8.21242Z" fill="#000000"/>
<path d="M17.1088 28.5026C17.4185 28.3575 17.7077 28.1917 17.9865 27.9948C18.0484 27.9534 18.1104 27.9119 18.162 27.8705C18.5131 27.6114 18.8332 27.3109 19.1326 26.9896C19.525 26.5751 19.8761 26.1192 20.1962 25.6321C20.444 25.2487 20.6712 24.8549 20.8777 24.4508C21.6728 22.8446 22.2097 21.1347 22.4678 19.3627C22.6331 18.2435 22.726 17.1243 22.7157 15.9948C22.7157 14.8653 22.6331 13.7357 22.4678 12.6269C22.2097 10.8549 21.6728 9.14507 20.8777 7.53885C20.7847 7.35233 20.6815 7.17616 20.5782 6.98963C20.1549 7.7772 19.7935 8.60621 19.5043 9.46632C20.0206 11.0311 20.3407 12.6684 20.444 14.3161C20.4853 14.8756 20.4956 15.4352 20.4956 15.9948C20.4956 16.5544 20.4853 17.114 20.444 17.6736C20.3201 19.6839 19.8761 21.6736 19.1223 23.5389C18.8228 24.2642 18.4718 24.9585 18.0587 25.6321C17.9658 25.7876 17.8729 25.9534 17.7696 26.1088C17.5631 26.4197 17.3359 26.7202 17.0984 27.0207C16.83 27.3627 16.5305 27.6839 16.2207 27.9948C15.8903 28.3161 15.5392 28.6166 15.1675 28.886C15.1365 28.9067 15.1056 28.9275 15.0746 28.9482V28.9793C15.7871 28.9689 16.4789 28.8031 17.1088 28.5026Z" fill="#000000"/>
<path d="M21.1565 28.5026C21.4663 28.3575 21.7554 28.1917 22.0342 27.9948C22.0961 27.9534 22.1478 27.9119 22.2097 27.8704C23.3868 26.9896 24.2645 25.7565 24.9254 24.4508C25.7205 22.8445 26.2574 21.1347 26.5156 19.3627C26.6808 18.2435 26.7737 17.1243 26.7634 15.9948C26.7634 14.8653 26.6808 13.7357 26.5156 12.6269C26.2574 10.8549 25.7205 9.14506 24.9254 7.53885C24.3162 6.33677 23.5108 5.19688 22.4679 4.33677C22.1374 4.69947 21.8277 5.08289 21.5385 5.47667C21.6418 5.61138 21.7347 5.75646 21.8277 5.89118C23.5004 8.37822 24.2955 11.3523 24.502 14.3264C24.5433 14.886 24.564 15.4456 24.564 16.0052C24.564 16.5648 24.5433 17.1243 24.502 17.6839C24.2955 20.6477 23.5004 23.6321 21.8277 26.1192C21.6211 26.43 21.394 26.7306 21.1565 27.0311C20.888 27.373 20.5886 27.6943 20.2788 28.0052C19.9484 28.3264 19.5973 28.6269 19.2256 28.8964L19.1326 28.9585V28.9896C19.8348 28.9689 20.5163 28.8031 21.1565 28.5026Z" fill="#000000"/>
<path d="M26.2574 27.8705C27.4345 26.9896 28.3122 25.7565 28.9731 24.4508C29.7682 22.8549 30.3051 21.1347 30.5633 19.3627C30.7285 18.2435 30.8214 17.1244 30.8111 15.9948C30.8111 14.8653 30.7285 13.7358 30.5633 12.627C30.3051 10.8549 29.7682 9.14509 28.9731 7.53887C28.3122 6.24354 27.4345 5.00001 26.2574 4.11918C25.3797 3.46633 24.2749 3.04146 23.1803 3.01038V3.04146C24.2542 3.78758 25.1526 4.81348 25.8754 5.8912C27.5481 8.37825 28.3432 11.3523 28.5497 14.3264C28.591 14.886 28.6014 15.4456 28.6117 16.0052C28.6117 16.5648 28.591 17.1244 28.5497 17.684C28.3432 20.6477 27.5481 23.6321 25.8754 26.1192C25.1526 27.1865 24.2542 28.2124 23.1803 28.9689V29C24.2749 28.9586 25.3797 28.5337 26.2574 27.8705Z" fill="#000000"/>
<path d="M21.1565 3.49742C20.8467 3.6425 20.5576 3.8083 20.2788 4.00519C20.2168 4.04665 20.1549 4.0881 20.1032 4.12955C19.7522 4.38861 19.4321 4.68913 19.1326 5.01038C18.7402 5.43525 18.3892 5.88084 18.0691 6.36789C17.8212 6.75131 17.5941 7.14509 17.3876 7.54924C16.5925 9.14509 16.0555 10.8653 15.7974 12.6373C15.6322 13.7565 15.5393 14.8757 15.5496 16.0052C15.5496 17.1347 15.6322 18.2539 15.7974 19.3731C16.0555 21.1451 16.5925 22.8653 17.3876 24.4612C17.4805 24.6477 17.5838 24.8238 17.687 25.0104C18.1104 24.2124 18.4718 23.3834 18.7506 22.5337C18.2343 20.9689 17.9142 19.3316 17.8109 17.684C17.7696 17.1244 17.7593 16.5648 17.7593 16.0052C17.7593 15.4456 17.7696 14.886 17.8109 14.3264C17.9348 12.3161 18.3788 10.3264 19.1326 8.46115C19.4321 7.73576 19.7831 7.0311 20.1962 6.36789C20.2891 6.21245 20.382 6.04665 20.4853 5.90157C20.6918 5.59069 20.919 5.29017 21.1565 4.98965C21.4249 4.64768 21.7244 4.32644 22.0342 4.01556C22.3646 3.69431 22.7157 3.3938 23.0874 3.12437C23.1184 3.10364 23.1493 3.08291 23.1803 3.06219V3.01038C22.4782 3.0311 21.7863 3.1969 21.1565 3.49742Z" fill="#000000"/>
<path d="M17.1088 3.49742C16.799 3.6425 16.5099 3.8083 16.2311 4.00519C16.1691 4.04665 16.1072 4.0881 16.0555 4.12955C14.8887 5.01038 14.0007 6.24354 13.3399 7.54924C12.5448 9.14509 12.0078 10.8653 11.7497 12.6373C11.5845 13.7565 11.4916 14.8757 11.5019 16.0052C11.5019 17.1347 11.5845 18.2539 11.7497 19.3731C12.0078 21.1451 12.5448 22.8549 13.3399 24.4612C13.9491 25.6632 14.7545 26.8031 15.7974 27.6632C16.1278 27.3005 16.4376 26.9275 16.7267 26.5337C16.6235 26.399 16.5305 26.2539 16.4376 26.1192C14.7648 23.6321 13.9697 20.658 13.7632 17.684C13.7219 17.1244 13.7013 16.5648 13.7013 16.0052C13.7013 15.4456 13.7219 14.886 13.7632 14.3264C13.9697 11.3627 14.7648 8.37825 16.4376 5.8912C16.6441 5.58032 16.8713 5.27981 17.1088 4.97929C17.3772 4.63732 17.6767 4.31608 17.9865 4.00519C18.3169 3.67359 18.668 3.37307 19.05 3.10364C19.081 3.08291 19.112 3.06219 19.143 3.04146V3.01038C18.4305 3.0311 17.749 3.1969 17.1088 3.49742Z" fill="#000000"/>
<path d="M12.0182 4.12955C10.841 5.01038 9.96333 6.24354 9.30248 7.54924C8.50739 9.14509 7.97045 10.8653 7.70198 12.627C7.53677 13.7461 7.45416 14.8757 7.45416 16.0052C7.45416 17.1347 7.53677 18.2539 7.70198 19.3731C7.97045 21.1451 8.50739 22.8549 9.30248 24.4612C9.96333 25.7669 10.841 27 12.0182 27.8808C12.8958 28.5441 13.9904 28.9689 15.0952 29V28.9689C14.0214 28.2124 13.1127 27.1865 12.4002 26.1088C10.7274 23.6218 9.93235 20.6477 9.72583 17.6736C9.68453 17.114 9.6742 16.5544 9.6742 15.9948C9.6742 15.4352 9.69486 14.8757 9.72583 14.3161C9.92202 11.3523 10.7274 8.36789 12.4002 5.88084C13.1127 4.82385 14.0214 3.79794 15.0849 3.04146V3.01038C13.9904 3.04146 12.8855 3.46633 12.0182 4.12955Z" fill="#000000"/>
<path d="M19.8451 27.6632C20.1755 27.3005 20.4853 26.9171 20.7744 26.5233C20.6712 26.3886 20.5782 26.2435 20.4853 26.1088C20.382 25.9534 20.2891 25.7979 20.1962 25.6425C19.8864 26.1295 19.525 26.5751 19.1326 27C19.3495 27.228 19.587 27.456 19.8451 27.6632Z" fill="#000000"/>
<path d="M22.0342 27.9948C21.7554 28.1917 21.4662 28.3575 21.1565 28.5026C21.7863 28.8031 22.4782 28.9689 23.1803 28.9896V28.9585C22.7673 28.6684 22.3852 28.3471 22.0342 27.9948Z" fill="#000000"/>
<path d="M18.7506 28.9689C18.8641 28.9585 18.9674 28.9378 19.081 28.9171C18.9674 28.8342 18.8641 28.7616 18.7506 28.6684C18.4821 28.4611 18.2239 28.2331 17.9865 27.9948C17.7077 28.1917 17.4185 28.3575 17.1088 28.5026C17.5321 28.6995 17.9658 28.8342 18.4201 28.9171C18.5337 28.9378 18.637 28.9585 18.7506 28.9689ZM19.1326 28.9896V28.9585C19.112 28.9482 19.1016 28.9274 19.081 28.9171C18.9777 28.9378 18.8641 28.9585 18.7506 28.9689C18.8745 28.9793 19.0087 28.9896 19.1326 28.9896Z" fill="#000000"/>
<path d="M18.4202 4.33677C18.0897 4.69947 17.78 5.08289 17.4908 5.47667C17.5941 5.61138 17.687 5.75646 17.78 5.89118C17.8832 6.04662 17.9762 6.20206 18.0691 6.3575C18.3789 5.87045 18.7403 5.42486 19.1326 4.99999C18.9158 4.77201 18.6783 4.55439 18.4202 4.33677Z" fill="#000000"/>
<path d="M16.2311 4.00519C16.5099 3.8083 16.799 3.6425 17.1088 3.49742C16.4789 3.1969 15.7871 3.0311 15.0849 3.01038V3.04146C15.4979 3.33162 15.88 3.65286 16.2311 4.00519Z" fill="#000000"/>
<path d="M21.1565 3.49741C20.7331 3.30052 20.2994 3.1658 19.8451 3.0829C19.7315 3.06218 19.6283 3.04145 19.5147 3.03109C19.3908 3.02073 19.2565 3.01036 19.1326 3V3.03109C19.1533 3.04145 19.1636 3.06218 19.1843 3.07254C19.2978 3.15544 19.4011 3.22798 19.5147 3.31088C19.7832 3.51813 20.0413 3.74611 20.2788 3.98446C20.5576 3.80829 20.8467 3.64249 21.1565 3.49741Z" fill="#000000"/>
</svg>
