<svg xmlns="http://www.w3.org/2000/svg" width="41" height="32" fill="none"><mask id="a" width="29" height="24" x="6" y="4" maskUnits="userSpaceOnUse" style="mask-type:luminance"><path fill="#fff" d="M6.74 4h27.416v24H6.74V4Z"/></mask><g mask="url(#a)"><path fill="#000000" fill-rule="evenodd" d="M26.445 4c-2.423 0-4.583 3.23-5.997 8.279-1.413-5.05-3.575-8.28-5.997-8.28C10.193 4 6.74 14.746 6.74 28h3.427c0-12.307 1.919-22.285 4.284-22.285 2.366 0 4.284 9.21 4.284 20.572h3.426c0-11.361 1.918-20.572 4.284-20.572 2.366 0 4.284 9.978 4.284 22.286h3.426c0-13.255-3.452-24-7.71-24Z" clip-rule="evenodd"/></g></svg>
