<?xml version="1.0" encoding="UTF-8"?>
<svg width="1120px" height="340px" viewBox="0 0 1120 340" version="1.1" xmlns="http://www.w3.org/2000/svg" xmlns:xlink="http://www.w3.org/1999/xlink">
    <title>Group</title>
    <g id="Page-1" stroke="none" stroke-width="1" fill="none" fill-rule="evenodd">
        <g id="Group">
            <g id="administration-desktop-category-background" transform="translate(738.885000, 170.000000) scale(-1, 1) translate(-738.885000, -170.000000) translate(515.000000, 72.000000)">
                <rect id="Rectangle" fill="#E4ECFB" fill-rule="nonzero" x="0" y="0" width="242" height="196" rx="12"></rect>
                <path d="M12,0 L230,0 C236.627417,-1.21743675e-15 242,5.372583 242,12 L242,184 C242,190.627417 236.627417,196 230,196 L12,196 C5.372583,196 4.05812251e-16,190.627417 0,184 L0,12 C-8.11624501e-16,5.372583 5.372583,2.58798134e-15 12,0 Z" id="Rectangle" stroke="#8FC1ED" stroke-width="1.5" stroke-linecap="round" stroke-dasharray="8"></path>
                <rect id="Rectangle" stroke="#509EE3" stroke-width="1.5" fill="#CBE2F7" fill-rule="nonzero" x="286.75" y="38.75" width="161.02" height="118.5" rx="7.25"></rect>
                <rect id="Rectangle" stroke="#509EE3" stroke-width="1.5" fill="#EEF6FD" fill-rule="nonzero" x="305.615" y="54.744" width="123.291" height="72.5581" rx="4"></rect>
                <path d="M353.352,95.907 L356.154,95.907 C356.154,100.845 353.217,104.279 347.748,104.279 C342.279,104.279 339.342,100.845 339.342,95.907 L342.144,95.907 C342.144,98.698 343.545,101.488 347.748,101.488 C351.951,101.488 353.352,98.698 353.352,95.907 Z" id="Path" fill="#509EE3" fill-rule="nonzero"></path>
                <ellipse id="Oval" fill="#509EE3" fill-rule="nonzero" cx="324.63" cy="82.651" rx="4.90361" ry="4.88372"></ellipse>
                <ellipse id="Oval" fill="#509EE3" fill-rule="nonzero" cx="369.464" cy="82.651" rx="4.90361" ry="4.88372"></ellipse>
                <path d="M412.744,141.256 C412.744,143.921 410.574,146.087 407.89,146.087 C405.206,146.087 403.036,143.921 403.036,141.256 C403.036,138.59 405.206,136.424 407.89,136.424 C410.574,136.424 412.744,138.59 412.744,141.256 Z" id="Path" stroke="#509EE3" stroke-width="1.5" fill="#CBE2F7" fill-rule="nonzero"></path>
                <path d="M428.155,141.256 C428.155,143.921 425.985,146.087 423.301,146.087 C420.617,146.087 418.447,143.921 418.447,141.256 C418.447,138.59 420.617,136.424 423.301,136.424 C425.985,136.424 428.155,138.59 428.155,141.256 Z" id="Path" stroke="#509EE3" stroke-width="1.5" fill="#CBE2F7" fill-rule="nonzero"></path>
                <rect id="Rectangle" fill="#EEF6FC" fill-rule="nonzero" transform="translate(76.420366, 52.420988) rotate(15.000000) translate(-76.420366, -52.420988) " x="35.8406664" y="22.1851376" width="81.1594" height="60.4717" rx="4"></rect>
                <rect id="Rectangle" fill="#E4ECFB" fill-rule="nonzero" transform="translate(77.330872, 49.024842) rotate(15.000000) translate(-77.330872, -49.024842) " x="46.5462716" y="30.7426916" width="61.5692" height="36.5643" rx="2"></rect>
                <path d="M79.735,52.217 L81.087,52.579 C80.443,54.983 78.578,56.275 75.94,55.568 C73.302,54.861 72.333,52.81 72.977,50.406 L74.328,50.769 C73.964,52.127 74.276,53.666 76.304,54.21 C78.331,54.753 79.371,53.576 79.735,52.217 Z" id="Path" fill="#8FC1ED" fill-rule="nonzero"></path>
                <ellipse id="Oval" fill="#8FC1ED" fill-rule="nonzero" transform="translate(67.609000, 42.052000) rotate(15.000000) translate(-67.609000, -42.052000) " cx="67.609" cy="42.052" rx="2.44877" ry="2.46106"></ellipse>
                <ellipse id="Oval" fill="#8FC1ED" fill-rule="nonzero" transform="translate(89.236000, 47.847000) rotate(15.000000) translate(-89.236000, -47.847000) " cx="89.236" cy="47.847" rx="2.44877" ry="2.46106"></ellipse>
                <path d="M92.598,79.322 C92.266,80.558 91.003,81.289 89.779,80.961 C88.555,80.633 87.826,79.369 88.157,78.133 C88.488,76.897 89.752,76.166 90.976,76.494 C92.2,76.822 92.929,78.086 92.598,79.322 Z" id="Path" stroke="#8FC1ED" fill="#EEF6FC" fill-rule="nonzero"></path>
                <path d="M100.031,81.314 C99.7,82.55 98.437,83.281 97.213,82.953 C95.989,82.625 95.26,81.361 95.591,80.125 C95.922,78.889 97.186,78.158 98.41,78.486 C99.634,78.814 100.363,80.078 100.031,81.314 Z" id="Path" stroke="#8FC1ED" fill="#EEF6FC" fill-rule="nonzero"></path>
                <rect id="Rectangle" fill="#C2DAF0" fill-rule="nonzero" transform="translate(69.870625, 143.579391) scale(-1, 1) rotate(14.999995) translate(-69.870625, -143.579391) " x="29.2909188" y="113.343536" width="81.1594127" height="60.4717094" rx="4"></rect>
                <rect id="Rectangle" fill="#EEF6FD" fill-rule="nonzero" transform="translate(68.961122, 140.182843) scale(-1, 1) rotate(14.999995) translate(-68.961122, -140.182843) " x="38.1765174" y="121.900691" width="61.5692096" height="36.5643057" rx="2"></rect>
                <path d="M68.137,143.189 L66.785,143.551 C67.429,145.955 69.294,147.247 71.932,146.54 C74.57,145.833 75.539,143.782 74.895,141.378 L73.543,141.741 C73.907,143.099 73.596,144.639 71.568,145.182 C69.541,145.725 68.501,144.548 68.137,143.189 Z" id="Path" fill="#8FC1ED" fill-rule="nonzero"></path>
                <ellipse id="Oval" fill="#8FC1ED" fill-rule="nonzero" transform="translate(78.681638, 133.209990) scale(-1, 1) rotate(14.999995) translate(-78.681638, -133.209990) " cx="78.6816385" cy="133.20999" rx="2.44877038" ry="2.46106038"></ellipse>
                <ellipse id="Oval" fill="#8FC1ED" fill-rule="nonzero" transform="translate(57.055638, 139.004990) scale(-1, 1) rotate(14.999995) translate(-57.055638, -139.004990) " cx="57.0556385" cy="139.00499" rx="2.44877038" ry="2.46106038"></ellipse>
                <path d="M53.694,170.481 C54.025,171.716 55.289,172.447 56.513,172.119 C57.737,171.791 58.466,170.527 58.134,169.291 C57.803,168.055 56.54,167.324 55.316,167.652 C54.092,167.98 53.363,169.245 53.694,170.481 Z" id="Path" stroke="#8FC1ED" fill="#C2DAF0" fill-rule="nonzero"></path>
                <path d="M46.26,172.472 C46.591,173.708 47.855,174.439 49.079,174.111 C50.303,173.783 51.032,172.519 50.701,171.283 C50.369,170.047 49.106,169.316 47.882,169.644 C46.658,169.972 45.929,171.236 46.26,172.472 Z" id="Path" stroke="#8FC1ED" fill="#C2DAF0" fill-rule="nonzero"></path>
                <rect id="Rectangle" fill="#8FC1ED" fill-rule="nonzero" transform="translate(175.681924, 97.999699) rotate(15.000000) translate(-175.681924, -97.999699) " x="128.999924" y="63.2169989" width="93.364" height="69.5654" rx="4"></rect>
                <rect id="Rectangle" fill="#EEF6FD" fill-rule="nonzero" transform="translate(176.728922, 94.093577) rotate(15.000000) translate(-176.728922, -94.093577) " x="141.314972" y="73.0621771" width="70.8279" height="42.0628" rx="2"></rect>
                <path d="M179.495,97.766 L181.05,98.182 C180.309,100.947 178.164,102.433 175.129,101.62 C172.094,100.807 170.98,98.447 171.72,95.682 L173.275,96.099 C172.857,97.662 173.215,99.433 175.548,100.058 C177.88,100.683 179.076,99.328 179.495,97.766 Z" id="Path" fill="#8FC1ED" fill-rule="nonzero"></path>
                <ellipse id="Oval" fill="#8FC1ED" fill-rule="nonzero" transform="translate(165.546000, 86.072000) rotate(15.000000) translate(-165.546000, -86.072000) " cx="165.546" cy="86.072" rx="2.81702" ry="2.83115"></ellipse>
                <ellipse id="Oval" fill="#8FC1ED" fill-rule="nonzero" transform="translate(190.424000, 92.738000) rotate(15.000000) translate(-190.424000, -92.738000) " cx="190.424" cy="92.738" rx="2.81702" ry="2.83115"></ellipse>
                <path d="M194.364,128.966 C193.973,130.428 192.478,131.293 191.03,130.905 C189.581,130.517 188.719,129.02 189.111,127.559 C189.503,126.097 190.997,125.232 192.446,125.62 C193.894,126.008 194.756,127.505 194.364,128.966 Z" id="Path" stroke="#C2DAF0" fill="#8FC1ED" fill-rule="nonzero"></path>
                <path d="M202.916,131.258 C202.525,132.719 201.03,133.584 199.581,133.196 C198.133,132.808 197.271,131.312 197.663,129.85 C198.054,128.389 199.549,127.524 200.997,127.912 C202.446,128.3 203.308,129.796 202.916,131.258 Z" id="Path" stroke="#C2DAF0" fill="#8FC1ED" fill-rule="nonzero"></path>
            </g>
            <rect id="Rectangle" x="0" y="0" width="1120" height="340"></rect>
        </g>
    </g>
</svg>