<svg width="1120" height="340" viewBox="0 0 1120 340" fill="none" xmlns="http://www.w3.org/2000/svg">
<rect x="611" y="166.636" width="106.787" height="107.737" rx="12" fill="#FAFBFE" stroke="#C2DAF0" stroke-width="1.5"/>
<path opacity="0.5" d="M623.104 212.466C623.104 211.914 623.552 211.466 624.104 211.466H631.184C631.736 211.466 632.184 211.914 632.184 212.466V274.566H623.104V212.466Z" fill="#8FC1ED"/>
<path opacity="0.5" d="M637.731 188.04C637.731 187.488 638.179 187.04 638.731 187.04H645.811C646.363 187.04 646.811 187.488 646.811 188.04V274.566H637.731V188.04Z" fill="#8FC1ED"/>
<path opacity="0.5" d="M652.361 212.466C652.361 211.914 652.809 211.466 653.361 211.466H660.441C660.993 211.466 661.441 211.914 661.441 212.466V274.566H652.361V212.466Z" fill="#8FC1ED"/>
<path opacity="0.5" d="M666.989 219.081C666.989 218.529 667.436 218.081 667.989 218.081H675.068C675.62 218.081 676.068 218.529 676.068 219.081V274.566H666.989V219.081Z" fill="#8FC1ED"/>
<path opacity="0.5" d="M681.618 188.04C681.618 187.488 682.066 187.04 682.618 187.04H689.698C690.25 187.04 690.698 187.488 690.698 188.04V274.566H681.618V188.04Z" fill="#8FC1ED"/>
<path opacity="0.5" d="M696.245 199.744C696.245 199.192 696.693 198.744 697.245 198.744H704.325C704.877 198.744 705.325 199.192 705.325 199.744V274.566H696.245V199.744Z" fill="#8FC1ED"/>
<rect x="729.902" y="70.0269" width="157.974" height="204.28" rx="12" fill="#FAFBFE" stroke="#C2DAF0" stroke-width="1.5"/>
<path opacity="0.3" d="M745.054 89.7126C745.054 88.3814 746.124 87.3022 747.443 87.3022H789.853C791.173 87.3022 792.243 88.3814 792.243 89.7126V92.1633C792.243 93.4945 791.173 94.5737 789.853 94.5737H747.443C746.124 94.5737 745.054 93.4945 745.054 92.1633V89.7126Z" fill="#8FC1ED"/>
<path opacity="0.3" d="M745.054 103.009C745.054 101.678 746.124 100.599 747.443 100.599H768.947C770.267 100.599 771.336 101.678 771.336 103.009V105.42C771.336 106.751 770.267 107.83 768.947 107.83H747.443C746.124 107.83 745.054 106.751 745.054 105.42V103.009Z" fill="#8FC1ED"/>
<path opacity="0.3" d="M745.054 116.267C745.054 114.936 746.124 113.857 747.443 113.857H783.283C784.602 113.857 785.672 114.936 785.672 116.267V118.677C785.672 120.009 784.602 121.088 783.283 121.088H747.443C746.124 121.088 745.054 120.009 745.054 118.677V116.267Z" fill="#8FC1ED"/>
<path opacity="0.3" d="M745.054 129.523C745.054 128.192 746.124 127.113 747.443 127.113H804.189C805.509 127.113 806.579 128.192 806.579 129.523V131.934C806.579 133.265 805.509 134.344 804.189 134.344H747.443C746.124 134.344 745.054 133.265 745.054 131.934V129.523Z" fill="#8FC1ED"/>
<path opacity="0.3" d="M745.054 142.781C745.054 141.45 746.124 140.371 747.443 140.371H771.336C772.656 140.371 773.726 141.45 773.726 142.781V145.192C773.726 146.523 772.656 147.602 771.336 147.602H747.443C746.124 147.602 745.054 146.523 745.054 145.192V142.781Z" fill="#8FC1ED"/>
<path opacity="0.5" d="M753.125 191.04C753.125 188.831 754.916 187.04 757.125 187.04H771.676C773.885 187.04 775.676 188.831 775.676 191.04V274.565H753.125V191.04Z" fill="#8FC1ED"/>
<path opacity="0.5" d="M782.879 165.088C782.879 162.879 784.67 161.088 786.879 161.088H801.429C803.638 161.088 805.429 162.879 805.429 165.088V274.566H782.879V165.088Z" fill="#8FC1ED"/>
<path opacity="0.5" d="M812.946 145.242C812.946 143.033 814.737 141.242 816.946 141.242H831.496C833.706 141.242 835.496 143.033 835.496 145.242V274.565H812.946V145.242Z" fill="#8FC1ED"/>
<path opacity="0.5" d="M842.699 118.272C842.699 116.063 844.49 114.272 846.699 114.272H861.249C863.458 114.272 865.249 116.063 865.249 118.272V274.566H842.699V118.272Z" fill="#8FC1ED"/>
<rect x="611.065" y="70" width="106.722" height="85.0173" rx="12" fill="#FAFBFE" stroke="#C2DAF0" stroke-width="1.5"/>
<path opacity="0.5" d="M620.984 91.3981C620.984 90.0668 621.682 88.9877 622.542 88.9877H650.196C651.056 88.9877 651.754 90.0668 651.754 91.3981V93.8487C651.754 95.1799 651.056 96.2591 650.196 96.2591H622.542C621.682 96.2591 620.984 95.1799 620.984 93.8487V91.3981Z" fill="#8FC1ED"/>
<path opacity="0.5" d="M620.984 104.695C620.984 103.363 621.682 102.284 622.542 102.284H636.564C637.424 102.284 638.122 103.363 638.122 104.695V107.105C638.122 108.436 637.424 109.515 636.564 109.515H622.542C621.682 109.515 620.984 108.436 620.984 107.105V104.695Z" fill="#8FC1ED"/>
<path opacity="0.5" d="M620.984 117.952C620.984 116.621 621.682 115.541 622.542 115.541H645.912C646.772 115.541 647.469 116.621 647.469 117.952V120.362C647.469 121.693 646.772 122.773 645.912 122.773H622.542C621.682 122.773 620.984 121.693 620.984 120.362V117.952Z" fill="#8FC1ED"/>
<path opacity="0.5" d="M620.984 131.209C620.984 129.878 621.682 128.798 622.542 128.798H635.006C635.866 128.798 636.564 129.878 636.564 131.209V133.619C636.564 134.95 635.866 136.029 635.006 136.029H622.542C621.682 136.029 620.984 134.95 620.984 133.619V131.209Z" fill="#8FC1ED"/>
<path opacity="0.5" d="M707.868 112.509C707.868 106.782 705.995 101.215 702.539 96.6716C699.083 92.1282 694.238 88.8621 688.755 87.3799C683.272 85.8976 677.457 86.2821 672.212 88.4737C666.967 90.6653 662.586 94.5414 659.748 99.501C656.909 104.461 655.773 110.226 656.514 115.904C657.255 121.582 659.832 126.855 663.846 130.904C667.86 134.954 673.086 137.554 678.715 138.301C684.343 139.049 690.058 137.902 694.974 135.038L687.238 121.521C685.272 122.666 682.985 123.125 680.734 122.826C678.483 122.527 676.392 121.487 674.787 119.867C673.181 118.247 672.15 116.138 671.854 113.867C671.557 111.596 672.012 109.289 673.147 107.306C674.283 105.322 676.035 103.771 678.133 102.895C680.231 102.018 682.557 101.864 684.75 102.457C686.944 103.05 688.882 104.356 690.264 106.174C691.646 107.991 692.396 110.218 692.396 112.509H707.868Z" fill="#8FC1ED"/>
<path opacity="0.5" d="M698.247 132.777C702.99 128.927 706.23 123.508 707.393 117.48L692.206 114.497C691.74 116.909 690.444 119.076 688.547 120.616L698.247 132.777Z" fill="#8FC1ED"/>
</svg>
