<svg xmlns="http://www.w3.org/2000/svg" width="33" height="32" fill="none"><g fill="#000000" clip-path="url(#a)"><path d="M22.36 27.861v-1.667h-1.155c-1.991 0-2.905-1.175-2.905-2.904V5.817h.342c3.73 0 6.098 2.457 6.098 6.07v.323h1.419V4.15H6.136v8.06h1.419v-.323c0-3.613 2.368-6.07 6.098-6.07h.342V23.29c0 1.729-.914 2.904-2.905 2.904H9.935v1.667H22.36Z"/><path d="M26.158 19.8h-4.76V15.06h4.76V19.8ZM10.896 19.8h-4.76V15.06h4.76V19.8Z"/></g><defs><clipPath id="a"><path fill="#fff" d="M5.987 4h20.324v24H5.987z"/></clipPath></defs></svg>
