<svg width="1120" height="340" viewBox="0 0 1120 340" fill="none" xmlns="http://www.w3.org/2000/svg">
<g clip-path="url(#clip0_2095_7940)">
<g clip-path="url(#clip1_2095_7940)">
<rect x="528" y="-57" width="376" height="227" rx="12" fill="#E4ECFB"/>
<path d="M552.82 37.4195C552.82 30.7921 558.192 25.4196 564.82 25.4196H718.256C724.883 25.4196 730.256 30.7921 730.256 37.4196V169.129H552.82V37.4195Z" fill="#C2DAF0"/>
<path d="M745.329 157.14C745.329 150.512 750.702 145.14 757.329 145.14H867.182C873.809 145.14 879.182 150.512 879.182 157.14V288.849H745.329V157.14Z" fill="#C2DAF0"/>
<rect opacity="0.7" x="745.329" y="25.4196" width="133.853" height="106.638" rx="8" fill="#8FC1ED" stroke="#1C6BB0" stroke-width="1.5" stroke-linecap="round" stroke-dasharray="8 8"/>
<rect width="133.861" height="106.642" rx="12" transform="matrix(0.965922 -0.258834 0.258804 0.96593 652.242 44.987)" fill="#EEF6FC" stroke="#8FC1ED" stroke-width="1.5"/>
<path opacity="0.5" d="M671.397 65.4534C670.965 63.8405 671.46 62.3065 672.502 62.0272L706.006 53.0494C707.048 52.77 708.243 53.8511 708.676 55.4641L709.471 58.4333C709.903 60.0462 709.409 61.5802 708.366 61.8596L674.863 70.8374C673.82 71.1167 672.625 70.0356 672.193 68.4227L671.397 65.4534Z" fill="#8FC1ED"/>
<path opacity="0.5" d="M675.713 81.5636C675.281 79.9507 675.776 78.4167 676.818 78.1373L693.806 73.5852C694.849 73.3059 696.044 74.387 696.476 75.9999L697.259 78.9204C697.691 80.5333 697.196 82.0673 696.154 82.3466L679.166 86.8987C678.123 87.1781 676.928 86.097 676.496 84.4841L675.713 81.5636Z" fill="#8FC1ED"/>
<path opacity="0.5" d="M680.017 97.6263C679.585 96.0134 680.08 94.4794 681.122 94.2001L709.435 86.6132C710.477 86.3339 711.673 87.415 712.105 89.0279L712.888 91.9484C713.32 93.5613 712.825 95.0953 711.782 95.3746L683.47 102.961C682.427 103.241 681.232 102.16 680.8 100.547L680.017 97.6263Z" fill="#8FC1ED"/>
<path opacity="0.5" d="M684.321 113.689C683.889 112.076 684.383 110.542 685.426 110.263L700.526 106.216C701.568 105.937 702.764 107.018 703.196 108.631L703.979 111.552C704.411 113.165 703.916 114.699 702.874 114.978L687.773 119.024C686.731 119.304 685.535 118.222 685.103 116.609L684.321 113.689Z" fill="#8FC1ED"/>
<path opacity="0.5" d="M783.972 64.5375C782.112 57.5988 778.036 51.462 772.374 47.0791C766.712 42.6961 759.782 40.3119 752.657 40.2962C745.533 40.2805 738.613 42.6341 732.97 46.9922C727.327 51.3502 723.278 57.469 721.449 64.3996C719.62 71.3302 720.115 78.6853 722.856 85.3241C725.596 91.963 730.431 97.5145 736.609 101.118C742.786 104.721 749.962 106.175 757.024 105.253C764.085 104.332 770.637 101.087 775.664 96.0211L761.903 82.1542C759.892 84.1803 757.271 85.4784 754.447 85.847C751.622 86.2156 748.752 85.6341 746.281 84.1928C743.81 82.7515 741.876 80.5309 740.779 77.8754C739.683 75.2198 739.485 72.2778 740.217 69.5056C740.948 66.7333 742.568 64.2858 744.825 62.5426C747.082 60.7994 749.85 59.8579 752.7 59.8642C755.55 59.8705 758.322 60.8242 760.587 62.5773C762.852 64.3305 764.482 66.7852 765.226 69.5607L783.972 64.5375Z" fill="#8FC1ED"/>
<path opacity="0.5" d="M778.895 92.2189C783.391 86.0142 785.557 78.3969 785.01 70.7152L765.641 72.0318C765.86 75.1045 764.994 78.1514 763.195 80.6333L778.895 92.2189Z" fill="#8FC1ED"/>
<path d="M728.844 154.884C729.249 155.856 728.86 159.539 726.711 160.393C724.563 161.247 721.818 160.393 721.818 160.393L716.837 150.431L708.229 159.04L708.229 120.159L734.599 146.531L724.774 146.531C725.256 147.455 728.329 153.648 728.844 154.884Z" fill="white"/>
<path fill-rule="evenodd" clip-rule="evenodd" d="M710.538 125.737L710.538 153.462L717.469 146.531L723.245 158.083C723.245 158.083 724.807 158.582 725.555 158.083C726.303 157.585 727.047 156.58 726.71 155.773C725.122 151.96 720.935 144.221 720.935 144.221L729.021 144.221L710.538 125.737Z" fill="#1C6BB0"/>
</g>
<rect x="528" y="-57" width="376" height="227" rx="12" stroke="#C2DAF0" stroke-width="1.5"/>
<rect x="636.031" y="211.75" width="159.939" height="118.5" rx="7.25" fill="#CBE2F7" stroke="#509EE3" stroke-width="1.5"/>
<rect x="654.764" y="227.744" width="122.471" height="72.5581" rx="4" fill="#EEF6FD" stroke="#509EE3" stroke-width="1.5"/>
<path d="M721.567 259.209H724.351C724.351 264.147 721.433 267.582 716 267.582C710.568 267.582 707.65 264.147 707.65 259.209H710.434C710.434 262 711.825 264.791 716 264.791C720.176 264.791 721.567 262 721.567 259.209Z" fill="#509EE3"/>
<ellipse cx="693.036" cy="245.954" rx="4.871" ry="4.88372" fill="#509EE3"/>
<ellipse cx="737.572" cy="245.954" rx="4.87099" ry="4.88372" fill="#509EE3"/>
<path d="M761.176 314.256C761.176 316.926 759.018 319.087 756.36 319.087C753.701 319.087 751.543 316.926 751.543 314.256C751.543 311.586 753.701 309.424 756.36 309.424C759.018 309.424 761.176 311.586 761.176 314.256Z" fill="#CBE2F7" stroke="#509EE3" stroke-width="1.5"/>
<path d="M776.485 314.256C776.485 316.926 774.327 319.087 771.668 319.087C769.01 319.087 766.852 316.926 766.852 314.256C766.852 311.586 769.01 309.424 771.668 309.424C774.327 309.424 776.485 311.586 776.485 314.256Z" fill="#CBE2F7" stroke="#509EE3" stroke-width="1.5"/>
</g>
<defs>
<clipPath id="clip0_2095_7940">
<rect width="1120" height="340" fill="white"/>
</clipPath>
<clipPath id="clip1_2095_7940">
<rect x="528" y="-57" width="376" height="227" rx="12" fill="white"/>
</clipPath>
</defs>
</svg>
