<svg width="1120" height="340" viewBox="0 0 1120 340" fill="none" xmlns="http://www.w3.org/2000/svg">
<path d="M917.578 300.5C914.248 300.5 911.123 301.484 908.541 303.191C903.853 295.316 895.089 290 884.966 290C874.843 290 866.079 295.316 861.391 303.191C858.809 301.484 855.684 300.5 852.355 300.5C845.289 300.5 839.242 304.897 837 311H933C930.69 304.897 924.643 300.5 917.578 300.5Z" fill="#E4ECFB"/>
<path d="M758.875 59C775.051 59 788.971 68.625 795.367 82.375C800.006 77.25 806.653 74 814.051 74C824.334 74 833.113 80.125 837 89H720C724.389 71.75 740.19 59 758.875 59Z" fill="#E4ECFB"/>
<path d="M530.422 216C518.946 216 509.072 223.058 504.535 233.142C501.243 229.383 496.528 227 491.28 227C483.985 227 477.758 231.492 475 238H558C554.886 225.35 543.677 216 530.422 216Z" fill="#E4ECFB"/>
<path d="M632.93 197.277L565 163.291L821 116.277L632.93 197.277Z" fill="#E4ECFB" stroke="#8FC1ED" stroke-width="1.5" stroke-linejoin="round"/>
<path d="M640.296 257.277L633 197.117L821 116.277L657.693 207.799L680.701 226.353L640.296 257.277Z" fill="#E4ECFB"/>
<path d="M640.296 257.277L633 197.117L821 116.277L657.693 207.799M640.296 257.277L680.701 226.353L657.693 207.799M640.296 257.277L657.693 207.799" stroke="#8FC1ED" stroke-width="1.5" stroke-linejoin="round"/>
<rect x="641.087" y="130.383" width="110.717" height="81.6234" rx="7.25" transform="rotate(-30 641.087 130.383)" fill="#CBE2F7" stroke="#509EE3" stroke-width="1.5"/>
<rect x="657.591" y="133.381" width="85.1299" height="50.2607" rx="4" transform="rotate(-30 657.591 133.381)" fill="#EEF6FD" stroke="#509EE3" stroke-width="1.5"/>
<path d="M712.62 134.534L714.295 133.567C716.005 136.529 715.438 139.603 712.168 141.492C708.898 143.38 705.952 142.333 704.242 139.371L705.918 138.404C706.884 140.078 708.688 141.268 711.202 139.817C713.715 138.366 713.586 136.209 712.62 134.534Z" fill="#509EE3"/>
<ellipse cx="690.853" cy="136.499" rx="3.38585" ry="3.38293" transform="rotate(-30 690.853 136.499)" fill="#509EE3"/>
<ellipse cx="717.663" cy="121.02" rx="3.38584" ry="3.38293" transform="rotate(-30 717.663 121.02)" fill="#509EE3"/>
<path d="M751.413 148.41C752.273 149.9 751.762 151.806 750.27 152.668C748.777 153.53 746.87 153.019 746.01 151.529C745.15 150.039 745.661 148.132 747.153 147.271C748.646 146.409 750.553 146.92 751.413 148.41Z" fill="#CBE2F7" stroke="#509EE3" stroke-width="1.5"/>
<path d="M760.629 143.089C761.489 144.579 760.978 146.486 759.485 147.348C757.993 148.209 756.086 147.699 755.225 146.209C754.365 144.719 754.876 142.812 756.369 141.95C757.862 141.088 759.768 141.599 760.629 143.089Z" fill="#CBE2F7" stroke="#509EE3" stroke-width="1.5"/>
<path d="M728.574 265.277L657 207.926L821 116.277L728.574 265.277Z" fill="#E4ECFB" stroke="#8FC1ED" stroke-width="1.5" stroke-linejoin="round"/>
</svg>
