<svg width="840" height="254" viewBox="0 0 840 254" fill="none" xmlns="http://www.w3.org/2000/svg">
<rect width="840" height="254" rx="12" fill="#EEF6FC"/>
<g clip-path="url(#clip0_237_8465)">
<mask id="mask0_237_8465" style="mask-type:alpha" maskUnits="userSpaceOnUse" x="0" y="0" width="840" height="254">
<rect width="840" height="254" fill="url(#paint0_radial_237_8465)"/>
</mask>
<g mask="url(#mask0_237_8465)">
<path d="M302.628 353.538L302.628 -137.473" stroke="#5EA4E3" stroke-opacity="0.1"/>
<path d="M264.8 260.012L264.8 -231" stroke="#5EA4E3" stroke-opacity="0.1"/>
<path d="M226.972 260.012L226.972 -168.649" stroke="#5EA4E3" stroke-opacity="0.1"/>
<path d="M189.143 260.012L189.143 -36.1537" stroke="#5EA4E3" stroke-opacity="0.1"/>
<path d="M151.314 260.012L151.314 -176.443" stroke="#5EA4E3" stroke-opacity="0.1"/>
<path d="M113.486 260.012L113.486 -230.999" stroke="#5EA4E3" stroke-opacity="0.1"/>
<path d="M75.6573 260.012L75.6574 -114.092" stroke="#5EA4E3" stroke-opacity="0.1"/>
<path d="M37.8291 260.012L37.8291 -230.999" stroke="#5EA4E3" stroke-opacity="0.1"/>
<path d="M0 260.012L4.3406e-06 -230.999" stroke="#5EA4E3" stroke-opacity="0.1"/>
<path d="M340.457 260.012L340.457 -43.9475" stroke="#5EA4E3" stroke-opacity="0.1"/>
<path d="M378.286 260.012L378.286 -231" stroke="#5EA4E3" stroke-opacity="0.1"/>
<path d="M416.114 345.744L416.114 -145.268" stroke="#5EA4E3" stroke-opacity="0.1"/>
<path d="M453.943 260.012L453.943 -230.999" stroke="#5EA4E3" stroke-opacity="0.1"/>
<path d="M302.63 -90.7975L302.63 45.0912" stroke="#509EE3"/>
<path d="M264.8 -90.7972L264.8 4.10915" stroke="#509EE3"/>
<path d="M226.972 -101.582L226.972 34.3067" stroke="#509EE3"/>
<path d="M189.143 -90.7975L189.143 10.5798" stroke="#509EE3"/>
<path d="M151.315 -90.7975L151.315 40.7773" stroke="#509EE3"/>
<path d="M113.486 -114.524L113.486 21.3649" stroke="#509EE3"/>
<path d="M75.6583 -90.7972L75.6583 45.0915" stroke="#509EE3"/>
<path d="M37.8302 -90.7972L37.8302 45.0915" stroke="#509EE3"/>
<path d="M0.0012207 -90.7975L0.00122169 45.0912" stroke="#509EE3"/>
<path d="M378.286 -90.7972L378.286 45.0915" stroke="#509EE3"/>
<path d="M416.113 -114.523L416.113 21.3654" stroke="#509EE3"/>
<path d="M453.943 -90.7975L453.943 45.0912" stroke="#509EE3"/>
<path d="M302.628 353.537L302.628 217.649" stroke="#509EE3"/>
<path d="M264.8 327.654L264.8 191.765" stroke="#509EE3"/>
<path d="M226.972 327.654L226.972 209.021" stroke="#509EE3"/>
<path d="M189.143 327.654L189.143 245.689" stroke="#509EE3"/>
<path d="M151.314 327.654L151.314 206.864" stroke="#509EE3"/>
<path d="M113.486 327.654L113.486 191.765" stroke="#509EE3"/>
<path d="M75.6582 327.654L75.6582 224.119" stroke="#509EE3"/>
<path d="M37.8301 327.654L37.8301 191.765" stroke="#509EE3"/>
<path d="M0 327.654L9.89364e-07 191.765" stroke="#509EE3"/>
<path d="M340.457 327.654L340.457 243.532" stroke="#509EE3"/>
<path d="M378.286 367.654L378.286 231.765" stroke="#509EE3"/>
<path d="M416.113 351.38L416.113 215.492" stroke="#509EE3"/>
<path d="M453.943 351.654L453.943 215.765" stroke="#509EE3"/>
<path d="M794.882 -103L794.882 388.012" stroke="#5EA4E3" stroke-opacity="0.1"/>
<path d="M757.053 -9.47363L757.053 481.538" stroke="#5EA4E3" stroke-opacity="0.1"/>
<path d="M719.224 -9.47363L719.224 419.187" stroke="#5EA4E3" stroke-opacity="0.1"/>
<path d="M681.396 -9.47363L681.396 286.692" stroke="#5EA4E3" stroke-opacity="0.1"/>
<path d="M643.566 -9.47375L643.566 426.981" stroke="#5EA4E3" stroke-opacity="0.1"/>
<path d="M605.738 -9.47351L605.738 481.538" stroke="#5EA4E3" stroke-opacity="0.1"/>
<path d="M567.909 -9.47351L567.909 364.63" stroke="#5EA4E3" stroke-opacity="0.1"/>
<path d="M530.082 -9.47375L530.082 481.537" stroke="#5EA4E3" stroke-opacity="0.1"/>
<path d="M492.253 -9.47375L492.253 481.537" stroke="#5EA4E3" stroke-opacity="0.1"/>
<path d="M832.71 -9.47363L832.71 294.486" stroke="#5EA4E3" stroke-opacity="0.1"/>
<path d="M794.88 341.335L794.88 205.447" stroke="#509EE3"/>
<path d="M757.052 341.335L757.052 246.429" stroke="#509EE3"/>
<path d="M719.224 352.12L719.224 216.231" stroke="#509EE3"/>
<path d="M681.395 341.335L681.395 239.958" stroke="#509EE3"/>
<path d="M643.566 341.335L643.566 209.761" stroke="#509EE3"/>
<path d="M605.738 365.061L605.738 229.173" stroke="#509EE3"/>
<path d="M567.909 341.335L567.909 205.447" stroke="#509EE3"/>
<path d="M530.081 317.335L530.081 181.447" stroke="#509EE3"/>
<path d="M492.252 341.335L492.252 205.447" stroke="#509EE3"/>
<path d="M794.882 -102.999L794.882 32.8893" stroke="#509EE3"/>
<path d="M757.052 -77.1156L757.052 58.7731" stroke="#509EE3"/>
<path d="M719.224 -77.1158L719.224 41.5171" stroke="#509EE3"/>
<path d="M681.395 -77.116L681.395 4.84864" stroke="#509EE3"/>
<path d="M643.566 -77.1156L643.566 43.6744" stroke="#509EE3"/>
<path d="M605.738 -77.1157L605.738 58.773" stroke="#509EE3"/>
<path d="M567.909 -77.1158L567.909 26.4184" stroke="#509EE3"/>
<path d="M530.082 -77.116L530.082 58.7727" stroke="#509EE3"/>
<path d="M492.252 -77.1156L492.252 58.7731" stroke="#509EE3"/>
<path d="M832.71 -77.116L832.71 7.00562" stroke="#509EE3"/>
<path d="M-25.522 37.2858L1598 37.2858" stroke="#5EA4E3" stroke-opacity="0.1"/>
<path d="M-308.996 75.1145L1314.53 75.1146" stroke="#5EA4E3" stroke-opacity="0.1"/>
<path d="M-25.522 112.943L1598 112.943" stroke="#5EA4E3" stroke-opacity="0.1"/>
<path d="M1134.42 37.2856L685.101 37.2856" stroke="#509EE3"/>
<path d="M1212.87 75.1133L763.551 75.1133" stroke="#509EE3"/>
<path d="M1134.42 112.943L685.101 112.943" stroke="#509EE3"/>
<path d="M-381.444 37.2863L67.8704 37.2863" stroke="#509EE3"/>
<path d="M-327.636 75.1135L121.679 75.1135" stroke="#509EE3"/>
<path d="M-328.539 112.944L120.776 112.944" stroke="#509EE3"/>
<path d="M865.523 226.909L-371.447 226.909" stroke="#5EA4E3" stroke-opacity="0.1"/>
<path d="M865.523 189.082L-758 189.082" stroke="#5EA4E3" stroke-opacity="0.1"/>
<path d="M865.525 151.253L-757.998 151.253" stroke="#5EA4E3" stroke-opacity="0.1"/>
<path d="M-294.424 226.909L154.891 226.909" stroke="#509EE3"/>
<path d="M-215.065 189.081L234.249 189.081" stroke="#509EE3"/>
<path d="M-294.424 151.252L154.891 151.252" stroke="#509EE3"/>
<path d="M1089.18 226.909L746.846 226.909" stroke="#509EE3"/>
<path d="M1089.18 189.082L639.867 189.082" stroke="#509EE3"/>
<path d="M1089.18 151.252L639.867 151.252" stroke="#509EE3"/>
</g>
</g>
<defs>
<radialGradient id="paint0_radial_237_8465" cx="0" cy="0" r="1" gradientUnits="userSpaceOnUse" gradientTransform="translate(420 126.274) rotate(90) scale(127.726 420)">
<stop offset="0.00642202" stop-color="#EDF6FC"/>
<stop offset="1" stop-color="#EDF6FC" stop-opacity="0"/>
</radialGradient>
<clipPath id="clip0_237_8465">
<path d="M0 8C0 3.58172 3.58172 0 8 0H832C836.418 0 840 3.58172 840 8V254H0V8Z" fill="white"/>
</clipPath>
</defs>
</svg>
