<svg width="264" height="176" viewBox="0 0 264 176" fill="none" xmlns="http://www.w3.org/2000/svg">
<g clip-path="url(#clip0_635_16390)">
<path d="M0 8C0 3.58172 3.58172 0 8 0H256C260.418 0 264 3.58172 264 8V176H0V8Z" fill="#EDF6FC"/>
<mask id="mask0_635_16390" style="mask-type:alpha" maskUnits="userSpaceOnUse" x="0" y="0" width="264" height="176">
<rect width="264" height="176" fill="url(#paint0_radial_635_16390)"/>
</mask>
<g mask="url(#mask0_635_16390)">
<path d="M402 18.5873L-137.333 18.5874" stroke="#509EE3"/>
<path d="M402 53.1049L-137.333 53.1049" stroke="#509EE3"/>
<path d="M402 87.622L-137.333 87.6221" stroke="#509EE3"/>
<path d="M402 122.14L-137.333 122.14" stroke="#509EE3"/>
<path d="M402 156.657L-137.333 156.657" stroke="#509EE3"/>
<path d="M132.328 -210.533L132.328 52.0107" stroke="#509EE3"/>
<path d="M132.328 122.989L132.328 385.533" stroke="#509EE3"/>
<path d="M132.329 158.28C133.246 158.28 133.947 157.579 133.947 156.662C133.947 155.745 133.246 155.044 132.329 155.044C131.412 155.044 130.711 155.745 130.711 156.662C130.711 157.579 131.412 158.28 132.329 158.28Z" fill="white" stroke="#509EE3"/>
<path d="M132.329 20.2101C133.246 20.2101 133.947 19.509 133.947 18.5921C133.947 17.6753 133.246 16.9741 132.329 16.9741C131.412 16.9741 130.711 17.6753 130.711 18.5921C130.711 19.509 131.412 20.2101 132.329 20.2101Z" fill="white" stroke="#509EE3"/>
<path d="M166.844 -47.2061L166.844 222.461" stroke="#509EE3"/>
<path d="M166.845 158.28C167.761 158.28 168.463 157.579 168.463 156.662C168.463 155.745 167.761 155.044 166.845 155.044C165.928 155.044 165.227 155.745 165.227 156.662C165.227 157.579 165.928 158.28 166.845 158.28Z" fill="white" stroke="#509EE3"/>
<path d="M166.845 20.2101C167.761 20.2101 168.463 19.509 168.463 18.5921C168.463 17.6753 167.761 16.9741 166.845 16.9741C165.928 16.9741 165.227 17.6753 165.227 18.5921C165.227 19.509 165.928 20.2101 166.845 20.2101Z" fill="white" stroke="#509EE3"/>
<path d="M201.359 -47.2061L201.359 222.461" stroke="#509EE3"/>
<path d="M201.36 54.7277C202.277 54.7277 202.978 54.0266 202.978 53.1097C202.978 52.1928 202.277 51.4917 201.36 51.4917C200.443 51.4917 199.742 52.1928 199.742 53.1097C199.742 54.0266 200.443 54.7277 201.36 54.7277Z" fill="white" stroke="#509EE3"/>
<path d="M201.36 89.2453C202.277 89.2453 202.978 88.5441 202.978 87.6273C202.978 86.7104 202.277 86.0093 201.36 86.0093C200.443 86.0093 199.742 86.7104 199.742 87.6273C199.742 88.5441 200.443 89.2453 201.36 89.2453Z" fill="white" stroke="#509EE3"/>
<path d="M201.36 123.762C202.277 123.762 202.978 123.061 202.978 122.144C202.978 121.228 202.277 120.526 201.36 120.526C200.443 120.526 199.742 121.228 199.742 122.144C199.742 123.061 200.443 123.762 201.36 123.762Z" fill="white" stroke="#509EE3"/>
<path d="M201.36 158.28C202.277 158.28 202.978 157.579 202.978 156.662C202.978 155.745 202.277 155.044 201.36 155.044C200.443 155.044 199.742 155.745 199.742 156.662C199.742 157.579 200.443 158.28 201.36 158.28Z" fill="white" stroke="#509EE3"/>
<path d="M201.36 20.2101C202.277 20.2101 202.978 19.509 202.978 18.5921C202.978 17.6753 202.277 16.9741 201.36 16.9741C200.443 16.9741 199.742 17.6753 199.742 18.5921C199.742 19.509 200.443 20.2101 201.36 20.2101Z" fill="white" stroke="#509EE3"/>
<path d="M235.875 -47.2061L235.875 222.461" stroke="#509EE3"/>
<path d="M235.884 54.7277C236.8 54.7277 237.502 54.0266 237.502 53.1097C237.502 52.1928 236.8 51.4917 235.884 51.4917C234.967 51.4917 234.266 52.1928 234.266 53.1097C234.266 54.0266 234.967 54.7277 235.884 54.7277Z" fill="white" stroke="#509EE3"/>
<path d="M235.884 89.2453C236.8 89.2453 237.502 88.5441 237.502 87.6273C237.502 86.7104 236.8 86.0093 235.884 86.0093C234.967 86.0093 234.266 86.7104 234.266 87.6273C234.266 88.5441 234.967 89.2453 235.884 89.2453Z" fill="white" stroke="#509EE3"/>
<path d="M235.884 123.762C236.8 123.762 237.502 123.061 237.502 122.144C237.502 121.228 236.8 120.526 235.884 120.526C234.967 120.526 234.266 121.228 234.266 122.144C234.266 123.061 234.967 123.762 235.884 123.762Z" fill="white" stroke="#509EE3"/>
<path d="M235.884 158.28C236.8 158.28 237.502 157.579 237.502 156.662C237.502 155.745 236.8 155.044 235.884 155.044C234.967 155.044 234.266 155.745 234.266 156.662C234.266 157.579 234.967 158.28 235.884 158.28Z" fill="white" stroke="#509EE3"/>
<path d="M235.884 20.2101C236.8 20.2101 237.502 19.509 237.502 18.5921C237.502 17.6753 236.8 16.9741 235.884 16.9741C234.967 16.9741 234.266 17.6753 234.266 18.5921C234.266 19.509 234.967 20.2101 235.884 20.2101Z" fill="white" stroke="#509EE3"/>
<path d="M97.8125 -47.2061L97.8125 222.461" stroke="#509EE3"/>
<path d="M97.8133 158.28C98.7302 158.28 99.4313 157.579 99.4313 156.662C99.4313 155.745 98.7302 155.044 97.8133 155.044C96.8964 155.044 96.1953 155.745 96.1953 156.662C96.1953 157.579 96.8964 158.28 97.8133 158.28Z" fill="white" stroke="#509EE3"/>
<path d="M97.8133 20.2101C98.7302 20.2101 99.4313 19.509 99.4313 18.5921C99.4313 17.6753 98.7302 16.9741 97.8133 16.9741C96.8964 16.9741 96.1953 17.6753 96.1953 18.5921C96.1953 19.509 96.8964 20.2101 97.8133 20.2101Z" fill="white" stroke="#509EE3"/>
<path d="M63.289 -47.2061L63.2891 222.461" stroke="#509EE3"/>
<path d="M63.2977 54.7277C64.2146 54.7277 64.9157 54.0266 64.9157 53.1097C64.9157 52.1928 64.2146 51.4917 63.2977 51.4917C62.3808 51.4917 61.6797 52.1928 61.6797 53.1097C61.6797 54.0266 62.3808 54.7277 63.2977 54.7277Z" fill="white" stroke="#509EE3"/>
<path d="M63.2977 89.2453C64.2146 89.2453 64.9157 88.5441 64.9157 87.6273C64.9157 86.7104 64.2146 86.0093 63.2977 86.0093C62.3808 86.0093 61.6797 86.7104 61.6797 87.6273C61.6797 88.5441 62.3808 89.2453 63.2977 89.2453Z" fill="white" stroke="#509EE3"/>
<path d="M63.2977 123.762C64.2146 123.762 64.9157 123.061 64.9157 122.144C64.9157 121.228 64.2146 120.526 63.2977 120.526C62.3808 120.526 61.6797 121.228 61.6797 122.144C61.6797 123.061 62.3808 123.762 63.2977 123.762Z" fill="white" stroke="#509EE3"/>
<path d="M63.2977 158.28C64.2146 158.28 64.9157 157.579 64.9157 156.662C64.9157 155.745 64.2146 155.044 63.2977 155.044C62.3808 155.044 61.6797 155.745 61.6797 156.662C61.6797 157.579 62.3808 158.28 63.2977 158.28Z" fill="white" stroke="#509EE3"/>
<path d="M63.2977 20.2101C64.2146 20.2101 64.9157 19.509 64.9157 18.5921C64.9157 17.6753 64.2146 16.9741 63.2977 16.9741C62.3808 16.9741 61.6797 17.6753 61.6797 18.5921C61.6797 19.509 62.3808 20.2101 63.2977 20.2101Z" fill="white" stroke="#509EE3"/>
<path d="M28.7734 -47.2061L28.7734 222.461" stroke="#509EE3"/>
<path d="M28.7743 54.7277C29.6911 54.7277 30.3923 54.0266 30.3923 53.1097C30.3923 52.1928 29.6911 51.4917 28.7743 51.4917C27.8574 51.4917 27.1562 52.1928 27.1562 53.1097C27.1562 54.0266 27.8574 54.7277 28.7743 54.7277Z" fill="white" stroke="#509EE3"/>
<path d="M28.7743 89.2453C29.6911 89.2453 30.3923 88.5441 30.3923 87.6273C30.3923 86.7104 29.6911 86.0093 28.7743 86.0093C27.8574 86.0093 27.1562 86.7104 27.1562 87.6273C27.1562 88.5441 27.8574 89.2453 28.7743 89.2453Z" fill="white" stroke="#509EE3"/>
<path d="M28.7743 123.762C29.6911 123.762 30.3923 123.061 30.3923 122.144C30.3923 121.228 29.6911 120.526 28.7743 120.526C27.8574 120.526 27.1562 121.228 27.1562 122.144C27.1562 123.061 27.8574 123.762 28.7743 123.762Z" fill="white" stroke="#509EE3"/>
<path d="M28.7743 158.28C29.6911 158.28 30.3923 157.579 30.3923 156.662C30.3923 155.745 29.6911 155.044 28.7743 155.044C27.8574 155.044 27.1562 155.745 27.1562 156.662C27.1562 157.579 27.8574 158.28 28.7743 158.28Z" fill="white" stroke="#509EE3"/>
<path d="M28.7743 20.2101C29.6911 20.2101 30.3923 19.509 30.3923 18.5921C30.3923 17.6753 29.6911 16.9741 28.7743 16.9741C27.8574 16.9741 27.1562 17.6753 27.1562 18.5921C27.1562 19.509 27.8574 20.2101 28.7743 20.2101Z" fill="white" stroke="#509EE3"/>
<path d="M165.773 87.627L98.8961 87.6269" stroke="#12436E"/>
<path d="M132.329 54.7277C133.246 54.7277 133.947 54.0266 133.947 53.1097C133.947 52.1928 133.246 51.4917 132.329 51.4917C131.412 51.4917 130.711 52.1928 130.711 53.1097C130.711 54.0266 131.412 54.7277 132.329 54.7277Z" fill="white" stroke="#12436E"/>
<path d="M132.329 123.762C133.246 123.762 133.947 123.061 133.947 122.144C133.947 121.228 133.246 120.526 132.329 120.526C131.412 120.526 130.711 121.228 130.711 122.144C130.711 123.061 131.412 123.762 132.329 123.762Z" fill="white" stroke="#12436E"/>
<path d="M166.845 54.7277C167.761 54.7277 168.463 54.0266 168.463 53.1097C168.463 52.1928 167.761 51.4917 166.845 51.4917C165.928 51.4917 165.227 52.1928 165.227 53.1097C165.227 54.0266 165.928 54.7277 166.845 54.7277Z" fill="white" stroke="#12436E"/>
<path d="M166.845 89.2453C167.761 89.2453 168.463 88.5441 168.463 87.6273C168.463 86.7104 167.761 86.0093 166.845 86.0093C165.928 86.0093 165.227 86.7104 165.227 87.6273C165.227 88.5441 165.928 89.2453 166.845 89.2453Z" fill="white" stroke="#12436E"/>
<path d="M166.845 123.762C167.761 123.762 168.463 123.061 168.463 122.144C168.463 121.228 167.761 120.526 166.845 120.526C165.928 120.526 165.227 121.228 165.227 122.144C165.227 123.061 165.928 123.762 166.845 123.762Z" fill="white" stroke="#12436E"/>
<path d="M97.8133 54.7277C98.7302 54.7277 99.4313 54.0266 99.4313 53.1097C99.4313 52.1928 98.7302 51.4917 97.8133 51.4917C96.8964 51.4917 96.1953 52.1928 96.1953 53.1097C96.1953 54.0266 96.8964 54.7277 97.8133 54.7277Z" fill="white" stroke="#12436E"/>
<path d="M97.8133 89.2453C98.7302 89.2453 99.4313 88.5441 99.4313 87.6273C99.4313 86.7104 98.7302 86.0093 97.8133 86.0093C96.8964 86.0093 96.1953 86.7104 96.1953 87.6273C96.1953 88.5441 96.8964 89.2453 97.8133 89.2453Z" fill="white" stroke="#12436E"/>
<path d="M97.8133 123.762C98.7302 123.762 99.4313 123.061 99.4313 122.144C99.4313 121.227 98.7302 120.526 97.8133 120.526C96.8964 120.526 96.1953 121.227 96.1953 122.144C96.1953 123.061 96.8964 123.762 97.8133 123.762Z" fill="white" stroke="#12436E"/>
</g>
</g>
<defs>
<radialGradient id="paint0_radial_635_16390" cx="0" cy="0" r="1" gradientUnits="userSpaceOnUse" gradientTransform="translate(132 87.4971) rotate(90) scale(88.5029 132.754)">
<stop offset="0.541667" stop-color="#EDF6FC"/>
<stop offset="1" stop-color="#EDF6FC" stop-opacity="0"/>
</radialGradient>
<clipPath id="clip0_635_16390">
<path d="M0 8C0 3.58172 3.58172 0 8 0H256C260.418 0 264 3.58172 264 8V176H0V8Z" fill="white"/>
</clipPath>
</defs>
</svg>
