<svg width="377" height="148" viewBox="0 0 377 148" fill="none" xmlns="http://www.w3.org/2000/svg">
<mask id="mask0_1029_19363" style="mask-type:alpha" maskUnits="userSpaceOnUse" x="0" y="0" width="377" height="148">
<rect x="0.0141602" width="376" height="148" fill="url(#paint0_radial_1029_19363)"/>
</mask>
<g mask="url(#mask0_1029_19363)">
<path d="M236.014 183L236.014 -44.64" stroke="#C2DAF0"/>
<path d="M212.014 139.64L212.014 -87.9999" stroke="#C2DAF0"/>
<path d="M188.014 139.64L188.014 -59.0932" stroke="#C2DAF0"/>
<path d="M164.014 139.64L164.014 2.33347" stroke="#C2DAF0"/>
<path d="M140.014 139.64L140.014 -62.7065" stroke="#C2DAF0"/>
<path d="M116.014 139.64L116.014 -87.9999" stroke="#C2DAF0"/>
<path d="M92.0142 139.64L92.0142 -33.7999" stroke="#C2DAF0"/>
<path d="M68.0142 139.64L68.0142 -87.9999" stroke="#C2DAF0"/>
<path d="M44.0142 139.64L44.0142 -87.9999" stroke="#C2DAF0"/>
<path d="M260.014 139.64L260.014 -1.27986" stroke="#C2DAF0"/>
<path d="M284.014 139.64L284.014 -87.9999" stroke="#C2DAF0"/>
<path d="M308.014 179.387L308.014 -48.2533" stroke="#C2DAF0"/>
<path d="M332.014 139.64L332.014 -87.9999" stroke="#C2DAF0"/>
<path d="M236.014 -23L236.014 40" stroke="#1C6BB0"/>
<path d="M212.014 -23L212.014 21" stroke="#1C6BB0"/>
<path d="M188.014 -28L188.014 35" stroke="#1C6BB0"/>
<path d="M164.014 -23L164.014 24" stroke="#1C6BB0"/>
<path d="M140.014 -23L140.014 38" stroke="#1C6BB0"/>
<path d="M116.014 -34L116.014 29" stroke="#1C6BB0"/>
<path d="M92.0142 -23L92.0142 40" stroke="#1C6BB0"/>
<path d="M68.0142 -23L68.0142 40" stroke="#1C6BB0"/>
<path d="M44.0142 -23L44.0142 40" stroke="#1C6BB0"/>
<path d="M260.014 -23L260.014 16" stroke="#1C6BB0"/>
<path d="M284.014 -23L284.014 40" stroke="#1C6BB0"/>
<path d="M308.014 -34L308.014 29" stroke="#1C6BB0"/>
<path d="M332.014 -23L332.014 40" stroke="#1C6BB0"/>
<path d="M236.014 183L236.014 120" stroke="#1C6BB0"/>
<path d="M212.014 171L212.014 108" stroke="#1C6BB0"/>
<path d="M188.014 171L188.014 116" stroke="#1C6BB0"/>
<path d="M164.014 171L164.014 133" stroke="#1C6BB0"/>
<path d="M140.014 171L140.014 115" stroke="#1C6BB0"/>
<path d="M116.014 171L116.014 108" stroke="#1C6BB0"/>
<path d="M92.0142 171L92.0142 123" stroke="#1C6BB0"/>
<path d="M68.0142 171L68.0142 108" stroke="#1C6BB0"/>
<path d="M44.0142 171L44.0142 108" stroke="#1C6BB0"/>
<path d="M260.014 171L260.014 132" stroke="#1C6BB0"/>
<path d="M284.014 171L284.014 108" stroke="#1C6BB0"/>
<path d="M308.014 182L308.014 119" stroke="#1C6BB0"/>
<path d="M332.014 171L332.014 108" stroke="#1C6BB0"/>
</g>
<defs>
<radialGradient id="paint0_radial_1029_19363" cx="0" cy="0" r="1" gradientUnits="userSpaceOnUse" gradientTransform="translate(188.014 73.5771) rotate(90) scale(74.4229 189.074)">
<stop offset="0.427083" stop-color="#EDF6FC"/>
<stop offset="1" stop-color="#EDF6FC" stop-opacity="0"/>
</radialGradient>
</defs>
</svg>
