<svg id="svg3397" height="512" width="512" xmlns="http://www.w3.org/2000/svg" xmlns:cc="http://creativecommons.org/ns#" xmlns:dc="http://purl.org/dc/elements/1.1/" xmlns:inkscape="http://www.inkscape.org/namespaces/inkscape" xmlns:rdf="http://www.w3.org/1999/02/22-rdf-syntax-ns#" xmlns:sodipodi="http://sodipodi.sourceforge.net/DTD/sodipodi-0.dtd" xmlns:svg="http://www.w3.org/2000/svg"><g id="layer1" transform="translate(0 -540.362)"><g id="g3391" fill="#579bd3" stroke="#579bd3" transform="matrix(.426 0 0 .426 3.027 573.767)"><path id="path3381" d="m30.474602 42.518166 9.623559-1.603926 9.623558 3.207853 3.207853-24.058897 12.831412-6.415705 14.435338 8.019632 4.811779 16.039264 11.227485 14.435338 11.227484 4.811779 12.83141 14.435338 36.89031 8.019632 11.22749-6.415705 9.62355 3.207853 4.81178-9.623559 4.81178-1.603926 14.43534-11.227485 11.22749-6.415706 12.83141-12.831412 36.8903-20.851043 28.87068 28.870675-22.45497 6.415706 16.03927 11.227485-3.20786 9.623559-17.64319 6.415706 9.62356 9.623558 12.83141 14.43534 16.03927 9.62356 11.22748-1.60393 8.01963 44.90994 14.43534 14.43534 30.4746 9.62356 6.41571-1.60393 20.85104 4.81178 4.81178 20.85104 44.90994 25.66283 56.13743 9.62355 94.63166-22.45497 3.20785 8.01964 19.24712-1.60393-8.01964-36.89031 14.43534 3.20786 22.45497-9.62356 1.60393-3.20786 4.81178 1.60393 6.4157-3.20785 6.41571-9.62356v-4.81178l16.03926-14.43534 17.64319-12.83141 22.45497-1.60393 8.01964 4.81178 11.22748-3.20785 8.01963 4.81178 8.01964-6.41571-1.60393-3.20785-3.20785-1.60393 4.81178-4.81177h11.22748l8.01963-1.60393 1.60393 3.20785 17.64319 3.20785 4.81178-6.4157 11.22748 14.43534 1.60393 9.62356 46.51387 9.62355 4.81178 8.01964 12.83141 6.4157 3.20785-9.62356 8.01963 6.41571 8.01964-3.20785 25.66282 12.83141h4.81178l6.4157 11.22748-3.20785 3.20786 33.68246 19.24711 8.01963 3.20786 14.43534 24.05889 51.32564-1.60392-1.6039 19.24711 4.8118 22.45497-9.6236 6.41571 8.0196 12.83141 6.4157 12.83141-11.2275 22.45497-4.8117 17.64319-8.0197 22.45497-16.0392 8.01963 11.2275 11.22749-1.604 12.83141-14.4353-4.81178-8.01964 16.03927v22.45497l12.83144 16.03926 14.4353 3.20785-24.05889 28.87068 19.24709 57.74135-3.2078 11.22749 3.2078 40.09816 52.9296 8.01963 4.8118 24.0589v11.22748l-56.1374 68.96884 25.6628 32.07853 12.8314 24.05889 3.2078 16.03927 20.8511 19.24711 28.8707 8.01964 12.8314 9.62355h6.4157l1.6039 11.22749-6.4157 3.20785 8.0196 41.70209-3.2078 14.43534 16.0392-1.60393h8.0197l6.4157 4.81178-4.8118 11.22749 3.2079 9.62355-1.604 14.43534-30.4746 3.20785-27.2667 4.81178-3.2079 11.22749-24.0589 12.83141-4.8117 30.4746-6.4158 36.89032-8.0196 11.2275-19.2471-9.6236-30.4746-4.8118-6.41571-12.8314-6.41571 4.8118 4.81178 6.4157-8.01963-1.6039-4.81178-3.2079h-3.20785l-6.41571 1.604-6.4157-1.604h-6.41571l-11.22748 1.604-11.22749-4.8118-6.41571-3.2079-14.43533 6.4157-8.01964-1.6039-9.62355-9.6236-27.26675-4.81173-8.01964 6.41573-9.62355-3.20788-4.81178-14.43534-9.62356 11.22749-1.60393-12.83141-24.0589 1.60392-16.03926-22.45497 6.41571-9.62356-9.62356-16.03926v-22.45497l-6.41571-12.83141-19.24712-17.64319-35.28638 1.60392-12.83141 11.22749-11.22748 4.81178-3.20786 14.43534-20.85104 1.60392h-8.01963l-9.62356 12.83141-9.62356 9.62356-6.4157-8.01963-8.01964-3.20785-11.22748-9.62356-16.03927-1.60393-14.43533 1.60393-12.83142-11.22749-1.60392-11.22748-35.28638-6.41571-11.22749-9.62356-9.62356-8.01963v-8.01963h4.81178l-11.22748-8.01963-11.22749-4.81178-14.43534-11.22749h-25.66282l-9.62356-11.22748-6.4157-8.01963-1.60393-11.22749-8.01963-8.01963-4.81178-12.83141-3.20785-12.83141-12.83142-8.01964v-11.22748l6.41571 3.20785-6.41571-8.01963-9.62355 1.60393 1.60392-8.01964 1.60393-12.83141-12.83141-20.85104-8.01963-4.81178-1.60393-8.01963h-8.01963v-16.03927l-8.01964-6.4157-19.24711 11.22748-11.22749-3.20785-4.81178-3.20785-9.62356-3.20786-17.64319-9.62355 4.81178-8.01964 9.62356 4.81178 4.81178-9.62356-16.03926-1.60392-6.41571 17.64319 6.41571 19.24712-17.64319-1.60393-3.20786 8.01963-8.01963-6.4157-8.01963-9.62356v-11.22749l-4.81178 4.81178-6.41571-6.4157-3.20785-8.01964-8.01963-1.60392 1.60392-40.09816-19.24711 4.81178-6.41571-27.26675 17.64319-33.68246-17.64319-19.24712-6.4157-8.01963-6.41571-17.64319h-9.62356l-12.83141-6.41571-16.03926-12.83141-19.24712-14.43533h-16.03927l1.60393-3.20786-3.20785-8.01963 8.01963-4.81178-12.83141-19.24712-9.62356 1.60393 8.01963-4.81178-9.62356-3.20785h-8.01963l-11.22748-22.45497-4.81178 1.60392-1.60393-9.62355 9.62356-9.62356v-11.22749h-4.81178v-8.01963l4.81178-16.03926 8.01963 6.4157 6.41571-3.20785-6.41571-6.41571 12.83141-14.43533 1.60393-9.62356 16.03926-6.41571-4.81178-20.85104-4.81177-19.24712 16.03926-6.41571h-16.03926l-19.24712 1.60393-16.03927-11.22748-11.227481 1.60392v-35.28638l-11.227485 3.20785-3.207853-6.4157 1.603926-16.03927-8.019632 1.60393-4.811779-11.22749 4.811779-8.01963-6.415706-1.60392 1.603927-16.03927-14.435338-11.22748 3.207853-11.22749v-4.81178l-4.811779-6.4157-6.415706 1.60392-1.603927-6.4157-8.019632-1.60393-4.811779-6.4157 14.435338-16.03927-3.207853-4.81178 4.811779-12.83141-6.415705 1.60393-3.207853-25.662826-1.603927-8.019632-8.019632-3.207853 4.811779-12.831412-8.019632-6.415705z"/><path id="path3383" d="m688.08444 921.46985 2.40589 10.42552 14.43534-6.4157 12.02945-8.01963h8.82159l6.41571.80196 10.42552-14.43534 8.01963-4.81178-6.4157-3.20785-12.83142 4.00981-7.21767 3.20786-9.62355-.80197 4.00981 5.61375-1.60392 5.61374-6.41571 1.60393z"/><path id="path3387" d="m610.29401 929.48948 7.21767 7.21767.80196-8.82159z"/><path id="path3389" d="m754.64739 903.82666-4.00982 4.81178h4.81178z"/></g></g></svg>