<svg width="23" height="15" viewBox="0 0 23 15" fill="none" xmlns="http://www.w3.org/2000/svg">
<path d="M0.6 10.84C0.6 10.664 0.632 10.4987 0.696 10.344C0.765333 10.184 0.858667 10.048 0.976 9.936C1.09333 9.81867 1.22933 9.728 1.384 9.664C1.544 9.59467 1.71733 9.56 1.904 9.56C2.08533 9.56 2.256 9.59467 2.416 9.664C2.576 9.728 2.71467 9.81867 2.832 9.936C2.94933 10.048 3.04 10.184 3.104 10.344C3.17333 10.4987 3.208 10.664 3.208 10.84C3.208 11.0213 3.17333 11.1893 3.104 11.344C3.04 11.4987 2.94933 11.6347 2.832 11.752C2.71467 11.864 2.576 11.952 2.416 12.016C2.256 12.08 2.08533 12.112 1.904 12.112C1.71733 12.112 1.544 12.08 1.384 12.016C1.22933 11.952 1.09333 11.864 0.976 11.752C0.858667 11.6347 0.765333 11.4987 0.696 11.344C0.632 11.1893 0.6 11.0213 0.6 10.84ZM6.9965 3.752V12.16C6.9965 12.5333 6.9485 12.8827 6.8525 13.208C6.7565 13.5387 6.59917 13.8267 6.3805 14.072C6.16717 14.3173 5.8845 14.512 5.5325 14.656C5.18583 14.8 4.7565 14.872 4.2445 14.872C4.0525 14.872 3.87383 14.8587 3.7085 14.832C3.53783 14.8053 3.3645 14.768 3.1885 14.72L3.2685 13.552C3.27917 13.4453 3.31917 13.3707 3.3885 13.328C3.4525 13.2853 3.58317 13.264 3.7805 13.264C3.97783 13.264 4.1405 13.2453 4.2685 13.208C4.3965 13.176 4.49783 13.1173 4.5725 13.032C4.6525 12.9467 4.7085 12.832 4.7405 12.688C4.7725 12.5493 4.7885 12.3733 4.7885 12.16V3.752H6.9965ZM7.2605 1.408C7.2605 1.59467 7.22317 1.768 7.1485 1.928C7.07383 2.088 6.9725 2.22933 6.8445 2.352C6.72183 2.47467 6.57517 2.57067 6.4045 2.64C6.23917 2.70933 6.0605 2.744 5.8685 2.744C5.68717 2.744 5.51383 2.70933 5.3485 2.64C5.1885 2.57067 5.04717 2.47467 4.9245 2.352C4.80183 2.22933 4.70317 2.088 4.6285 1.928C4.55917 1.768 4.5245 1.59467 4.5245 1.408C4.5245 1.22133 4.55917 1.048 4.6285 0.888C4.70317 0.722666 4.80183 0.578666 4.9245 0.455999C5.04717 0.333333 5.1885 0.237333 5.3485 0.167999C5.51383 0.0986659 5.68717 0.0639992 5.8685 0.0639992C6.0605 0.0639992 6.23917 0.0986659 6.4045 0.167999C6.57517 0.237333 6.72183 0.333333 6.8445 0.455999C6.9725 0.578666 7.07383 0.722666 7.1485 0.888C7.22317 1.048 7.2605 1.22133 7.2605 1.408ZM13.1928 8.552C12.6541 8.57867 12.2061 8.62667 11.8488 8.696C11.4914 8.76 11.2061 8.84533 10.9928 8.952C10.7848 9.05867 10.6354 9.18133 10.5448 9.32C10.4594 9.45333 10.4168 9.6 10.4168 9.76C10.4168 10.08 10.5048 10.3067 10.6808 10.44C10.8621 10.5733 11.1128 10.64 11.4328 10.64C11.8008 10.64 12.1181 10.576 12.3848 10.448C12.6568 10.3147 12.9261 10.1093 13.1928 9.832V8.552ZM8.69675 4.896C9.18208 4.45867 9.71808 4.13333 10.3048 3.92C10.8914 3.70133 11.5261 3.592 12.2088 3.592C12.6994 3.592 13.1368 3.672 13.5208 3.832C13.9101 3.992 14.2381 4.216 14.5048 4.504C14.7768 4.78667 14.9848 5.12533 15.1288 5.52C15.2728 5.91467 15.3448 6.34667 15.3448 6.816V12H14.3368C14.1288 12 13.9688 11.9707 13.8568 11.912C13.7501 11.8533 13.6621 11.7307 13.5928 11.544L13.4168 11.016C13.2088 11.1973 13.0061 11.3573 12.8088 11.496C12.6168 11.6347 12.4168 11.752 12.2088 11.848C12.0008 11.9387 11.7768 12.008 11.5368 12.056C11.3021 12.104 11.0381 12.128 10.7448 12.128C10.3821 12.128 10.0514 12.08 9.75275 11.984C9.45408 11.888 9.19542 11.7467 8.97675 11.56C8.76342 11.368 8.59808 11.1307 8.48075 10.848C8.36342 10.5653 8.30475 10.24 8.30475 9.872C8.30475 9.568 8.38208 9.264 8.53675 8.96C8.69142 8.656 8.95542 8.38133 9.32875 8.136C9.70742 7.88533 10.2088 7.68 10.8328 7.52C11.4621 7.35467 12.2488 7.26133 13.1928 7.24V6.816C13.1928 6.29867 13.0834 5.92 12.8648 5.68C12.6461 5.43467 12.3314 5.312 11.9208 5.312C11.6168 5.312 11.3634 5.34933 11.1608 5.424C10.9581 5.49333 10.7794 5.57067 10.6248 5.656C10.4754 5.736 10.3341 5.81333 10.2008 5.888C10.0674 5.95733 9.91275 5.992 9.73675 5.992C9.58208 5.992 9.45142 5.95467 9.34475 5.88C9.24342 5.8 9.15808 5.70667 9.08875 5.6L8.69675 4.896ZM19.1403 5.112C19.4016 4.64267 19.7029 4.272 20.0443 4C20.3856 3.728 20.7856 3.592 21.2443 3.592C21.6176 3.592 21.9216 3.68 22.1563 3.856L22.0123 5.488C21.9856 5.59467 21.9429 5.66933 21.8843 5.712C21.8309 5.74933 21.7563 5.768 21.6603 5.768C21.5749 5.768 21.4523 5.75733 21.2923 5.736C21.1323 5.70933 20.9829 5.696 20.8443 5.696C20.6416 5.696 20.4603 5.72533 20.3003 5.784C20.1456 5.84267 20.0069 5.92533 19.8843 6.032C19.7616 6.13867 19.6496 6.26933 19.5483 6.424C19.4523 6.57867 19.3616 6.75467 19.2763 6.952V12H17.0683V3.752H18.3723C18.5963 3.752 18.7509 3.792 18.8363 3.872C18.9216 3.952 18.9829 4.09067 19.0203 4.288L19.1403 5.112Z" fill="#509EE3"/>
</svg>
