<svg width="21" height="20" viewBox="0 0 21 20" fill="none" xmlns="http://www.w3.org/2000/svg">
<path fill-rule="evenodd" clip-rule="evenodd" d="M10.906 18.3333C15.4775 18.3333 19.1834 14.6024 19.1834 10C19.1834 5.39763 15.4775 1.66667 10.906 1.66667C6.33455 1.66667 2.62863 5.39763 2.62863 10C2.62863 14.6024 6.33455 18.3333 10.906 18.3333ZM10.906 20C5.42025 20 0.973145 15.5228 0.973145 10C0.973145 4.47715 5.42025 0 10.906 0C16.3918 0 20.8389 4.47715 20.8389 10C20.8389 15.5228 16.3918 20 10.906 20ZM9.71985 12.2011L6.52471 8.9863L5.35446 10.1652L9.72149 14.559L16.7399 7.47749L15.568 6.30029L9.71985 12.2011Z" fill="#509EE3"/>
</svg>
