<?xml version="1.0" encoding="UTF-8" standalone="no"?>
<svg width="50px" height="50px" viewBox="0 0 50 50" version="1.1" xmlns="http://www.w3.org/2000/svg" xmlns:xlink="http://www.w3.org/1999/xlink" xmlns:sketch="http://www.bohemiancoding.com/sketch/ns">
  <g stroke="none" stroke-width="1" fill="none" fill-rule="evenodd">
    <g>
      <g fill="#239F40">
        <ellipse cx="25" cy="5.61692926" rx="2.57575758" ry="2.61692926"></ellipse>
        <ellipse cx="10.5757576" cy="13.9911029" rx="2.57575758" ry="2.61692926"></ellipse>
        <ellipse cx="17.7878788" cy="13.9911029" rx="2.57575758" ry="2.61692926" opacity="0.2"></ellipse>
        <ellipse cx="25" cy="13.9911029" rx="2.57575758" ry="2.61692926" opacity="0.2"></ellipse>
        <ellipse cx="32.2121212" cy="13.9911029" rx="2.57575758" ry="2.61692926" opacity="0.2"></ellipse>
        <ellipse cx="39.4242424" cy="13.9911029" rx="2.57575758" ry="2.61692926"></ellipse>
      </g>
      <g fill="#FFFFFF">
        <ellipse cx="10.5757576" cy="21.3185048" rx="2.57575758" ry="2.61692926"></ellipse>
        <ellipse cx="17.7878788" cy="21.3896853" rx="2.57575758" ry="2.61692926"></ellipse>
        <ellipse cx="25" cy="21.3896853" rx="2.57575758" ry="2.61692926" opacity="0.2"></ellipse>
        <ellipse cx="32.2121212" cy="21.3896853" rx="2.57575758" ry="2.61692926"></ellipse>
        <ellipse cx="39.4242424" cy="21.3896853" rx="2.57575758" ry="2.61692926"></ellipse>
        <ellipse cx="10.5757576" cy="28.6459067" rx="2.57575758" ry="2.61692926"></ellipse>
        <ellipse cx="17.7878788" cy="28.7170872" rx="2.57575758" ry="2.61692926" opacity="0.2"></ellipse>
        <ellipse cx="25" cy="28.7170872" rx="2.57575758" ry="2.61692926"></ellipse>
        <ellipse cx="32.2121212" cy="28.7170872" rx="2.57575758" ry="2.61692926" opacity="0.2"></ellipse>
        <ellipse cx="39.4242424" cy="28.7170872" rx="2.57575758" ry="2.61692926"></ellipse>
      </g>
      <g fill="#DA0000">
        <ellipse cx="10.5757576" cy="35.9733086" rx="2.57575758" ry="2.61692926"></ellipse>
        <ellipse cx="17.7878788" cy="36.0444891" rx="2.57575758" ry="2.61692926" opacity="0.2"></ellipse>
        <ellipse cx="25" cy="36.0444891" rx="2.57575758" ry="2.61692926" opacity="0.2"></ellipse>
        <ellipse cx="32.2121212" cy="36.0444891" rx="2.57575758" ry="2.61692926" opacity="0.2"></ellipse>
        <ellipse cx="39.4242424" cy="36.0444891" rx="2.57575758" ry="2.61692926"></ellipse>
        <ellipse cx="25" cy="43.371891" rx="2.57575758" ry="2.61692926" opacity="0.2"></ellipse>
      </g>
    </g>
  </g>
</svg>


