<svg width="1120" height="338" viewBox="0 0 1120 338" fill="none" xmlns="http://www.w3.org/2000/svg">
<rect x="133.75" y="225.75" width="159.939" height="118.5" rx="7.25" fill="#CBE2F7" stroke="#509EE3" stroke-width="1.5"/>
<rect x="152.484" y="241.744" width="122.471" height="72.5581" rx="4" fill="#EEF6FD" stroke="#509EE3" stroke-width="1.5"/>
<path d="M220.402 273.209H223.185C223.185 278.147 220.268 281.582 214.835 281.582C209.403 281.582 206.485 278.147 206.485 273.209H209.268C209.268 276 210.66 278.791 214.835 278.791C219.01 278.791 220.402 276 220.402 273.209Z" fill="#509EE3"/>
<ellipse cx="191.871" cy="259.954" rx="4.871" ry="4.88372" fill="#509EE3"/>
<ellipse cx="236.407" cy="259.954" rx="4.87099" ry="4.88372" fill="#509EE3"/>
<path d="M258.896 328.256C258.896 330.926 256.737 333.087 254.079 333.087C251.421 333.087 249.262 330.926 249.262 328.256C249.262 325.586 251.421 323.424 254.079 323.424C256.737 323.424 258.896 325.586 258.896 328.256Z" fill="#CBE2F7" stroke="#509EE3" stroke-width="1.5"/>
<path d="M274.205 328.256C274.205 330.926 272.047 333.087 269.388 333.087C266.73 333.087 264.571 330.926 264.571 328.256C264.571 325.586 266.73 323.424 269.388 323.424C272.047 323.424 274.205 325.586 274.205 328.256Z" fill="#CBE2F7" stroke="#509EE3" stroke-width="1.5"/>
<path d="M413.422 128C401.946 128 392.072 135.058 387.535 145.142C384.243 141.383 379.528 139 374.28 139C366.985 139 360.758 143.492 358 150H441C437.886 137.35 426.677 128 413.422 128Z" fill="#EEF6FC"/>
<path d="M135.578 39.5C132.248 39.5 129.123 40.4844 126.541 42.1906C121.853 34.3156 113.089 29 102.966 29C92.8429 29 84.0786 34.3156 79.3907 42.1906C76.8089 40.4844 73.6836 39.5 70.3546 39.5C63.2887 39.5 57.242 43.8969 55 50H151C148.69 43.8969 142.643 39.5 135.578 39.5Z" fill="#EEF6FC"/>
<path d="M9.8746 270C26.0515 270 39.971 279.625 46.3665 293.375C51.0064 288.25 57.6527 285 65.0515 285C75.3344 285 84.1125 291.125 88 300H-29C-24.6109 282.75 -8.81029 270 9.8746 270Z" fill="#EEF6FC"/>
<g filter="url(#filter0_d_2856_46)">
<rect x="144" y="50" width="140" height="140" rx="24" fill="white"/>
<rect x="144.75" y="50.75" width="138.5" height="138.5" rx="23.25" stroke="#C2DAF0" stroke-width="1.5"/>
</g>
<path fill-rule="evenodd" clip-rule="evenodd" d="M187.456 106.244C190.044 106.244 192.142 104.119 192.142 101.497C192.142 98.8754 190.044 96.75 187.456 96.75C184.868 96.75 182.77 98.8754 182.77 101.497C182.77 104.119 184.868 106.244 187.456 106.244Z" fill="#509EE3"/>
<path fill-rule="evenodd" clip-rule="evenodd" d="M187.456 119.536C190.044 119.536 192.142 117.411 192.142 114.789C192.142 112.167 190.044 110.042 187.456 110.042C184.868 110.042 182.77 112.167 182.77 114.789C182.77 117.411 184.868 119.536 187.456 119.536Z" fill="#509EE3"/>
<path fill-rule="evenodd" clip-rule="evenodd" d="M200.578 119.666C203.166 119.666 205.264 117.54 205.264 114.919C205.264 112.297 203.166 110.171 200.578 110.171C197.989 110.171 195.891 112.297 195.891 114.919C195.891 117.54 197.989 119.666 200.578 119.666Z" fill="#509EE3"/>
<path fill-rule="evenodd" clip-rule="evenodd" d="M239.944 106.244C242.532 106.244 244.631 104.119 244.631 101.497C244.631 98.8754 242.532 96.75 239.944 96.75C237.356 96.75 235.258 98.8754 235.258 101.497C235.258 104.119 237.356 106.244 239.944 106.244Z" fill="#509EE3"/>
<path fill-rule="evenodd" clip-rule="evenodd" d="M226.822 119.666C229.41 119.666 231.509 117.54 231.509 114.919C231.509 112.297 229.41 110.171 226.822 110.171C224.234 110.171 222.136 112.297 222.136 114.919C222.136 117.54 224.234 119.666 226.822 119.666Z" fill="#509EE3"/>
<path fill-rule="evenodd" clip-rule="evenodd" d="M239.944 119.666C242.532 119.666 244.631 117.54 244.631 114.919C244.631 112.297 242.532 110.171 239.944 110.171C237.356 110.171 235.258 112.297 235.258 114.919C235.258 117.54 237.356 119.666 239.944 119.666Z" fill="#509EE3"/>
<path fill-rule="evenodd" clip-rule="evenodd" d="M187.456 132.829C190.044 132.829 192.142 130.703 192.142 128.082C192.142 125.46 190.044 123.334 187.456 123.334C184.868 123.334 182.77 125.46 182.77 128.082C182.77 130.703 184.868 132.829 187.456 132.829Z" fill="#509EE3"/>
<path fill-rule="evenodd" clip-rule="evenodd" d="M213.7 132.958C216.288 132.958 218.387 130.832 218.387 128.211C218.387 125.589 216.288 123.463 213.7 123.463C211.112 123.463 209.014 125.589 209.014 128.211C209.014 130.832 211.112 132.958 213.7 132.958Z" fill="#509EE3"/>
<path fill-rule="evenodd" clip-rule="evenodd" d="M239.944 132.958C242.532 132.958 244.631 130.832 244.631 128.211C244.631 125.589 242.532 123.463 239.944 123.463C237.356 123.463 235.258 125.589 235.258 128.211C235.258 130.832 237.356 132.958 239.944 132.958Z" fill="#509EE3"/>
<path fill-rule="evenodd" clip-rule="evenodd" d="M187.456 146.121C190.044 146.121 192.142 143.995 192.142 141.374C192.142 138.752 190.044 136.626 187.456 136.626C184.868 136.626 182.77 138.752 182.77 141.374C182.77 143.995 184.868 146.121 187.456 146.121Z" fill="#509EE3"/>
<path fill-rule="evenodd" clip-rule="evenodd" d="M239.944 146.25C242.532 146.25 244.631 144.125 244.631 141.503C244.631 138.881 242.532 136.756 239.944 136.756C237.356 136.756 235.258 138.881 235.258 141.503C235.258 144.125 237.356 146.25 239.944 146.25Z" fill="#509EE3"/>
<path fill-rule="evenodd" clip-rule="evenodd" d="M200.892 105.947C203.492 105.947 205.6 103.831 205.6 101.221C205.6 98.6117 203.492 96.4961 200.892 96.4961C198.293 96.4961 196.185 98.6117 196.185 101.221C196.185 103.831 198.293 105.947 200.892 105.947Z" fill="#C2DAF0"/>
<path fill-rule="evenodd" clip-rule="evenodd" d="M214.072 105.947C216.672 105.947 218.78 103.831 218.78 101.221C218.78 98.6117 216.672 96.4961 214.072 96.4961C211.473 96.4961 209.365 98.6117 209.365 101.221C209.365 103.831 211.473 105.947 214.072 105.947Z" fill="#C2DAF0"/>
<path fill-rule="evenodd" clip-rule="evenodd" d="M214.072 90.8258C216.672 90.8258 218.78 88.7102 218.78 86.1004C218.78 83.4906 216.672 81.375 214.072 81.375C211.473 81.375 209.365 83.4906 209.365 86.1004C209.365 88.7102 211.473 90.8258 214.072 90.8258Z" fill="#C2DAF0"/>
<path fill-rule="evenodd" clip-rule="evenodd" d="M214.072 119.306C216.672 119.306 218.78 117.191 218.78 114.581C218.78 111.971 216.672 109.855 214.072 109.855C211.473 109.855 209.365 111.971 209.365 114.581C209.365 117.191 211.473 119.306 214.072 119.306Z" fill="#C2DAF0"/>
<path fill-rule="evenodd" clip-rule="evenodd" d="M227.253 105.947C229.853 105.947 231.96 103.831 231.96 101.221C231.96 98.6117 229.853 96.4961 227.253 96.4961C224.653 96.4961 222.546 98.6117 222.546 101.221C222.546 103.831 224.653 105.947 227.253 105.947Z" fill="#C2DAF0"/>
<path fill-rule="evenodd" clip-rule="evenodd" d="M200.892 132.538C203.492 132.538 205.6 130.423 205.6 127.813C205.6 125.203 203.492 123.087 200.892 123.087C198.293 123.087 196.185 125.203 196.185 127.813C196.185 130.423 198.293 132.538 200.892 132.538Z" fill="#C2DAF0"/>
<path fill-rule="evenodd" clip-rule="evenodd" d="M227.253 132.538C229.853 132.538 231.96 130.423 231.96 127.813C231.96 125.203 229.853 123.087 227.253 123.087C224.653 123.087 222.546 125.203 222.546 127.813C222.546 130.423 224.653 132.538 227.253 132.538Z" fill="#C2DAF0"/>
<path fill-rule="evenodd" clip-rule="evenodd" d="M200.892 145.769C203.492 145.769 205.6 143.654 205.6 141.044C205.6 138.434 203.492 136.318 200.892 136.318C198.293 136.318 196.185 138.434 196.185 141.044C196.185 143.654 198.293 145.769 200.892 145.769Z" fill="#C2DAF0"/>
<path fill-rule="evenodd" clip-rule="evenodd" d="M214.072 145.769C216.672 145.769 218.78 143.654 218.78 141.044C218.78 138.434 216.672 136.318 214.072 136.318C211.473 136.318 209.365 138.434 209.365 141.044C209.365 143.654 211.473 145.769 214.072 145.769Z" fill="#C2DAF0"/>
<path fill-rule="evenodd" clip-rule="evenodd" d="M214.072 159C216.672 159 218.78 156.884 218.78 154.275C218.78 151.665 216.672 149.549 214.072 149.549C211.473 149.549 209.365 151.665 209.365 154.275C209.365 156.884 211.473 159 214.072 159Z" fill="#C2DAF0"/>
<path fill-rule="evenodd" clip-rule="evenodd" d="M227.253 145.769C229.853 145.769 231.96 143.654 231.96 141.044C231.96 138.434 229.853 136.318 227.253 136.318C224.653 136.318 222.546 138.434 222.546 141.044C222.546 143.654 224.653 145.769 227.253 145.769Z" fill="#C2DAF0"/>
<defs>
<filter id="filter0_d_2856_46" x="94" y="0" width="240" height="240" filterUnits="userSpaceOnUse" color-interpolation-filters="sRGB">
<feFlood flood-opacity="0" result="BackgroundImageFix"/>
<feColorMatrix in="SourceAlpha" type="matrix" values="0 0 0 0 0 0 0 0 0 0 0 0 0 0 0 0 0 0 127 0" result="hardAlpha"/>
<feMorphology radius="30" operator="dilate" in="SourceAlpha" result="effect1_dropShadow_2856_46"/>
<feOffset/>
<feGaussianBlur stdDeviation="10"/>
<feComposite in2="hardAlpha" operator="out"/>
<feColorMatrix type="matrix" values="0 0 0 0 1 0 0 0 0 1 0 0 0 0 1 0 0 0 0.25 0"/>
<feBlend mode="normal" in2="BackgroundImageFix" result="effect1_dropShadow_2856_46"/>
<feBlend mode="normal" in="SourceGraphic" in2="effect1_dropShadow_2856_46" result="shape"/>
</filter>
</defs>
</svg>

