<svg width="19" height="17" viewBox="0 0 19 17" fill="none" xmlns="http://www.w3.org/2000/svg">
<path d="M4.832 16.388C3.344 16.388 2.204 15.836 1.412 14.732C0.62 13.604 0.224 12.056 0.224 10.088C0.224 8.072 0.776 6.296 1.88 4.76C2.984 3.224 4.676 1.952 6.956 0.943999L8.504 4.148C7.112 4.724 6.068 5.432 5.372 6.272C4.7 7.112 4.364 8.132 4.364 9.332L4.4 13.004L2.204 9.872C2.54 9.608 2.972 9.38 3.5 9.188C4.052 8.972 4.556 8.864 5.012 8.864C6.068 8.864 6.92 9.188 7.568 9.836C8.24 10.484 8.576 11.348 8.576 12.428C8.576 13.628 8.216 14.588 7.496 15.308C6.8 16.028 5.912 16.388 4.832 16.388ZM14.912 16.388C13.424 16.388 12.284 15.836 11.492 14.732C10.7 13.604 10.304 12.056 10.304 10.088C10.304 8.072 10.856 6.296 11.96 4.76C13.064 3.224 14.756 1.952 17.036 0.943999L18.584 4.148C17.192 4.724 16.148 5.432 15.452 6.272C14.78 7.112 14.444 8.132 14.444 9.332L14.48 13.004L12.284 9.872C12.62 9.608 13.052 9.38 13.58 9.188C14.132 8.972 14.636 8.864 15.092 8.864C16.148 8.864 17 9.188 17.648 9.836C18.32 10.484 18.656 11.348 18.656 12.428C18.656 13.628 18.296 14.588 17.576 15.308C16.88 16.028 15.992 16.388 14.912 16.388Z" fill="#509EE3"/>
</svg>
