<svg width="409" height="281" viewBox="0 0 409 281" fill="none" xmlns="http://www.w3.org/2000/svg">
<g opacity="0.3">
<path d="M408.7 96.8129L0.300764 24.8012" stroke="white"/>
<path d="M408.7 123.354L0.300764 51.3425" stroke="white"/>
<path d="M408.7 149.895L0.300764 77.8832" stroke="white"/>
<path d="M408.7 176.435L0.300764 104.424" stroke="white"/>
<path d="M408.7 202.977L0.300764 130.965" stroke="white"/>
<path d="M408.7 229.518L0.300764 157.506" stroke="white"/>
<path d="M408.7 256.058L0.300764 184.046" stroke="white"/>
<path d="M204.756 36.5L204.756 168.037" stroke="white"/>
<path d="M204.498 167.624L204.498 244" stroke="white"/>
<path d="M204.5 194.76C205.194 194.883 205.725 194.437 205.725 193.732C205.725 193.027 205.194 192.394 204.5 192.272C203.806 192.15 203.275 192.595 203.275 193.3C203.275 194.005 203.806 194.638 204.5 194.76Z" fill="white" stroke="white"/>
<path d="M204.5 221.3C205.194 221.423 205.725 220.977 205.725 220.272C205.725 219.567 205.194 218.934 204.5 218.812C203.806 218.69 203.275 219.135 203.275 219.84C203.275 220.545 203.806 221.178 204.5 221.3Z" fill="white" stroke="white"/>
<path d="M204.5 88.5966C205.194 88.719 205.725 88.2735 205.725 87.5685C205.725 86.8635 205.194 86.2308 204.5 86.1084C203.806 85.9859 203.275 86.4314 203.275 87.1364C203.275 87.8414 203.806 88.4741 204.5 88.5966Z" fill="white" stroke="white"/>
<path d="M204.5 62.0565C205.194 62.1789 205.725 61.7335 205.725 61.0285C205.725 60.3235 205.194 59.6908 204.5 59.5683C203.806 59.4459 203.275 59.8914 203.275 60.5964C203.275 61.3014 203.806 61.9341 204.5 62.0565Z" fill="white" stroke="white"/>
<path d="M230.636 41.3682L230.636 248.718" stroke="white"/>
<path d="M230.638 199.369C231.332 199.491 231.863 199.046 231.863 198.341C231.863 197.636 231.332 197.003 230.638 196.881C229.944 196.758 229.413 197.204 229.413 197.909C229.413 198.614 229.944 199.247 230.638 199.369Z" fill="white" stroke="white"/>
<path d="M230.638 225.909C231.332 226.031 231.863 225.586 231.863 224.881C231.863 224.176 231.332 223.543 230.638 223.421C229.944 223.298 229.413 223.744 229.413 224.449C229.413 225.154 229.944 225.786 230.638 225.909Z" fill="white" stroke="white"/>
<path d="M230.638 93.2055C231.332 93.3279 231.863 92.8824 231.863 92.1774C231.863 91.4724 231.332 90.8397 230.638 90.7173C229.944 90.5948 229.413 91.0403 229.413 91.7453C229.413 92.4503 229.944 93.083 230.638 93.2055Z" fill="white" stroke="white"/>
<path d="M230.638 66.6652C231.332 66.7876 231.863 66.3421 231.863 65.6371C231.863 64.9321 231.332 64.2994 230.638 64.177C229.944 64.0546 229.413 64.5 229.413 65.205C229.413 65.91 229.944 66.5427 230.638 66.6652Z" fill="white" stroke="white"/>
<path d="M256.772 45.9766L256.772 253.326" stroke="white"/>
<path d="M256.772 124.354C257.466 124.476 257.997 124.031 257.997 123.326C257.997 122.621 257.466 121.988 256.772 121.865C256.078 121.743 255.547 122.189 255.547 122.894C255.547 123.599 256.078 124.231 256.772 124.354Z" fill="white" stroke="white"/>
<path d="M256.772 150.896C257.466 151.018 257.997 150.573 257.997 149.868C257.997 149.163 257.466 148.53 256.772 148.407C256.078 148.285 255.547 148.731 255.547 149.436C255.547 150.14 256.078 150.773 256.772 150.896Z" fill="white" stroke="white"/>
<path d="M256.772 177.436C257.466 177.558 257.997 177.113 257.997 176.408C257.997 175.703 257.466 175.07 256.772 174.947C256.078 174.825 255.547 175.271 255.547 175.976C255.547 176.681 256.078 177.313 256.772 177.436Z" fill="white" stroke="white"/>
<path d="M256.772 203.977C257.466 204.099 257.997 203.654 257.997 202.949C257.997 202.244 257.466 201.611 256.772 201.489C256.078 201.366 255.547 201.812 255.547 202.517C255.547 203.222 256.078 203.855 256.772 203.977Z" fill="white" stroke="white"/>
<path d="M256.772 230.517C257.466 230.639 257.997 230.194 257.997 229.489C257.997 228.784 257.466 228.151 256.772 228.029C256.078 227.906 255.547 228.352 255.547 229.057C255.547 229.762 256.078 230.395 256.772 230.517Z" fill="white" stroke="white"/>
<path d="M256.772 97.8136C257.466 97.936 257.997 97.4905 257.997 96.7855C257.997 96.0806 257.466 95.4478 256.772 95.3254C256.078 95.203 255.547 95.6485 255.547 96.3535C255.547 97.0585 256.078 97.6912 256.772 97.8136Z" fill="white" stroke="white"/>
<path d="M256.772 71.2733C257.466 71.3957 257.997 70.9502 257.997 70.2453C257.997 69.5403 257.466 68.9075 256.772 68.7851C256.078 68.6627 255.547 69.1082 255.547 69.8132C255.547 70.5182 256.078 71.1509 256.772 71.2733Z" fill="white" stroke="white"/>
<path d="M282.908 50.585L282.908 257.935" stroke="white"/>
<path d="M282.914 128.963C283.608 129.085 284.139 128.64 284.139 127.935C284.139 127.23 283.608 126.597 282.914 126.475C282.219 126.352 281.688 126.798 281.688 127.503C281.688 128.208 282.219 128.841 282.914 128.963Z" fill="white" stroke="white"/>
<path d="M282.914 155.505C283.608 155.627 284.139 155.182 284.139 154.477C284.139 153.772 283.608 153.139 282.914 153.017C282.219 152.894 281.688 153.34 281.688 154.045C281.688 154.75 282.219 155.383 282.914 155.505Z" fill="white" stroke="white"/>
<path d="M282.914 182.045C283.608 182.167 284.139 181.722 284.139 181.017C284.139 180.312 283.608 179.679 282.914 179.557C282.219 179.434 281.688 179.88 281.688 180.585C281.688 181.29 282.219 181.923 282.914 182.045Z" fill="white" stroke="white"/>
<path d="M282.914 208.587C283.608 208.709 284.139 208.263 284.139 207.558C284.139 206.854 283.608 206.221 282.914 206.098C282.219 205.976 281.688 206.421 281.688 207.126C281.688 207.831 282.219 208.464 282.914 208.587Z" fill="white" stroke="white"/>
<path d="M282.914 235.127C283.608 235.249 284.139 234.804 284.139 234.099C284.139 233.394 283.608 232.761 282.914 232.638C282.219 232.516 281.688 232.961 281.688 233.666C281.688 234.371 282.219 235.004 282.914 235.127Z" fill="white" stroke="white"/>
<path d="M282.914 102.423C283.608 102.545 284.139 102.1 284.139 101.395C284.139 100.69 283.608 100.057 282.914 99.9348C282.219 99.8124 281.688 100.258 281.688 100.963C281.688 101.668 282.219 102.301 282.914 102.423Z" fill="white" stroke="white"/>
<path d="M282.914 75.8827C283.608 76.0051 284.139 75.5596 284.139 74.8546C284.139 74.1496 283.608 73.5169 282.914 73.3945C282.219 73.2721 281.688 73.7176 281.688 74.4226C281.688 75.1276 282.219 75.7603 282.914 75.8827Z" fill="white" stroke="white"/>
<path d="M309.049 55.1943L309.049 262.544" stroke="white"/>
<path d="M309.051 133.572C309.746 133.694 310.277 133.249 310.277 132.544C310.277 131.839 309.746 131.206 309.051 131.084C308.357 130.961 307.826 131.407 307.826 132.112C307.826 132.817 308.357 133.449 309.051 133.572Z" fill="white" stroke="white"/>
<path d="M309.051 160.114C309.746 160.236 310.277 159.791 310.277 159.086C310.277 158.381 309.746 157.748 309.051 157.626C308.357 157.503 307.826 157.949 307.826 158.654C307.826 159.359 308.357 159.991 309.051 160.114Z" fill="white" stroke="white"/>
<path d="M309.051 186.654C309.746 186.776 310.277 186.331 310.277 185.626C310.277 184.921 309.746 184.288 309.051 184.166C308.357 184.043 307.826 184.489 307.826 185.194C307.826 185.899 308.357 186.532 309.051 186.654Z" fill="white" stroke="white"/>
<path d="M309.051 213.195C309.746 213.318 310.277 212.872 310.277 212.167C310.277 211.462 309.746 210.829 309.051 210.707C308.357 210.585 307.826 211.03 307.826 211.735C307.826 212.44 308.357 213.073 309.051 213.195Z" fill="white" stroke="white"/>
<path d="M309.051 239.735C309.746 239.858 310.277 239.412 310.277 238.707C310.277 238.002 309.746 237.369 309.051 237.247C308.357 237.125 307.826 237.57 307.826 238.275C307.826 238.98 308.357 239.613 309.051 239.735Z" fill="white" stroke="white"/>
<path d="M309.051 107.032C309.746 107.154 310.277 106.709 310.277 106.004C310.277 105.299 309.746 104.666 309.051 104.544C308.357 104.421 307.826 104.867 307.826 105.572C307.826 106.277 308.357 106.909 309.051 107.032Z" fill="white" stroke="white"/>
<path d="M309.051 80.4916C309.746 80.614 310.277 80.1685 310.277 79.4635C310.277 78.7585 309.746 78.1258 309.051 78.0034C308.357 77.881 307.826 78.3265 307.826 79.0315C307.826 79.7364 308.357 80.3692 309.051 80.4916Z" fill="white" stroke="white"/>
<path d="M335.187 59.8032L335.187 267.153" stroke="white"/>
<path d="M335.187 138.18C335.882 138.303 336.412 137.857 336.412 137.152C336.412 136.447 335.882 135.815 335.187 135.692C334.493 135.57 333.962 136.015 333.962 136.72C333.962 137.425 334.493 138.058 335.187 138.18Z" fill="white" stroke="white"/>
<path d="M335.187 164.722C335.882 164.845 336.412 164.399 336.412 163.694C336.412 162.989 335.882 162.357 335.187 162.234C334.493 162.112 333.962 162.557 333.962 163.262C333.962 163.967 334.493 164.6 335.187 164.722Z" fill="white" stroke="white"/>
<path d="M335.187 191.262C335.882 191.385 336.412 190.939 336.412 190.234C336.412 189.529 335.882 188.897 335.187 188.774C334.493 188.652 333.962 189.097 333.962 189.802C333.962 190.507 334.493 191.14 335.187 191.262Z" fill="white" stroke="white"/>
<path d="M335.187 217.804C335.882 217.926 336.412 217.481 336.412 216.776C336.412 216.071 335.882 215.438 335.187 215.316C334.493 215.193 333.962 215.639 333.962 216.344C333.962 217.049 334.493 217.681 335.187 217.804Z" fill="white" stroke="white"/>
<path d="M335.187 244.344C335.882 244.466 336.412 244.021 336.412 243.316C336.412 242.611 335.882 241.978 335.187 241.855C334.493 241.733 333.962 242.179 333.962 242.884C333.962 243.588 334.493 244.221 335.187 244.344Z" fill="white" stroke="white"/>
<path d="M335.187 111.64C335.882 111.763 336.412 111.317 336.412 110.612C336.412 109.907 335.882 109.274 335.187 109.152C334.493 109.03 333.962 109.475 333.962 110.18C333.962 110.885 334.493 111.518 335.187 111.64Z" fill="white" stroke="white"/>
<path d="M335.187 85.1002C335.882 85.2226 336.412 84.7772 336.412 84.0722C336.412 83.3672 335.882 82.7345 335.187 82.612C334.493 82.4896 333.962 82.9351 333.962 83.6401C333.962 84.3451 334.493 84.9778 335.187 85.1002Z" fill="white" stroke="white"/>
<path d="M361.323 64.4116L361.323 271.761" stroke="white"/>
<path d="M361.323 142.789C362.017 142.911 362.548 142.466 362.548 141.761C362.548 141.056 362.017 140.423 361.323 140.301C360.629 140.178 360.098 140.624 360.098 141.329C360.098 142.034 360.629 142.666 361.323 142.789Z" fill="white" stroke="white"/>
<path d="M361.323 169.331C362.017 169.453 362.548 169.008 362.548 168.303C362.548 167.598 362.017 166.965 361.323 166.843C360.629 166.72 360.098 167.166 360.098 167.871C360.098 168.576 360.629 169.209 361.323 169.331Z" fill="white" stroke="white"/>
<path d="M361.323 195.871C362.017 195.993 362.548 195.548 362.548 194.843C362.548 194.138 362.017 193.505 361.323 193.383C360.629 193.26 360.098 193.706 360.098 194.411C360.098 195.116 360.629 195.748 361.323 195.871Z" fill="white" stroke="white"/>
<path d="M361.323 222.412C362.017 222.535 362.548 222.089 362.548 221.384C362.548 220.679 362.017 220.046 361.323 219.924C360.629 219.802 360.098 220.247 360.098 220.952C360.098 221.657 360.629 222.29 361.323 222.412Z" fill="white" stroke="white"/>
<path d="M361.323 248.952C362.017 249.075 362.548 248.629 362.548 247.924C362.548 247.219 362.017 246.587 361.323 246.464C360.629 246.342 360.098 246.787 360.098 247.492C360.098 248.197 360.629 248.83 361.323 248.952Z" fill="white" stroke="white"/>
<path d="M361.323 116.249C362.017 116.371 362.548 115.926 362.548 115.221C362.548 114.516 362.017 113.883 361.323 113.761C360.629 113.638 360.098 114.084 360.098 114.789C360.098 115.494 360.629 116.126 361.323 116.249Z" fill="white" stroke="white"/>
<path d="M361.323 89.7086C362.017 89.831 362.548 89.3856 362.548 88.6806C362.548 87.9756 362.017 87.3428 361.323 87.2204C360.629 87.098 360.098 87.5435 360.098 88.2485C360.098 88.9535 360.629 89.5862 361.323 89.7086Z" fill="white" stroke="white"/>
<path d="M387.465 69.0212L387.465 276.371" stroke="white"/>
<path d="M387.465 147.398C388.159 147.521 388.69 147.075 388.69 146.37C388.69 145.665 388.159 145.033 387.465 144.91C386.771 144.788 386.24 145.233 386.24 145.938C386.24 146.643 386.771 147.276 387.465 147.398Z" fill="white" stroke="white"/>
<path d="M387.465 173.94C388.159 174.063 388.69 173.617 388.69 172.912C388.69 172.207 388.159 171.575 387.465 171.452C386.771 171.33 386.24 171.775 386.24 172.48C386.24 173.185 386.771 173.818 387.465 173.94Z" fill="white" stroke="white"/>
<path d="M387.465 200.48C388.159 200.603 388.69 200.157 388.69 199.452C388.69 198.747 388.159 198.115 387.465 197.992C386.771 197.87 386.24 198.315 386.24 199.02C386.24 199.725 386.771 200.358 387.465 200.48Z" fill="white" stroke="white"/>
<path d="M387.465 227.022C388.159 227.144 388.69 226.699 388.69 225.994C388.69 225.289 388.159 224.656 387.465 224.533C386.771 224.411 386.24 224.856 386.24 225.561C386.24 226.266 386.771 226.899 387.465 227.022Z" fill="white" stroke="white"/>
<path d="M387.465 253.562C388.159 253.684 388.69 253.239 388.69 252.534C388.69 251.829 388.159 251.196 387.465 251.073C386.771 250.951 386.24 251.397 386.24 252.102C386.24 252.807 386.771 253.439 387.465 253.562Z" fill="white" stroke="white"/>
<path d="M387.465 120.858C388.159 120.981 388.69 120.535 388.69 119.83C388.69 119.125 388.159 118.493 387.465 118.37C386.771 118.248 386.24 118.693 386.24 119.398C386.24 120.103 386.771 120.736 387.465 120.858Z" fill="white" stroke="white"/>
<path d="M387.465 94.318C388.159 94.4404 388.69 93.9949 388.69 93.2899C388.69 92.5849 388.159 91.9522 387.465 91.8298C386.771 91.7074 386.24 92.1529 386.24 92.8579C386.24 93.5629 386.771 94.1956 387.465 94.318Z" fill="white" stroke="white"/>
<path d="M178.362 32.1509L178.362 239.5" stroke="white"/>
<path d="M178.364 190.151C179.059 190.274 179.589 189.828 179.589 189.123C179.589 188.418 179.059 187.786 178.364 187.663C177.67 187.541 177.139 187.986 177.139 188.691C177.139 189.396 177.67 190.029 178.364 190.151Z" fill="white" stroke="white"/>
<path d="M178.364 216.692C179.059 216.814 179.589 216.368 179.589 215.663C179.589 214.958 179.059 214.326 178.364 214.203C177.67 214.081 177.139 214.526 177.139 215.231C177.139 215.936 177.67 216.569 178.364 216.692Z" fill="white" stroke="white"/>
<path d="M178.364 83.9882C179.059 84.1106 179.589 83.6651 179.589 82.9601C179.589 82.2551 179.059 81.6224 178.364 81.5C177.67 81.3776 177.139 81.823 177.139 82.528C177.139 83.233 177.67 83.8657 178.364 83.9882Z" fill="white" stroke="white"/>
<path d="M178.364 57.4479C179.059 57.5703 179.589 57.1248 179.589 56.4198C179.589 55.7148 179.059 55.0821 178.364 54.9597C177.67 54.8373 177.139 55.2828 177.139 55.9877C177.139 56.6927 177.67 57.3255 178.364 57.4479Z" fill="white" stroke="white"/>
<path d="M152.221 27.5413L152.221 234.891" stroke="white"/>
<path d="M152.228 105.92C152.923 106.042 153.454 105.597 153.454 104.892C153.454 104.187 152.923 103.554 152.228 103.432C151.534 103.309 151.003 103.755 151.003 104.46C151.003 105.165 151.534 105.797 152.228 105.92Z" fill="white" stroke="white"/>
<path d="M152.228 132.462C152.923 132.584 153.454 132.139 153.454 131.434C153.454 130.729 152.923 130.096 152.228 129.974C151.534 129.851 151.003 130.297 151.003 131.002C151.003 131.707 151.534 132.339 152.228 132.462Z" fill="white" stroke="white"/>
<path d="M152.228 159.002C152.923 159.124 153.454 158.679 153.454 157.974C153.454 157.269 152.923 156.636 152.228 156.514C151.534 156.391 151.003 156.837 151.003 157.542C151.003 158.247 151.534 158.879 152.228 159.002Z" fill="white" stroke="white"/>
<path d="M152.228 185.543C152.923 185.666 153.454 185.22 153.454 184.515C153.454 183.81 152.923 183.177 152.228 183.055C151.534 182.932 151.003 183.378 151.003 184.083C151.003 184.788 151.534 185.421 152.228 185.543Z" fill="white" stroke="white"/>
<path d="M152.228 212.083C152.923 212.206 153.454 211.76 153.454 211.055C153.454 210.35 152.923 209.717 152.228 209.595C151.534 209.473 151.003 209.918 151.003 210.623C151.003 211.328 151.534 211.961 152.228 212.083Z" fill="white" stroke="white"/>
<path d="M152.228 79.3798C152.923 79.5022 153.454 79.0567 153.454 78.3517C153.454 77.6467 152.923 77.014 152.228 76.8916C151.534 76.7692 151.003 77.2146 151.003 77.9196C151.003 78.6246 151.534 79.2573 152.228 79.3798Z" fill="white" stroke="white"/>
<path d="M152.228 52.8395C152.923 52.9619 153.454 52.5164 153.454 51.8114C153.454 51.1064 152.923 50.4737 152.228 50.3513C151.534 50.2289 151.003 50.6744 151.003 51.3794C151.003 52.0843 151.534 52.7171 152.228 52.8395Z" fill="white" stroke="white"/>
<path d="M126.083 22.9326L126.083 230.282" stroke="white"/>
<path d="M126.085 101.31C126.779 101.432 127.31 100.987 127.31 100.282C127.31 99.5769 126.779 98.9442 126.085 98.8217C125.391 98.6993 124.86 99.1448 124.86 99.8498C124.86 100.555 125.391 101.188 126.085 101.31Z" fill="white" stroke="white"/>
<path d="M126.085 127.852C126.779 127.974 127.31 127.529 127.31 126.824C127.31 126.119 126.779 125.486 126.085 125.364C125.391 125.241 124.86 125.687 124.86 126.392C124.86 127.097 125.391 127.73 126.085 127.852Z" fill="white" stroke="white"/>
<path d="M126.085 154.392C126.779 154.514 127.31 154.069 127.31 153.364C127.31 152.659 126.779 152.026 126.085 151.904C125.391 151.781 124.86 152.227 124.86 152.932C124.86 153.637 125.391 154.27 126.085 154.392Z" fill="white" stroke="white"/>
<path d="M126.085 180.933C126.779 181.056 127.31 180.61 127.31 179.905C127.31 179.2 126.779 178.568 126.085 178.445C125.391 178.323 124.86 178.768 124.86 179.473C124.86 180.178 125.391 180.811 126.085 180.933Z" fill="white" stroke="white"/>
<path d="M126.085 207.473C126.779 207.596 127.31 207.15 127.31 206.445C127.31 205.74 126.779 205.107 126.085 204.985C125.391 204.863 124.86 205.308 124.86 206.013C124.86 206.718 125.391 207.351 126.085 207.473Z" fill="white" stroke="white"/>
<path d="M126.085 74.7699C126.779 74.8923 127.31 74.4468 127.31 73.7418C127.31 73.0369 126.779 72.4041 126.085 72.2817C125.391 72.1593 124.86 72.6048 124.86 73.3098C124.86 74.0148 125.391 74.6475 126.085 74.7699Z" fill="white" stroke="white"/>
<path d="M126.085 48.2296C126.779 48.352 127.31 47.9065 127.31 47.2016C127.31 46.4966 126.779 45.8638 126.085 45.7414C125.391 45.619 124.86 46.0645 124.86 46.7695C124.86 47.4745 125.391 48.1072 126.085 48.2296Z" fill="white" stroke="white"/>
<path d="M99.9472 18.324L99.9472 225.674" stroke="white"/>
<path d="M99.949 96.7015C100.643 96.824 101.174 96.3785 101.174 95.6735C101.174 94.9685 100.643 94.3358 99.949 94.2133C99.2548 94.0909 98.7238 94.5364 98.7238 95.2414C98.7238 95.9464 99.2548 96.5791 99.949 96.7015Z" fill="white" stroke="white"/>
<path d="M99.949 123.244C100.643 123.366 101.174 122.92 101.174 122.215C101.174 121.51 100.643 120.878 99.949 120.755C99.2548 120.633 98.7238 121.078 98.7238 121.783C98.7238 122.488 99.2548 123.121 99.949 123.244Z" fill="white" stroke="white"/>
<path d="M99.949 149.784C100.643 149.906 101.174 149.461 101.174 148.756C101.174 148.051 100.643 147.418 99.949 147.295C99.2548 147.173 98.7238 147.618 98.7238 148.323C98.7238 149.028 99.2548 149.661 99.949 149.784Z" fill="white" stroke="white"/>
<path d="M99.949 176.325C100.643 176.447 101.174 176.002 101.174 175.297C101.174 174.592 100.643 173.959 99.949 173.837C99.2548 173.714 98.7238 174.16 98.7238 174.865C98.7238 175.57 99.2548 176.202 99.949 176.325Z" fill="white" stroke="white"/>
<path d="M99.949 202.865C100.643 202.987 101.174 202.542 101.174 201.837C101.174 201.132 100.643 200.499 99.949 200.377C99.2548 200.254 98.7238 200.7 98.7238 201.405C98.7238 202.11 99.2548 202.742 99.949 202.865Z" fill="white" stroke="white"/>
<path d="M99.949 70.1615C100.643 70.2839 101.174 69.8384 101.174 69.1334C101.174 68.4285 100.643 67.7957 99.949 67.6733C99.2548 67.5509 98.7238 67.9964 98.7238 68.7014C98.7238 69.4064 99.2548 70.0391 99.949 70.1615Z" fill="white" stroke="white"/>
<path d="M99.949 43.6212C100.643 43.7436 101.174 43.2981 101.174 42.5932C101.174 41.8882 100.643 41.2554 99.949 41.133C99.2548 41.0106 98.7238 41.4561 98.7238 42.1611C98.7238 42.8661 99.2548 43.4988 99.949 43.6212Z" fill="white" stroke="white"/>
<path d="M73.8113 13.7156L73.8113 221.065" stroke="white"/>
<path d="M73.8132 92.0929C74.5075 92.2153 75.0384 91.7698 75.0384 91.0648C75.0384 90.3599 74.5075 89.7271 73.8132 89.6047C73.1189 89.4823 72.588 89.9278 72.588 90.6328C72.588 91.3378 73.1189 91.9705 73.8132 92.0929Z" fill="white" stroke="white"/>
<path d="M73.8132 118.635C74.5075 118.758 75.0384 118.312 75.0384 117.607C75.0384 116.902 74.5075 116.269 73.8132 116.147C73.1189 116.025 72.588 116.47 72.588 117.175C72.588 117.88 73.1189 118.513 73.8132 118.635Z" fill="white" stroke="white"/>
<path d="M73.8132 145.175C74.5075 145.297 75.0384 144.852 75.0384 144.147C75.0384 143.442 74.5075 142.809 73.8132 142.687C73.1189 142.564 72.588 143.01 72.588 143.715C72.588 144.42 73.1189 145.053 73.8132 145.175Z" fill="white" stroke="white"/>
<path d="M73.8132 171.716C74.5075 171.839 75.0384 171.393 75.0384 170.688C75.0384 169.983 74.5075 169.351 73.8132 169.228C73.1189 169.106 72.588 169.551 72.588 170.256C72.588 170.961 73.1189 171.594 73.8132 171.716Z" fill="white" stroke="white"/>
<path d="M73.8132 198.256C74.5075 198.379 75.0384 197.933 75.0384 197.228C75.0384 196.523 74.5075 195.891 73.8132 195.768C73.1189 195.646 72.588 196.091 72.588 196.796C72.588 197.501 73.1189 198.134 73.8132 198.256Z" fill="white" stroke="white"/>
<path d="M73.8132 65.5531C74.5075 65.6755 75.0384 65.23 75.0384 64.525C75.0384 63.8201 74.5075 63.1873 73.8132 63.0649C73.1189 62.9425 72.588 63.388 72.588 64.093C72.588 64.798 73.1189 65.4307 73.8132 65.5531Z" fill="white" stroke="white"/>
<path d="M73.8132 39.0128C74.5075 39.1352 75.0384 38.6898 75.0384 37.9848C75.0384 37.2798 74.5075 36.647 73.8132 36.5246C73.1189 36.4022 72.588 36.8477 72.588 37.5527C72.588 38.2577 73.1189 38.8904 73.8132 39.0128Z" fill="white" stroke="white"/>
<path d="M47.6696 9.1062L47.6696 216.456" stroke="white"/>
<path d="M47.6754 87.4843C48.3696 87.6067 48.9006 87.1612 48.9006 86.4562C48.9006 85.7512 48.3696 85.1185 47.6754 84.9961C46.9811 84.8736 46.4502 85.3191 46.4502 86.0241C46.4502 86.7291 46.9811 87.3618 47.6754 87.4843Z" fill="white" stroke="white"/>
<path d="M47.6754 114.026C48.3696 114.149 48.9006 113.703 48.9006 112.998C48.9006 112.293 48.3696 111.66 47.6754 111.538C46.9811 111.416 46.4502 111.861 46.4502 112.566C46.4502 113.271 46.9811 113.904 47.6754 114.026Z" fill="white" stroke="white"/>
<path d="M47.6754 140.566C48.3696 140.689 48.9006 140.243 48.9006 139.538C48.9006 138.833 48.3696 138.201 47.6754 138.078C46.9811 137.956 46.4502 138.401 46.4502 139.106C46.4502 139.811 46.9811 140.444 47.6754 140.566Z" fill="white" stroke="white"/>
<path d="M47.6754 167.108C48.3696 167.23 48.9006 166.784 48.9006 166.079C48.9006 165.374 48.3696 164.742 47.6754 164.619C46.9811 164.497 46.4502 164.942 46.4502 165.647C46.4502 166.352 46.9811 166.985 47.6754 167.108Z" fill="white" stroke="white"/>
<path d="M47.6754 193.648C48.3696 193.77 48.9006 193.325 48.9006 192.62C48.9006 191.915 48.3696 191.282 47.6754 191.159C46.9811 191.037 46.4502 191.482 46.4502 192.187C46.4502 192.892 46.9811 193.525 47.6754 193.648Z" fill="white" stroke="white"/>
<path d="M47.6754 60.9442C48.3696 61.0666 48.9006 60.6211 48.9006 59.9162C48.9006 59.2112 48.3696 58.5784 47.6754 58.456C46.9811 58.3336 46.4502 58.7791 46.4502 59.4841C46.4502 60.1891 46.9811 60.8218 47.6754 60.9442Z" fill="white" stroke="white"/>
<path d="M47.6754 34.4039C48.3696 34.5264 48.9006 34.0809 48.9006 33.3759C48.9006 32.6709 48.3696 32.0382 47.6754 31.9157C46.9811 31.7933 46.4502 32.2388 46.4502 32.9438C46.4502 33.6488 46.9811 34.2815 47.6754 34.4039Z" fill="white" stroke="white"/>
<path d="M21.5395 4.49878L21.5396 211.848" stroke="white"/>
<path d="M21.5337 82.8746C22.228 82.9971 22.7589 82.5516 22.7589 81.8466C22.7589 81.1416 22.228 80.5089 21.5337 80.3864C20.8395 80.264 20.3085 80.7095 20.3085 81.4145C20.3085 82.1195 20.8395 82.7522 21.5337 82.8746Z" fill="white" stroke="white"/>
<path d="M21.5337 109.417C22.228 109.539 22.7589 109.094 22.7589 108.389C22.7589 107.684 22.228 107.051 21.5337 106.929C20.8395 106.806 20.3085 107.252 20.3085 107.957C20.3085 108.662 20.8395 109.294 21.5337 109.417Z" fill="white" stroke="white"/>
<path d="M21.5337 135.957C22.228 136.079 22.7589 135.634 22.7589 134.929C22.7589 134.224 22.228 133.591 21.5337 133.468C20.8395 133.346 20.3085 133.792 20.3085 134.497C20.3085 135.202 20.8395 135.834 21.5337 135.957Z" fill="white" stroke="white"/>
<path d="M21.5337 162.498C22.228 162.621 22.7589 162.175 22.7589 161.47C22.7589 160.765 22.228 160.132 21.5337 160.01C20.8395 159.888 20.3085 160.333 20.3085 161.038C20.3085 161.743 20.8395 162.376 21.5337 162.498Z" fill="white" stroke="white"/>
<path d="M21.5337 189.038C22.228 189.161 22.7589 188.715 22.7589 188.01C22.7589 187.305 22.228 186.672 21.5337 186.55C20.8395 186.428 20.3085 186.873 20.3085 187.578C20.3085 188.283 20.8395 188.916 21.5337 189.038Z" fill="white" stroke="white"/>
<path d="M21.5337 56.3348C22.228 56.4573 22.7589 56.0118 22.7589 55.3068C22.7589 54.6018 22.228 53.9691 21.5337 53.8467C20.8395 53.7242 20.3085 54.1697 20.3085 54.8747C20.3085 55.5797 20.8395 56.2124 21.5337 56.3348Z" fill="white" stroke="white"/>
<path d="M21.5337 29.7946C22.228 29.917 22.7589 29.4715 22.7589 28.7665C22.7589 28.0615 22.228 27.4288 21.5337 27.3064C20.8395 27.1839 20.3085 27.6294 20.3085 28.3344C20.3085 29.0394 20.8395 29.6721 21.5337 29.7946Z" fill="white" stroke="white"/>
<path d="M204.466 115.112C205.16 115.235 205.691 114.789 205.691 114.084C205.691 113.379 205.16 112.746 204.466 112.624C203.771 112.502 203.24 112.947 203.24 113.652C203.24 114.357 203.771 114.99 204.466 115.112Z" fill="white" stroke="white"/>
<path d="M204.5 168.219C205.194 168.341 205.725 167.896 205.725 167.191C205.725 166.486 205.194 165.853 204.5 165.73C203.806 165.608 203.275 166.054 203.275 166.759C203.275 167.463 203.806 168.096 204.5 168.219Z" fill="white" stroke="white"/>
<path d="M230.638 119.745C231.332 119.868 231.863 119.422 231.863 118.717C231.863 118.012 231.332 117.38 230.638 117.257C229.944 117.135 229.413 117.58 229.413 118.285C229.413 118.99 229.944 119.623 230.638 119.745Z" fill="white" stroke="white"/>
<path d="M230.638 146.287C231.332 146.41 231.863 145.964 231.863 145.259C231.863 144.554 231.332 143.922 230.638 143.799C229.944 143.677 229.413 144.122 229.413 144.827C229.413 145.532 229.944 146.165 230.638 146.287Z" fill="white" stroke="white"/>
<path d="M230.638 172.828C231.332 172.95 231.863 172.504 231.863 171.799C231.863 171.094 231.332 170.462 230.638 170.339C229.944 170.217 229.413 170.662 229.413 171.367C229.413 172.072 229.944 172.705 230.638 172.828Z" fill="white" stroke="white"/>
<path d="M178.364 110.528C179.059 110.651 179.589 110.205 179.589 109.5C179.589 108.795 179.059 108.162 178.364 108.04C177.67 107.918 177.139 108.363 177.139 109.068C177.139 109.773 177.67 110.406 178.364 110.528Z" fill="white" stroke="white"/>
<path d="M178.364 137.07C179.059 137.193 179.589 136.747 179.589 136.042C179.589 135.337 179.059 134.704 178.364 134.582C177.67 134.46 177.139 134.905 177.139 135.61C177.139 136.315 177.67 136.948 178.364 137.07Z" fill="white" stroke="white"/>
<path d="M204.466 141.655C205.16 141.777 205.691 141.332 205.691 140.627C205.691 139.922 205.16 139.289 204.466 139.166C203.771 139.044 203.24 139.49 203.24 140.195C203.24 140.9 203.771 141.532 204.466 141.655Z" fill="white" stroke="white"/>
<path d="M178.364 163.61C179.059 163.733 179.589 163.287 179.589 162.582C179.589 161.877 179.059 161.244 178.364 161.122C177.67 161 177.139 161.445 177.139 162.15C177.139 162.855 177.67 163.488 178.364 163.61Z" fill="white" stroke="white"/>
</g>
</svg>
