<svg width="26px" height="22px" viewBox="0 0 26 22" version="1.1" xmlns="http://www.w3.org/2000/svg" xmlns:xlink="http://www.w3.org/1999/xlink" fill="currentcolor">
  <path d="M24.9465693,3.43255605 C24.0654891,3.83264574 23.1186277,4.10304933 22.1248175,4.22466368 C23.1392117,3.60206278 23.9181606,2.61623318 24.2849927,1.44161435 C23.3357664,2.01802691 22.2843212,2.43668161 21.1652555,2.66233184 C20.2690219,1.68466368 18.9922044,1.07372197 17.5791825,1.07372197 C14.8658686,1.07372197 12.6661022,3.32600897 12.6661022,6.10403587 C12.6661022,6.49829596 12.709635,6.88224215 12.7933723,7.25040359 C8.71021898,7.0406278 5.09016058,5.03793722 2.6670365,1.99452915 C2.24414599,2.73748879 2.00186861,3.60161435 2.00186861,4.52349776 C2.00186861,6.26869955 2.86928467,7.80843049 4.18753285,8.71049327 C3.38213139,8.68439462 2.62464234,8.45811659 1.96218978,8.08134529 C1.96183942,8.10233184 1.96183942,8.12340807 1.96183942,8.14457399 C1.96183942,10.5818834 3.65532847,12.6150673 5.90283212,13.07713 C5.49054015,13.1921076 5.05652555,13.2535426 4.60840876,13.2535426 C4.29185401,13.2535426 3.98405839,13.2220628 3.68414599,13.1633184 C4.30928467,15.1618834 6.12364964,16.6162332 8.27348905,16.656861 C6.59208759,18.006009 4.47369343,18.8102242 2.1719708,18.8102242 C1.77544526,18.8102242 1.38435036,18.7864574 1,18.74 C3.17418978,20.1672646 5.75664234,21 8.53109489,21 C17.567708,21 22.5092555,13.3347982 22.5092555,6.68735426 C22.5092555,6.46923767 22.5045255,6.252287 22.4950657,6.03659193 C23.4548905,5.32735426 24.2878832,4.44134529 24.9465693,3.43255605" fill="currentcolor"></path>
</svg>
