<svg width="592" height="287" viewBox="0 0 592 287" fill="none" xmlns="http://www.w3.org/2000/svg">
<rect x="61" y="68.4004" width="150" height="150" rx="24" fill="white"/>
<rect x="61" y="68.4004" width="150" height="150" rx="24" stroke="#E4ECFB"/>
<path fill-rule="evenodd" clip-rule="evenodd" d="M104.527 125.441C107.58 125.441 110.054 122.967 110.054 119.914C110.054 116.861 107.58 114.387 104.527 114.387C101.475 114.387 99 116.861 99 119.914C99 122.967 101.475 125.441 104.527 125.441Z" fill="#509EE3"/>
<path fill-rule="evenodd" clip-rule="evenodd" d="M104.527 141.427C107.58 141.427 110.054 138.953 110.054 135.9C110.054 132.848 107.58 130.373 104.527 130.373C101.475 130.373 99 132.848 99 135.9C99 138.953 101.475 141.427 104.527 141.427Z" fill="#509EE3"/>
<path fill-rule="evenodd" clip-rule="evenodd" d="M120.514 141.427C123.566 141.427 126.041 138.953 126.041 135.9C126.041 132.848 123.566 130.373 120.514 130.373C117.461 130.373 114.986 132.848 114.986 135.9C114.986 138.953 117.461 141.427 120.514 141.427Z" fill="#509EE3"/>
<path fill-rule="evenodd" clip-rule="evenodd" d="M168.473 125.441C171.525 125.441 174 122.967 174 119.914C174 116.861 171.525 114.387 168.473 114.387C165.42 114.387 162.946 116.861 162.946 119.914C162.946 122.967 165.42 125.441 168.473 125.441Z" fill="#509EE3"/>
<path fill-rule="evenodd" clip-rule="evenodd" d="M152.486 141.427C155.539 141.427 158.014 138.953 158.014 135.9C158.014 132.848 155.539 130.373 152.486 130.373C149.434 130.373 146.959 132.848 146.959 135.9C146.959 138.953 149.434 141.427 152.486 141.427Z" fill="#509EE3"/>
<path fill-rule="evenodd" clip-rule="evenodd" d="M136.5 157.414C139.553 157.414 142.027 154.939 142.027 151.887C142.027 148.834 139.553 146.359 136.5 146.359C133.447 146.359 130.973 148.834 130.973 151.887C130.973 154.939 133.447 157.414 136.5 157.414Z" fill="#509EE3"/>
<path fill-rule="evenodd" clip-rule="evenodd" d="M168.473 141.427C171.525 141.427 174 138.953 174 135.9C174 132.848 171.525 130.373 168.473 130.373C165.42 130.373 162.946 132.848 162.946 135.9C162.946 138.953 165.42 141.427 168.473 141.427Z" fill="#509EE3"/>
<path fill-rule="evenodd" clip-rule="evenodd" d="M104.527 157.414C107.58 157.414 110.054 154.939 110.054 151.887C110.054 148.834 107.58 146.359 104.527 146.359C101.475 146.359 99 148.834 99 151.887C99 154.939 101.475 157.414 104.527 157.414Z" fill="#509EE3"/>
<path fill-rule="evenodd" clip-rule="evenodd" d="M168.473 157.414C171.525 157.414 174 154.939 174 151.887C174 148.834 171.525 146.359 168.473 146.359C165.42 146.359 162.946 148.834 162.946 151.887C162.946 154.939 165.42 157.414 168.473 157.414Z" fill="#509EE3"/>
<path fill-rule="evenodd" clip-rule="evenodd" d="M104.527 173.401C107.58 173.401 110.054 170.926 110.054 167.873C110.054 164.821 107.58 162.346 104.527 162.346C101.475 162.346 99 164.821 99 167.873C99 170.926 101.475 173.401 104.527 173.401Z" fill="#509EE3"/>
<path fill-rule="evenodd" clip-rule="evenodd" d="M168.473 173.401C171.525 173.401 174 170.926 174 167.873C174 164.821 171.525 162.346 168.473 162.346C165.42 162.346 162.946 164.821 162.946 167.873C162.946 170.926 165.42 173.401 168.473 173.401Z" fill="#509EE3"/>
<path fill-rule="evenodd" clip-rule="evenodd" d="M120.514 125.441C123.566 125.441 126.041 122.967 126.041 119.914C126.041 116.861 123.566 114.387 120.514 114.387C117.461 114.387 114.986 116.861 114.986 119.914C114.986 122.967 117.461 125.441 120.514 125.441Z" fill="#C2DAF0"/>
<path fill-rule="evenodd" clip-rule="evenodd" d="M136.5 125.441C139.553 125.441 142.027 122.967 142.027 119.914C142.027 116.861 139.553 114.387 136.5 114.387C133.447 114.387 130.973 116.861 130.973 119.914C130.973 122.967 133.447 125.441 136.5 125.441Z" fill="#C2DAF0"/>
<path fill-rule="evenodd" clip-rule="evenodd" d="M136.5 109.455C139.553 109.455 142.027 106.98 142.027 103.928C142.027 100.875 139.553 98.4004 136.5 98.4004C133.447 98.4004 130.973 100.875 130.973 103.928C130.973 106.98 133.447 109.455 136.5 109.455Z" fill="#C2DAF0"/>
<path fill-rule="evenodd" clip-rule="evenodd" d="M136.5 141.427C139.553 141.427 142.027 138.953 142.027 135.9C142.027 132.848 139.553 130.373 136.5 130.373C133.447 130.373 130.973 132.848 130.973 135.9C130.973 138.953 133.447 141.427 136.5 141.427Z" fill="#C2DAF0"/>
<path fill-rule="evenodd" clip-rule="evenodd" d="M152.486 125.441C155.539 125.441 158.014 122.967 158.014 119.914C158.014 116.861 155.539 114.387 152.486 114.387C149.434 114.387 146.959 116.861 146.959 119.914C146.959 122.967 149.434 125.441 152.486 125.441Z" fill="#C2DAF0"/>
<path fill-rule="evenodd" clip-rule="evenodd" d="M120.514 157.414C123.566 157.414 126.041 154.939 126.041 151.887C126.041 148.834 123.566 146.359 120.514 146.359C117.461 146.359 114.986 148.834 114.986 151.887C114.986 154.939 117.461 157.414 120.514 157.414Z" fill="#C2DAF0"/>
<path fill-rule="evenodd" clip-rule="evenodd" d="M152.486 157.414C155.539 157.414 158.014 154.939 158.014 151.887C158.014 148.834 155.539 146.359 152.486 146.359C149.434 146.359 146.959 148.834 146.959 151.887C146.959 154.939 149.434 157.414 152.486 157.414Z" fill="#C2DAF0"/>
<path fill-rule="evenodd" clip-rule="evenodd" d="M120.514 173.401C123.566 173.401 126.041 170.926 126.041 167.873C126.041 164.821 123.566 162.346 120.514 162.346C117.461 162.346 114.986 164.821 114.986 167.873C114.986 170.926 117.461 173.401 120.514 173.401Z" fill="#C2DAF0"/>
<path fill-rule="evenodd" clip-rule="evenodd" d="M136.5 173.401C139.553 173.401 142.027 170.926 142.027 167.873C142.027 164.821 139.553 162.346 136.5 162.346C133.447 162.346 130.973 164.821 130.973 167.873C130.973 170.926 133.447 173.401 136.5 173.401Z" fill="#C2DAF0"/>
<path fill-rule="evenodd" clip-rule="evenodd" d="M136.5 189.387C139.553 189.387 142.027 186.912 142.027 183.86C142.027 180.807 139.553 178.333 136.5 178.333C133.447 178.333 130.973 180.807 130.973 183.86C130.973 186.912 133.447 189.387 136.5 189.387Z" fill="#C2DAF0"/>
<path fill-rule="evenodd" clip-rule="evenodd" d="M152.486 173.401C155.539 173.401 158.014 170.926 158.014 167.873C158.014 164.821 155.539 162.346 152.486 162.346C149.434 162.346 146.959 164.821 146.959 167.873C146.959 170.926 149.434 173.401 152.486 173.401Z" fill="#C2DAF0"/>
<path d="M510.97 164.32V186.587C510.97 194.726 505.593 202.87 494.831 209.084C473.311 221.506 438.419 221.506 416.903 209.084C406.141 202.87 400.764 194.726 400.764 186.587H400.76V164.32L510.97 164.32Z" fill="#EEF6FC" stroke="#C2DAF0"/>
<circle cx="44.9928" cy="44.9928" r="44.9928" transform="matrix(0.866025 -0.5 0.866025 0.5 378.099 164.067)" fill="#E4ECFB" stroke="#C2DAF0"/>
<path d="M510.97 132.483V154.75C510.97 162.889 505.593 171.033 494.831 177.246C473.311 189.669 438.419 189.669 416.903 177.246C406.141 171.033 400.764 162.889 400.764 154.75H400.76V132.483L510.97 132.483Z" fill="#EEF6FC" stroke="#C2DAF0"/>
<circle cx="44.9928" cy="44.9928" r="44.9928" transform="matrix(0.866025 -0.5 0.866025 0.5 378.099 132.23)" fill="#E4ECFB" stroke="#C2DAF0"/>
<path d="M510.97 100.646V122.913C510.97 131.052 505.593 139.196 494.831 145.409C473.311 157.832 438.419 157.832 416.903 145.409C406.141 139.196 400.764 131.052 400.764 122.913H400.76V100.646L510.97 100.646Z" fill="#EEF6FC" stroke="#C2DAF0"/>
<circle cx="44.9928" cy="44.9928" r="44.9928" transform="matrix(0.866025 -0.5 0.866025 0.5 378.099 100.393)" fill="#E4ECFB" stroke="#C2DAF0"/>
<path d="M133 219.4V237.9C133 242.319 136.582 245.9 141 245.9H451C455.418 245.9 459 242.319 459 237.9V219.4" stroke="#C2DAF0" stroke-dasharray="4 4"/>
<path d="M459 66.9004L459 48.4004C459 43.9821 455.418 40.4004 451 40.4004L141 40.4004C136.582 40.4004 133 43.9821 133 48.4004L133 66.9004" stroke="#C2DAF0" stroke-dasharray="4 4"/>
<path d="M275.052 25.7441H274.012V28.4004H272.64V21.291H275.022C275.416 21.291 275.773 21.3382 276.092 21.4326C276.411 21.5238 276.684 21.6589 276.912 21.8379C277.137 22.0169 277.309 22.2399 277.43 22.5068C277.553 22.7738 277.615 23.083 277.615 23.4346C277.615 23.6885 277.584 23.918 277.522 24.123C277.464 24.3249 277.379 24.5055 277.269 24.665C277.155 24.8278 277.018 24.9694 276.858 25.0898C276.702 25.2103 276.526 25.3145 276.331 25.4023L277.859 28.3369V28.4004H276.39L275.052 25.7441ZM274.012 24.6309H275.027C275.239 24.6309 275.424 24.6016 275.584 24.543C275.747 24.4811 275.879 24.3932 275.979 24.2793C276.064 24.1882 276.128 24.0791 276.17 23.9521C276.215 23.8252 276.238 23.6836 276.238 23.5273C276.238 23.3385 276.209 23.1725 276.15 23.0293C276.095 22.8828 276.01 22.7624 275.896 22.668C275.796 22.5833 275.672 22.5182 275.525 22.4727C275.379 22.4271 275.211 22.4043 275.022 22.4043H274.012V24.6309ZM284.021 25.2852H281.101V27.292H284.514V28.4004H279.724V21.291H284.499V22.4092H281.101V24.2012H284.021V25.2852ZM290.343 26.5449C290.343 26.418 290.32 26.2992 290.274 26.1885C290.232 26.0778 290.159 25.9736 290.055 25.876C289.947 25.7816 289.807 25.6953 289.635 25.6172C289.465 25.5358 289.254 25.4609 289 25.3926C288.606 25.2852 288.259 25.1549 287.96 25.002C287.664 24.849 287.421 24.6813 287.232 24.499C287.044 24.3167 286.9 24.1149 286.803 23.8936C286.708 23.6722 286.661 23.4313 286.661 23.1709C286.661 22.8714 286.725 22.5996 286.852 22.3555C286.979 22.1113 287.154 21.903 287.379 21.7305C287.604 21.5579 287.869 21.4261 288.175 21.335C288.481 21.2406 288.813 21.1934 289.171 21.1934C289.542 21.1934 289.881 21.2471 290.187 21.3545C290.496 21.4619 290.761 21.6117 290.982 21.8037C291.204 21.999 291.376 22.2301 291.5 22.4971C291.624 22.764 291.686 23.057 291.686 23.376H290.348C290.341 23.2165 290.312 23.07 290.26 22.9365C290.211 22.8031 290.138 22.6875 290.04 22.5898C289.939 22.4954 289.814 22.4222 289.664 22.3701C289.518 22.3148 289.345 22.2871 289.146 22.2871C288.964 22.2871 288.801 22.3099 288.658 22.3555C288.518 22.3978 288.399 22.458 288.302 22.5361C288.204 22.6175 288.129 22.7135 288.077 22.8242C288.028 22.9316 288.004 23.0488 288.004 23.1758C288.004 23.3092 288.036 23.4297 288.102 23.5371C288.17 23.6445 288.268 23.7406 288.395 23.8252C288.521 23.9131 288.674 23.9928 288.854 24.0645C289.036 24.1361 289.241 24.2028 289.469 24.2646C289.713 24.333 289.946 24.416 290.167 24.5137C290.388 24.6113 290.592 24.7236 290.777 24.8506C291.057 25.0589 291.28 25.3014 291.446 25.5781C291.612 25.8548 291.695 26.1738 291.695 26.5352C291.695 26.8477 291.632 27.126 291.505 27.3701C291.381 27.611 291.209 27.8145 290.987 27.9805C290.766 28.1497 290.502 28.2783 290.196 28.3662C289.89 28.4508 289.557 28.4932 289.195 28.4932C288.84 28.4932 288.489 28.4411 288.141 28.3369C287.796 28.2295 287.494 28.0732 287.237 27.8682C286.993 27.6663 286.799 27.4287 286.656 27.1553C286.516 26.8818 286.446 26.5612 286.446 26.1934H287.794C287.8 26.4082 287.838 26.5921 287.906 26.7451C287.975 26.8981 288.071 27.0234 288.194 27.1211C288.315 27.2188 288.46 27.2904 288.629 27.3359C288.801 27.3815 288.99 27.4043 289.195 27.4043C289.378 27.4043 289.539 27.3831 289.679 27.3408C289.822 27.2985 289.942 27.2399 290.04 27.165C290.138 27.0902 290.213 27.0007 290.265 26.8965C290.317 26.7891 290.343 26.6719 290.343 26.5449ZM298.394 21.291L298.398 26.0029C298.398 26.4001 298.343 26.7533 298.232 27.0625C298.125 27.3717 297.969 27.6322 297.764 27.8438C297.555 28.0586 297.301 28.2214 297.002 28.332C296.706 28.4427 296.367 28.498 295.986 28.498C295.628 28.498 295.304 28.4427 295.015 28.332C294.728 28.2214 294.482 28.0602 294.277 27.8486C294.072 27.637 293.913 27.3766 293.799 27.0674C293.688 26.7549 293.633 26.4001 293.633 26.0029L293.638 21.291H295.01L295.015 26.0029C295.018 26.2406 295.041 26.4489 295.083 26.6279C295.129 26.807 295.195 26.9551 295.283 27.0723C295.365 27.1797 295.464 27.2611 295.581 27.3164C295.698 27.3685 295.833 27.3945 295.986 27.3945C296.152 27.3945 296.299 27.3669 296.426 27.3115C296.556 27.2529 296.663 27.1667 296.748 27.0527C296.839 26.9355 296.908 26.7891 296.953 26.6133C296.999 26.4375 297.023 26.234 297.026 26.0029L297.031 21.291H298.394ZM302.133 27.292H305.463V28.4004H300.756V21.291H302.133V27.292ZM312.894 22.4092H310.701V28.4004H309.324V22.4092H307.161V21.291H312.894V22.4092ZM318.366 26.5449C318.366 26.418 318.343 26.2992 318.298 26.1885C318.256 26.0778 318.182 25.9736 318.078 25.876C317.971 25.7816 317.831 25.6953 317.658 25.6172C317.489 25.5358 317.277 25.4609 317.023 25.3926C316.63 25.2852 316.283 25.1549 315.983 25.002C315.687 24.849 315.445 24.6813 315.256 24.499C315.067 24.3167 314.924 24.1149 314.826 23.8936C314.732 23.6722 314.685 23.4313 314.685 23.1709C314.685 22.8714 314.748 22.5996 314.875 22.3555C315.002 22.1113 315.178 21.903 315.402 21.7305C315.627 21.5579 315.892 21.4261 316.198 21.335C316.504 21.2406 316.836 21.1934 317.194 21.1934C317.565 21.1934 317.904 21.2471 318.21 21.3545C318.519 21.4619 318.785 21.6117 319.006 21.8037C319.227 21.999 319.4 22.2301 319.523 22.4971C319.647 22.764 319.709 23.057 319.709 23.376H318.371C318.365 23.2165 318.335 23.07 318.283 22.9365C318.234 22.8031 318.161 22.6875 318.063 22.5898C317.963 22.4954 317.837 22.4222 317.688 22.3701C317.541 22.3148 317.368 22.2871 317.17 22.2871C316.988 22.2871 316.825 22.3099 316.682 22.3555C316.542 22.3978 316.423 22.458 316.325 22.5361C316.228 22.6175 316.153 22.7135 316.101 22.8242C316.052 22.9316 316.027 23.0488 316.027 23.1758C316.027 23.3092 316.06 23.4297 316.125 23.5371C316.193 23.6445 316.291 23.7406 316.418 23.8252C316.545 23.9131 316.698 23.9928 316.877 24.0645C317.059 24.1361 317.264 24.2028 317.492 24.2646C317.736 24.333 317.969 24.416 318.19 24.5137C318.412 24.6113 318.615 24.7236 318.801 24.8506C319.081 25.0589 319.304 25.3014 319.47 25.5781C319.636 25.8548 319.719 26.1738 319.719 26.5352C319.719 26.8477 319.655 27.126 319.528 27.3701C319.405 27.611 319.232 27.8145 319.011 27.9805C318.789 28.1497 318.526 28.2783 318.22 28.3662C317.914 28.4508 317.58 28.4932 317.219 28.4932C316.864 28.4932 316.512 28.4411 316.164 28.3369C315.819 28.2295 315.518 28.0732 315.261 27.8682C315.017 27.6663 314.823 27.4287 314.68 27.1553C314.54 26.8818 314.47 26.5612 314.47 26.1934H315.817C315.824 26.4082 315.861 26.5921 315.93 26.7451C315.998 26.8981 316.094 27.0234 316.218 27.1211C316.338 27.2188 316.483 27.2904 316.652 27.3359C316.825 27.3815 317.014 27.4043 317.219 27.4043C317.401 27.4043 317.562 27.3831 317.702 27.3408C317.845 27.2985 317.966 27.2399 318.063 27.165C318.161 27.0902 318.236 27.0007 318.288 26.8965C318.34 26.7891 318.366 26.6719 318.366 26.5449Z" fill="#8D93A5"/>
<path d="M284.645 263.583C284.641 263.827 284.615 264.065 284.566 264.296C284.521 264.527 284.452 264.745 284.361 264.95C284.29 265.11 284.203 265.263 284.103 265.409C284.005 265.552 283.893 265.684 283.766 265.805L284.942 266.869L284.059 267.655L282.706 266.405C282.592 266.435 282.475 266.457 282.354 266.474C282.237 266.49 282.115 266.498 281.988 266.498C281.702 266.498 281.438 266.459 281.197 266.381C280.956 266.303 280.738 266.194 280.543 266.054C280.344 265.91 280.17 265.74 280.021 265.541C279.874 265.342 279.755 265.129 279.664 264.901C279.583 264.703 279.521 264.493 279.479 264.271C279.436 264.047 279.415 263.817 279.415 263.583V262.353C279.415 262.082 279.435 261.824 279.474 261.576C279.516 261.326 279.576 261.094 279.654 260.883C279.745 260.619 279.868 260.382 280.021 260.17C280.174 259.955 280.356 259.773 280.567 259.623C280.759 259.486 280.974 259.381 281.212 259.306C281.45 259.231 281.708 259.193 281.988 259.193C282.268 259.193 282.53 259.231 282.774 259.306C283.019 259.381 283.24 259.486 283.438 259.623C283.663 259.783 283.86 259.978 284.029 260.209C284.199 260.44 284.332 260.699 284.43 260.985C284.501 261.187 284.555 261.404 284.591 261.635C284.627 261.863 284.645 262.102 284.645 262.353V263.583ZM283.253 262.343C283.253 262.151 283.243 261.967 283.224 261.791C283.204 261.615 283.172 261.454 283.126 261.308C283.087 261.155 283.03 261.016 282.955 260.893C282.88 260.766 282.796 260.658 282.701 260.57C282.61 260.495 282.504 260.437 282.384 260.395C282.267 260.352 282.135 260.331 281.988 260.331C281.848 260.331 281.723 260.351 281.612 260.39C281.502 260.429 281.404 260.486 281.319 260.561C281.196 260.668 281.096 260.806 281.021 260.976C280.95 261.142 280.898 261.329 280.865 261.537C280.846 261.658 280.831 261.786 280.821 261.923C280.812 262.056 280.807 262.196 280.807 262.343V263.583C280.807 263.707 280.812 263.83 280.821 263.954C280.834 264.078 280.854 264.197 280.88 264.311C280.919 264.486 280.976 264.646 281.051 264.789C281.126 264.932 281.22 265.051 281.334 265.146C281.415 265.217 281.51 265.272 281.617 265.312C281.728 265.351 281.852 265.37 281.988 265.37C282.128 265.37 282.255 265.351 282.369 265.312C282.483 265.269 282.586 265.214 282.677 265.146C282.791 265.051 282.887 264.934 282.965 264.794C283.046 264.654 283.11 264.504 283.155 264.345C283.188 264.224 283.212 264.101 283.229 263.974C283.245 263.843 283.253 263.713 283.253 263.583V262.343ZM291.382 259.291L291.387 264.003C291.387 264.4 291.331 264.753 291.221 265.062C291.113 265.372 290.957 265.632 290.752 265.844C290.544 266.059 290.29 266.221 289.99 266.332C289.694 266.443 289.355 266.498 288.975 266.498C288.617 266.498 288.293 266.443 288.003 266.332C287.716 266.221 287.471 266.06 287.266 265.849C287.061 265.637 286.901 265.377 286.787 265.067C286.676 264.755 286.621 264.4 286.621 264.003L286.626 259.291H287.998L288.003 264.003C288.006 264.241 288.029 264.449 288.071 264.628C288.117 264.807 288.184 264.955 288.271 265.072C288.353 265.18 288.452 265.261 288.569 265.316C288.687 265.368 288.822 265.395 288.975 265.395C289.141 265.395 289.287 265.367 289.414 265.312C289.544 265.253 289.652 265.167 289.736 265.053C289.827 264.936 289.896 264.789 289.941 264.613C289.987 264.438 290.011 264.234 290.015 264.003L290.02 259.291H291.382ZM298.026 263.285H295.106V265.292H298.52V266.4H293.729V259.291H298.505V260.409H295.106V262.201H298.026V263.285ZM303.069 263.744H302.029V266.4H300.657V259.291H303.04C303.434 259.291 303.79 259.338 304.109 259.433C304.428 259.524 304.702 259.659 304.93 259.838C305.154 260.017 305.327 260.24 305.447 260.507C305.571 260.774 305.633 261.083 305.633 261.435C305.633 261.688 305.602 261.918 305.54 262.123C305.481 262.325 305.397 262.506 305.286 262.665C305.172 262.828 305.035 262.969 304.876 263.09C304.72 263.21 304.544 263.314 304.349 263.402L305.877 266.337V266.4H304.407L303.069 263.744ZM302.029 262.631H303.045C303.257 262.631 303.442 262.602 303.602 262.543C303.764 262.481 303.896 262.393 303.997 262.279C304.082 262.188 304.145 262.079 304.188 261.952C304.233 261.825 304.256 261.684 304.256 261.527C304.256 261.339 304.227 261.173 304.168 261.029C304.113 260.883 304.028 260.762 303.914 260.668C303.813 260.583 303.689 260.518 303.543 260.473C303.396 260.427 303.229 260.404 303.04 260.404H302.029V262.631ZM310.09 262.567L311.491 259.291H313L310.764 263.939L310.759 266.4H309.392L309.387 263.881L307.185 259.291H308.688L310.09 262.567Z" fill="#8D93A5"/>
<line x1="154.913" y1="40.4004" x2="198.624" y2="40.4004" stroke="url(#paint0_linear_211_2584)" stroke-width="2"/>
<defs>
<linearGradient id="paint0_linear_211_2584" x1="154.913" y1="41.9004" x2="198.624" y2="41.9004" gradientUnits="userSpaceOnUse">
<stop stop-color="#509EE3"/>
<stop offset="1" stop-color="#8FC1ED" stop-opacity="0"/>
</linearGradient>
</defs>
</svg>
