<svg width="14" height="14" viewBox="0 0 14 14" fill="none" xmlns="http://www.w3.org/2000/svg">
<path d="M6.99926 2.79081C8.00398 2.80133 8.97477 3.11785 9.77459 3.68839L8.15002 3.66509L8.00421 3.663V3.80883V4.9853V5.12649L8.14538 5.12902L12.2474 5.20255L12.3971 5.20524L12.3937 5.05557L12.3019 0.996748L12.2987 0.85625H12.1582H10.9337H10.7876L10.7899 1.00232L10.8156 2.59403C9.7309 1.76976 8.38794 1.31692 7.0005 1.31213H7C3.31824 1.31213 0.85625 4.36732 0.85625 7.22059C0.85625 10.0734 3.3178 13.1438 7 13.1438C10.6818 13.1438 13.1438 10.0886 13.1438 7.2353V7.09155H13H11.7755H11.6318V7.2353C11.6318 9.09912 10.0273 11.6798 7 11.6798C6.03142 11.6798 4.86954 11.2947 3.95138 10.5432C3.03657 9.79439 2.36824 8.68621 2.36824 7.2353C2.36824 5.37197 3.98744 2.79124 6.99926 2.79081Z" fill="#8D93A5" stroke="#8D93A5" stroke-width="0.2875"/>
</svg>
